AnekKannada-Thin.ufo
<glyph name="plus" format="2">
  <advance width="992"/>
  <unicode hex="002B"/>
  <outline>
    <contour>
      <point x="515" y="1040" type="line"/>
      <point x="478" y="1040" type="line"/>
      <point x="478" y="211" type="line"/>
      <point x="515" y="211" type="line"/>
    </contour>
    <contour>
      <point x="872" y="609" type="line"/>
      <point x="872" y="642" type="line"/>
      <point x="120" y="642" type="line"/>
      <point x="120" y="609" type="line"/>
    </contour>
  </outline>
</glyph>
<glyph name="H" format="2">
  <advance width="1189"/>
  <unicode hex="0048"/>
  <anchor x="595" y="0" name="bottom"/>
  <anchor x="595" y="639" name="center"/>
  <anchor x="595" y="1278" name="top"/>
  <anchor x="26" y="1278" name="topleft"/>
  <outline>
    <contour>
      <point x="224" y="1278" type="line"/>
      <point x="185" y="1278" type="line"/>
      <point x="185" y="0" type="line"/>
      <point x="224" y="0" type="line"/>
    </contour>
    <contour>
      <point x="1004" y="1278" type="line"/>
      <point x="965" y="1278" type="line"/>
      <point x="965" y="0" type="line"/>
      <point x="1004" y="0" type="line"/>
    </contour>
    <contour>
      <point x="207" y="646" type="line"/>
      <point x="987" y="646" type="line"/>
      <point x="987" y="681" type="line"/>
      <point x="207" y="681" type="line"/>
    </contour>
  </outline>
</glyph>
<glyph name="W" format="2">
  <advance width="1568"/>
  <unicode hex="0057"/>
  <anchor x="785" y="0" name="bottom"/>
  <anchor x="785" y="1278" name="top"/>
  <outline>
    <contour>
      <point x="474" y="0" type="line"/>
      <point x="693" y="876" type="line"/>
      <point x="776" y="1208" type="line"/>
      <point x="792" y="1208" type="line"/>
      <point x="875" y="876" type="line"/>
      <point x="1096" y="0" type="line"/>
      <point x="1176" y="0" type="line"/>
      <point x="1476" y="1278" type="line"/>
      <point x="1436" y="1278" type="line"/>
      <point x="1158" y="75" type="line"/>
      <point x="1148" y="34" type="line"/>
      <point x="1124" y="34" type="line"/>
      <point x="1114" y="75" type="line"/>
      <point x="821" y="1240" type="line"/>
      <point x="747" y="1240" type="line"/>
      <point x="456" y="76" type="line"/>
      <point x="445" y="34" type="line"/>
      <point x="421" y="34" type="line"/>
      <point x="411" y="76" type="line"/>
      <point x="133" y="1278" type="line"/>
      <point x="92" y="1278" type="line"/>
      <point x="392" y="0" type="line"/>
    </contour>
  </outline>
</glyph>
<glyph name="X" format="2">
  <advance width="1079"/>
  <unicode hex="0058"/>
  <anchor x="540" y="0" name="bottom"/>
  <anchor x="540" y="1278" name="top"/>
  <outline>
    <contour>
      <point x="127" y="0" type="line"/>
      <point x="535" y="633" type="line"/>
      <point x="545" y="633" type="line"/>
      <point x="953" y="0" type="line"/>
      <point x="997" y="0" type="line"/>
      <point x="567" y="666" type="line"/>
      <point x="567" y="652" type="line"/>
      <point x="992" y="1278" type="line"/>
      <point x="947" y="1278" type="line"/>
      <point x="545" y="683" type="line"/>
      <point x="535" y="683" type="line"/>
      <point x="132" y="1278" type="line"/>
      <point x="88" y="1278" type="line"/>
      <point x="513" y="652" type="line"/>
      <point x="513" y="666" type="line"/>
      <point x="82" y="0" type="line"/>
    </contour>
  </outline>
</glyph>
<glyph name="u" format="2">
  <advance width="1016"/>
  <unicode hex="0075"/>
  <anchor x="503" y="0" name="bottom"/>
  <anchor x="895" y="0" name="ogonek"/>
  <anchor x="503" y="971" name="top"/>
  <anchor x="985" y="971" name="topright"/>
  <outline>
    <contour>
      <point x="147" y="971" type="line"/>
      <point x="147" y="349" type="line" smooth="yes"/>
      <point x="147" y="121"/>
      <point x="233" y="-19"/>
      <point x="474" y="-19" type="curve" smooth="yes"/>
      <point x="689" y="-19"/>
      <point x="813" y="120"/>
      <point x="831" y="283" type="curve"/>
      <point x="842" y="283" type="line"/>
      <point x="824" y="321" type="line"/>
      <point x="797" y="143"/>
      <point x="675" y="14"/>
      <point x="476" y="14" type="curve" smooth="yes"/>
      <point x="262" y="14"/>
      <point x="184" y="140"/>
      <point x="184" y="351" type="curve" smooth="yes"/>
      <point x="184" y="971" type="line"/>
    </contour>
    <contour>
      <point x="817" y="971" type="line"/>
      <point x="817" y="254" type="line"/>
      <point x="821" y="254" type="line"/>
      <point x="817" y="0" type="line"/>
      <point x="854" y="0" type="line"/>
      <point x="854" y="971" type="line"/>
    </contour>
  </outline>
</glyph>
<glyph name="y" format="2">
  <advance width="939"/>
  <unicode hex="0079"/>
  <anchor x="639" y="-5" name="bottom"/>
  <anchor x="469" y="971" name="top"/>
  <outline>
    <contour>
      <point x="458" y="71" type="line"/>
      <point x="110" y="971" type="line"/>
      <point x="69" y="971" type="line"/>
      <point x="432" y="38" type="line"/>
      <point x="483" y="38" type="line"/>
      <point x="473" y="53" type="line"/>
      <point x="320" y="-344" type="line"/>
      <point x="361" y="-344" type="line"/>
      <point x="870" y="971" type="line"/>
      <point x="829" y="971" type="line"/>
      <point x="476" y="62" type="line"/>
      <point x="493" y="71" type="line"/>
    </contour>
  </outline>
</glyph>
<glyph name="Danda.dv" format="2">
  <advance width="774"/>
  <unicode hex="0964"/>
  <outline>
    <contour>
      <point x="405" y="1291" type="line"/>
      <point x="405" y="-9" type="line"/>
      <point x="370" y="-9" type="line"/>
      <point x="370" y="1304" type="line"/>
    </contour>
  </outline>
</glyph>
<glyph name="Candrabindu_Spacing.ka" format="2">
  <advance width="1142"/>
  <unicode hex="0C80"/>
  <unicode hex="0D04"/>
  <outline>
    <contour>
      <point x="571" y="856" type="curve" smooth="yes"/>
      <point x="587" y="856"/>
      <point x="595" y="846"/>
      <point x="595" y="822" type="curve" smooth="yes"/>
      <point x="595" y="564" type="line" smooth="yes"/>
      <point x="595" y="541"/>
      <point x="587" y="531"/>
      <point x="571" y="531" type="curve" smooth="yes"/>
      <point x="556" y="531"/>
      <point x="547" y="541"/>
      <point x="547" y="564" type="curve" smooth="yes"/>
      <point x="547" y="822" type="line" smooth="yes"/>
      <point x="547" y="846"/>
      <point x="556" y="856"/>
    </contour>
    <contour>
      <point x="571" y="145" type="curve" smooth="yes"/>
      <point x="861" y="145"/>
      <point x="1002" y="305"/>
      <point x="1002" y="608" type="curve" smooth="yes"/>
      <point x="1002" y="659"/>
      <point x="1002" y="689"/>
      <point x="1002" y="740" type="curve"/>
      <point x="966" y="740" type="line"/>
      <point x="966" y="608" type="line" smooth="yes"/>
      <point x="966" y="324"/>
      <point x="834" y="179"/>
      <point x="571" y="179" type="curve" smooth="yes"/>
      <point x="308" y="179"/>
      <point x="176" y="324"/>
      <point x="176" y="608" type="curve" smooth="yes"/>
      <point x="176" y="740" type="line"/>
      <point x="140" y="740" type="line"/>
      <point x="140" y="689"/>
      <point x="140" y="659"/>
      <point x="140" y="608" type="curve" smooth="yes"/>
      <point x="140" y="305"/>
      <point x="281" y="145"/>
    </contour>
  </outline>
</glyph>
<glyph name="Anuswara.kn" format="2">
  <advance width="1005"/>
  <unicode hex="0C82"/>
  <outline>
    <contour>
      <point x="136" y="464" type="line" smooth="yes"/>
      <point x="136" y="192"/>
      <point x="262" y="52"/>
      <point x="503" y="52" type="curve" smooth="yes"/>
      <point x="745" y="52"/>
      <point x="869" y="192"/>
      <point x="869" y="464" type="curve" smooth="yes"/>
      <point x="869" y="637" type="line" smooth="yes"/>
      <point x="869" y="910"/>
      <point x="745" y="1049"/>
      <point x="503" y="1049" type="curve" smooth="yes"/>
      <point x="262" y="1049"/>
      <point x="136" y="910"/>
      <point x="136" y="637" type="curve" smooth="yes"/>
    </contour>
    <contour>
      <point x="503" y="86" type="curve" smooth="yes"/>
      <point x="285" y="86"/>
      <point x="172" y="215"/>
      <point x="172" y="464" type="curve" smooth="yes"/>
      <point x="172" y="637" type="line" smooth="yes"/>
      <point x="172" y="887"/>
      <point x="285" y="1015"/>
      <point x="503" y="1015" type="curve" smooth="yes"/>
      <point x="720" y="1015"/>
      <point x="833" y="887"/>
      <point x="833" y="637" type="curve" smooth="yes"/>
      <point x="833" y="464" type="line" smooth="yes"/>
      <point x="833" y="215"/>
      <point x="720" y="86"/>
    </contour>
  </outline>
  <guideline angle="90" x="302" y="0"/>
  <guideline angle="0" x="0" y="1114"/>
</glyph>
<glyph name="swastisri" format="2">
  <advance width="1390"/>
  <unicode hex="0C84"/>
  <outline>
    <contour>
      <point x="1270" y="497" type="line" smooth="yes"/>
      <point x="1270" y="155"/>
      <point x="1069" y="-33"/>
      <point x="718" y="-33" type="curve" smooth="yes"/>
      <point x="346" y="-33"/>
      <point x="125" y="176"/>
      <point x="125" y="540" type="curve" smooth="yes"/>
      <point x="125" y="607" type="line" smooth="yes"/>
      <point x="125" y="1010"/>
      <point x="356" y="1249"/>
      <point x="773" y="1249" type="curve"/>
      <point x="773" y="1217" type="line"/>
      <point x="376" y="1217"/>
      <point x="160" y="992"/>
      <point x="160" y="607" type="curve" smooth="yes"/>
      <point x="160" y="540" type="line" smooth="yes"/>
      <point x="160" y="193"/>
      <point x="365" y="-1"/>
      <point x="718" y="-1" type="curve" smooth="yes"/>
      <point x="1047" y="-1"/>
      <point x="1235" y="175"/>
      <point x="1235" y="497" type="curve" smooth="yes"/>
      <point x="1235" y="562" type="line" smooth="yes"/>
      <point x="1235" y="850"/>
      <point x="1093" y="1001"/>
      <point x="822" y="1001" type="curve" smooth="yes"/>
      <point x="564" y="1001"/>
      <point x="429" y="865"/>
      <point x="429" y="607" type="curve" smooth="yes"/>
      <point x="429" y="544" type="line" smooth="yes"/>
      <point x="429" y="342"/>
      <point x="534" y="235"/>
      <point x="722" y="235" type="curve" smooth="yes"/>
      <point x="884" y="235"/>
      <point x="974" y="325"/>
      <point x="974" y="503" type="curve" smooth="yes"/>
      <point x="974" y="575" type="line" smooth="yes"/>
      <point x="974" y="698"/>
      <point x="921" y="765"/>
      <point x="825" y="765" type="curve" smooth="yes"/>
      <point x="732" y="765"/>
      <point x="683" y="708"/>
      <point x="683" y="600" type="curve" smooth="yes"/>
      <point x="683" y="564" type="line" smooth="yes"/>
      <point x="683" y="465"/>
      <point x="721" y="422"/>
      <point x="798" y="422" type="curve"/>
      <point x="798" y="394" type="line"/>
      <point x="793" y="394"/>
      <point x="786" y="392"/>
      <point x="778" y="392" type="curve" smooth="yes"/>
      <point x="696" y="392"/>
      <point x="648" y="452"/>
      <point x="648" y="563" type="curve" smooth="yes"/>
      <point x="648" y="599" type="line" smooth="yes"/>
      <point x="648" y="729"/>
      <point x="709" y="797"/>
      <point x="825" y="797" type="curve" smooth="yes"/>
      <point x="945" y="797"/>
      <point x="1009" y="718"/>
      <point x="1009" y="574" type="curve" smooth="yes"/>
      <point x="1009" y="503" type="line" smooth="yes"/>
      <point x="1009" y="308"/>
      <point x="905" y="203"/>
      <point x="722" y="203" type="curve" smooth="yes"/>
      <point x="512" y="203"/>
      <point x="394" y="323"/>
      <point x="394" y="544" type="curve" smooth="yes"/>
      <point x="394" y="607" type="line" smooth="yes"/>
      <point x="394" y="886"/>
      <point x="542" y="1033"/>
      <point x="822" y="1033" type="curve" smooth="yes"/>
      <point x="1116" y="1033"/>
      <point x="1270" y="871"/>
      <point x="1270" y="562" type="curve" smooth="yes"/>
    </contour>
  </outline>
</glyph>
<glyph name="vowelI.kn" format="2">
  <advance width="1383"/>
  <unicode hex="0C87"/>
  <outline>
    <contour>
      <point x="1257" y="-155" type="line"/>
      <point x="1229" y="5"/>
      <point x="1193" y="139"/>
      <point x="1139" y="257" type="curve"/>
      <point x="1115" y="226" type="line"/>
      <point x="1162" y="120"/>
      <point x="1196" y="-8"/>
      <point x="1221" y="-155" type="curve"/>
    </contour>
    <contour>
      <point x="1226" y="661" type="curve" smooth="yes"/>
      <point x="1226" y="825" type="line" smooth="yes"/>
      <point x="1226" y="1059"/>
      <point x="1129" y="1176"/>
      <point x="936" y="1176" type="curve" smooth="yes"/>
      <point x="767" y="1176"/>
      <point x="681" y="1084"/>
      <point x="667" y="936" type="curve"/>
      <point x="665" y="936" type="line"/>
      <point x="652" y="1084"/>
      <point x="566" y="1176"/>
      <point x="393" y="1176" type="curve" smooth="yes"/>
      <point x="208" y="1176"/>
      <point x="113" y="1077"/>
      <point x="113" y="876" type="curve" smooth="yes"/>
      <point x="113" y="866" type="line" smooth="yes"/>
      <point x="113" y="780"/>
      <point x="126" y="714"/>
      <point x="150" y="663" type="curve"/>
      <point x="189" y="663" type="line"/>
      <point x="165" y="715"/>
      <point x="149" y="780"/>
      <point x="149" y="867" type="curve" smooth="yes"/>
      <point x="149" y="875" type="line" smooth="yes"/>
      <point x="149" y="1054"/>
      <point x="233" y="1142"/>
      <point x="394" y="1142" type="curve" smooth="yes"/>
      <point x="564" y="1142"/>
      <point x="644" y="1046"/>
      <point x="647" y="846" type="curve" smooth="yes"/>
      <point x="649" y="697" type="line"/>
      <point x="683" y="697" type="line"/>
      <point x="685" y="846" type="line" smooth="yes"/>
      <point x="690" y="1046"/>
      <point x="769" y="1142"/>
      <point x="935" y="1142" type="curve" smooth="yes"/>
      <point x="1104" y="1142"/>
      <point x="1190" y="1037"/>
      <point x="1190" y="824" type="curve" smooth="yes"/>
      <point x="1190" y="660" type="line" smooth="yes"/>
      <point x="1190" y="483"/>
      <point x="1167" y="371"/>
      <point x="1116" y="267" type="curve"/>
      <point x="1111" y="260" type="line"/>
      <point x="1026" y="114"/>
      <point x="877" y="12"/>
      <point x="646" y="12" type="curve" smooth="yes"/>
      <point x="415" y="12"/>
      <point x="292" y="92"/>
      <point x="292" y="252" type="curve" smooth="yes"/>
      <point x="292" y="257" type="line" smooth="yes"/>
      <point x="292" y="414"/>
      <point x="408" y="493"/>
      <point x="634" y="493" type="curve" smooth="yes"/>
      <point x="861" y="493"/>
      <point x="1026" y="401"/>
      <point x="1110" y="239" type="curve"/>
      <point x="1130" y="271" type="line"/>
      <point x="1042" y="430"/>
      <point x="872" y="527"/>
      <point x="634" y="527" type="curve" smooth="yes"/>
      <point x="384" y="527"/>
      <point x="255" y="437"/>
      <point x="255" y="257" type="curve" smooth="yes"/>
      <point x="255" y="252" type="line" smooth="yes"/>
      <point x="255" y="70"/>
      <point x="391" y="-22"/>
      <point x="647" y="-22" type="curve" smooth="yes"/>
      <point x="882" y="-22"/>
      <point x="1043" y="79"/>
      <point x="1132" y="223" type="curve" smooth="yes"/>
      <point x="1139" y="234" type="line"/>
      <point x="1198" y="347"/>
      <point x="1226" y="473"/>
    </contour>
  </outline>
  <guideline angle="90" x="282" y="0"/>
  <guideline angle="0" x="0" y="-161"/>
</glyph>
<glyph name="vowelII.kn" format="2">
  <advance width="1705"/>
  <unicode hex="0C88"/>
  <outline>
    <contour>
      <point x="502" y="1143" type="line"/>
      <point x="502" y="1116" type="line"/>
      <point x="320" y="1068"/>
      <point x="224" y="916"/>
      <point x="224" y="659" type="curve" smooth="yes"/>
      <point x="224" y="469" type="line" smooth="yes"/>
      <point x="224" y="139"/>
      <point x="380" y="-25"/>
      <point x="683" y="-25" type="curve" smooth="yes"/>
      <point x="986" y="-25"/>
      <point x="1142" y="139"/>
      <point x="1142" y="469" type="curve" smooth="yes"/>
      <point x="1142" y="659" type="line" smooth="yes"/>
      <point x="1142" y="916"/>
      <point x="1047" y="1068"/>
      <point x="864" y="1116" type="curve"/>
      <point x="864" y="1143" type="line"/>
    </contour>
    <contour>
      <point x="683" y="9" type="curve" smooth="yes"/>
      <point x="404" y="9"/>
      <point x="260" y="165"/>
      <point x="260" y="469" type="curve" smooth="yes"/>
      <point x="260" y="659" type="line" smooth="yes"/>
      <point x="260" y="967"/>
      <point x="404" y="1118"/>
      <point x="683" y="1118" type="curve" smooth="yes"/>
      <point x="961" y="1118"/>
      <point x="1106" y="967"/>
      <point x="1106" y="659" type="curve" smooth="yes"/>
      <point x="1106" y="469" type="line" smooth="yes"/>
      <point x="1106" y="165"/>
      <point x="962" y="9"/>
    </contour>
    <contour>
      <point x="902" y="1118" type="line"/>
      <point x="902" y="1150" type="line"/>
      <point x="204" y="1150" type="line"/>
      <point x="204" y="1118" type="line"/>
    </contour>
    <contour>
      <point x="1533" y="247" type="line" smooth="yes"/>
      <point x="1533" y="86"/>
      <point x="1472" y="17"/>
      <point x="1343" y="17" type="curve" smooth="yes"/>
      <point x="1292" y="17"/>
      <point x="1239" y="28"/>
      <point x="1205" y="43" type="curve"/>
      <point x="1210" y="7" type="line"/>
      <point x="1242" y="-6"/>
      <point x="1295" y="-17"/>
      <point x="1344" y="-17" type="curve" smooth="yes"/>
      <point x="1498" y="-17"/>
      <point x="1569" y="66"/>
      <point x="1569" y="247" type="curve" smooth="yes"/>
      <point x="1569" y="321" type="line" smooth="yes"/>
      <point x="1569" y="459"/>
      <point x="1518" y="534"/>
      <point x="1440" y="558" type="curve"/>
      <point x="1440" y="569" type="line"/>
      <point x="1291" y="569" type="line"/>
      <point x="1291" y="559" type="line"/>
      <point x="1320" y="559" type="line" smooth="yes"/>
      <point x="1463" y="559"/>
      <point x="1533" y="489"/>
      <point x="1533" y="321" type="curve" smooth="yes"/>
    </contour>
    <contour>
      <point x="1429" y="559" type="line"/>
      <point x="1490" y="559" type="line" smooth="yes"/>
      <point x="1534" y="559"/>
      <point x="1551" y="582"/>
      <point x="1551" y="635" type="curve" smooth="yes"/>
      <point x="1551" y="713"/>
      <point x="1531" y="943"/>
      <point x="1515" y="1037" type="curve"/>
      <point x="1486" y="1037" type="line"/>
      <point x="1486" y="590" type="line"/>
      <point x="1126" y="590" type="line"/>
      <point x="1121" y="590" type="line"/>
      <point x="249" y="590" type="line"/>
      <point x="236" y="590" type="line"/>
      <point x="48" y="590" type="line"/>
      <point x="48" y="559" type="line"/>
      <point x="236" y="559" type="line"/>
      <point x="249" y="559" type="line"/>
      <point x="1121" y="559" type="line"/>
      <point x="1126" y="559" type="line"/>
      <point x="1417" y="559" type="line"/>
    </contour>
    <contour>
      <point x="1070" y="1540" type="line"/>
      <point x="1116" y="1469"/>
      <point x="1142" y="1388"/>
      <point x="1142" y="1309" type="curve" smooth="yes"/>
      <point x="1142" y="1198"/>
      <point x="1092" y="1150"/>
      <point x="982" y="1150" type="curve" smooth="yes"/>
      <point x="879" y="1150" type="line"/>
      <point x="879" y="1118" type="line"/>
      <point x="985" y="1118" type="line" smooth="yes"/>
      <point x="1115" y="1118"/>
      <point x="1177" y="1178"/>
      <point x="1177" y="1309" type="curve" smooth="yes"/>
      <point x="1177" y="1390"/>
      <point x="1151" y="1472"/>
      <point x="1107" y="1540" type="curve"/>
    </contour>
  </outline>
  <guideline angle="90" x="1753" y="0"/>
  <guideline angle="0" x="0" y="583"/>
</glyph>
<glyph name="vowelU.kn" format="2">
  <advance width="2275"/>
  <unicode hex="0C89"/>
  <outline>
    <contour>
      <point x="436" y="1177" type="curve" smooth="yes"/>
      <point x="612" y="1177"/>
      <point x="704" y="1071"/>
      <point x="704" y="867" type="curve" smooth="yes"/>
      <point x="704" y="809" type="line" smooth="yes"/>
      <point x="704" y="608"/>
      <point x="619" y="507"/>
      <point x="456" y="507" type="curve" smooth="yes"/>
      <point x="323" y="507"/>
      <point x="230" y="567"/>
      <point x="186" y="651" type="curve"/>
      <point x="174" y="651" type="line"/>
      <point x="176" y="721" type="line"/>
      <point x="223" y="608"/>
      <point x="316" y="541"/>
      <point x="456" y="541" type="curve" smooth="yes"/>
      <point x="593" y="541"/>
      <point x="668" y="624"/>
      <point x="668" y="809" type="curve" smooth="yes"/>
      <point x="668" y="866" type="line" smooth="yes"/>
      <point x="668" y="1049"/>
      <point x="591" y="1143"/>
      <point x="435" y="1143" type="curve" smooth="yes"/>
      <point x="261" y="1143"/>
      <point x="185" y="1039"/>
      <point x="185" y="780" type="curve" smooth="yes"/>
      <point x="185" y="666" type="line"/>
      <point x="149" y="666" type="line"/>
      <point x="149" y="780" type="line" smooth="yes"/>
      <point x="149" y="1061"/>
      <point x="239" y="1177"/>
    </contour>
    <contour>
      <point x="185" y="463" type="line" smooth="yes"/>
      <point x="185" y="164"/>
      <point x="317" y="12"/>
      <point x="576" y="12" type="curve" smooth="yes"/>
      <point x="819" y="12"/>
      <point x="947" y="158"/>
      <point x="947" y="440" type="curve" smooth="yes"/>
      <point x="947" y="837" type="line" smooth="yes"/>
      <point x="947" y="1061"/>
      <point x="1036" y="1169"/>
      <point x="1214" y="1169" type="curve" smooth="yes"/>
      <point x="1392" y="1169"/>
      <point x="1482" y="1060"/>
      <point x="1482" y="837" type="curve" smooth="yes"/>
      <point x="1482" y="594" type="line"/>
      <point x="1446" y="594" type="line"/>
      <point x="1446" y="836" type="line" smooth="yes"/>
      <point x="1446" y="1038"/>
      <point x="1370" y="1135"/>
      <point x="1214" y="1135" type="curve" smooth="yes"/>
      <point x="1058" y="1135"/>
      <point x="983" y="1038"/>
      <point x="983" y="836" type="curve" smooth="yes"/>
      <point x="983" y="440" type="line" smooth="yes"/>
      <point x="983" y="135"/>
      <point x="842" y="-22"/>
      <point x="576" y="-22" type="curve" smooth="yes"/>
      <point x="293" y="-22"/>
      <point x="149" y="142"/>
      <point x="149" y="464" type="curve" smooth="yes"/>
      <point x="149" y="672" type="line"/>
      <point x="185" y="672" type="line"/>
    </contour>
    <contour>
      <point x="2126" y="393" type="line" smooth="yes"/>
      <point x="2126" y="110"/>
      <point x="2010" y="-22"/>
      <point x="1786" y="-22" type="curve" smooth="yes"/>
      <point x="1562" y="-22"/>
      <point x="1446" y="109"/>
      <point x="1446" y="392" type="curve" smooth="yes"/>
      <point x="1446" y="641" type="line"/>
      <point x="1482" y="641" type="line"/>
      <point x="1482" y="392" type="line" smooth="yes"/>
      <point x="1482" y="129"/>
      <point x="1585" y="12"/>
      <point x="1786" y="12" type="curve" smooth="yes"/>
      <point x="1987" y="12"/>
      <point x="2090" y="129"/>
      <point x="2090" y="392" type="curve" smooth="yes"/>
      <point x="2090" y="683" type="line" smooth="yes"/>
      <point x="2090" y="996"/>
      <point x="1989" y="1131"/>
      <point x="1784" y="1131" type="curve" smooth="yes"/>
      <point x="1774" y="1131"/>
      <point x="1760" y="1131"/>
      <point x="1745" y="1130" type="curve"/>
      <point x="1745" y="1164" type="line"/>
      <point x="1761" y="1165"/>
      <point x="1773" y="1165"/>
      <point x="1785" y="1165" type="curve" smooth="yes"/>
      <point x="2012" y="1165"/>
      <point x="2126" y="1017"/>
      <point x="2126" y="683" type="curve" smooth="yes"/>
    </contour>
  </outline>
</glyph>
<glyph name="Ka.kn" format="2">
  <advance width="1113"/>
  <unicode hex="0C95"/>
  <outline>
    <contour>
      <point x="101" y="724" type="line"/>
      <point x="101" y="692" type="line"/>
      <point x="436" y="692" type="line"/>
      <point x="436" y="701" type="line"/>
      <point x="680" y="701" type="line"/>
      <point x="680" y="692" type="line"/>
      <point x="1015" y="692" type="line"/>
      <point x="1015" y="724" type="line"/>
    </contour>
    <contour>
      <point x="540" y="1130" type="line"/>
      <point x="540" y="719" type="line"/>
      <point x="575" y="719" type="line"/>
      <point x="575" y="1130" type="line"/>
    </contour>
    <contour>
      <point x="101" y="1150" type="line"/>
      <point x="101" y="1118" type="line"/>
      <point x="744" y="1118" type="line"/>
      <point x="744" y="1150" type="line"/>
    </contour>
    <contour>
      <point x="558" y="9" type="curve" smooth="yes"/>
      <point x="327" y="9"/>
      <point x="206" y="115"/>
      <point x="206" y="331" type="curve" smooth="yes"/>
      <point x="206" y="372" type="line" smooth="yes"/>
      <point x="206" y="587"/>
      <point x="327" y="695"/>
      <point x="558" y="695" type="curve" smooth="yes"/>
      <point x="789" y="695"/>
      <point x="910" y="587"/>
      <point x="910" y="372" type="curve" smooth="yes"/>
      <point x="910" y="331" type="line" smooth="yes"/>
      <point x="910" y="115"/>
      <point x="789" y="9"/>
    </contour>
    <contour>
      <point x="378" y="705" type="line"/>
      <point x="378" y="691" type="line"/>
      <point x="260" y="659"/>
      <point x="170" y="565"/>
      <point x="170" y="372" type="curve" smooth="yes"/>
      <point x="170" y="331" type="line" smooth="yes"/>
      <point x="170" y="94"/>
      <point x="305" y="-25"/>
      <point x="558" y="-25" type="curve" smooth="yes"/>
      <point x="811" y="-25"/>
      <point x="946" y="94"/>
      <point x="946" y="331" type="curve" smooth="yes"/>
      <point x="946" y="372" type="line" smooth="yes"/>
      <point x="946" y="565"/>
      <point x="856" y="659"/>
      <point x="738" y="691" type="curve"/>
      <point x="738" y="705" type="line"/>
    </contour>
    <contour>
      <point x="900" y="1540" type="line"/>
      <point x="946" y="1469"/>
      <point x="972" y="1388"/>
      <point x="972" y="1309" type="curve" smooth="yes"/>
      <point x="972" y="1198"/>
      <point x="922" y="1150"/>
      <point x="812" y="1150" type="curve" smooth="yes"/>
      <point x="709" y="1150" type="line"/>
      <point x="709" y="1118" type="line"/>
      <point x="815" y="1118" type="line" smooth="yes"/>
      <point x="945" y="1118"/>
      <point x="1007" y="1178"/>
      <point x="1007" y="1309" type="curve" smooth="yes"/>
      <point x="1007" y="1390"/>
      <point x="981" y="1472"/>
      <point x="937" y="1540" type="curve"/>
    </contour>
  </outline>
  <guideline angle="90" x="1009" y="0"/>
  <guideline angle="0" x="0" y="-272"/>
</glyph>
<glyph name="Kha.kn" format="2">
  <advance width="1516"/>
  <unicode hex="0C96"/>
  <outline>
    <contour>
      <point x="443" y="-22" type="curve" smooth="yes"/>
      <point x="667" y="-22"/>
      <point x="755" y="112"/>
      <point x="786" y="283" type="curve"/>
      <point x="779" y="284" type="line"/>
      <point x="787" y="281" type="line"/>
      <point x="797" y="339"/>
      <point x="800" y="436"/>
      <point x="800" y="506" type="curve" smooth="yes"/>
      <point x="800" y="738" type="line" smooth="yes"/>
      <point x="800" y="1040"/>
      <point x="694" y="1177"/>
      <point x="459" y="1177" type="curve" smooth="yes"/>
      <point x="257" y="1177"/>
      <point x="151" y="1072"/>
      <point x="151" y="875" type="curve" smooth="yes"/>
      <point x="151" y="858" type="line" smooth="yes"/>
      <point x="151" y="778"/>
      <point x="166" y="717"/>
      <point x="189" y="670" type="curve"/>
      <point x="227" y="670" type="line"/>
      <point x="203" y="718"/>
      <point x="187" y="779"/>
      <point x="187" y="859" type="curve" smooth="yes"/>
      <point x="187" y="875" type="line" smooth="yes"/>
      <point x="187" y="1050"/>
      <point x="282" y="1144"/>
      <point x="459" y="1144" type="curve" smooth="yes"/>
      <point x="669" y="1144"/>
      <point x="764" y="1018"/>
      <point x="764" y="738" type="curve" smooth="yes"/>
      <point x="764" y="507" type="line" smooth="yes"/>
      <point x="764" y="442"/>
      <point x="763" y="384"/>
      <point x="762" y="334" type="curve"/>
      <point x="762" y="333"/>
      <point x="760" y="320"/>
      <point x="760" y="319" type="curve"/>
      <point x="730" y="107"/>
      <point x="631" y="11"/>
      <point x="443" y="11" type="curve" smooth="yes"/>
      <point x="264" y="11"/>
      <point x="170" y="94"/>
      <point x="170" y="259" type="curve" smooth="yes"/>
      <point x="170" y="274" type="line" smooth="yes"/>
      <point x="170" y="441"/>
      <point x="261" y="525"/>
      <point x="436" y="525" type="curve" smooth="yes"/>
      <point x="600" y="525"/>
      <point x="710" y="443"/>
      <point x="762" y="288" type="curve"/>
      <point x="774" y="309" type="line"/>
      <point x="740" y="455"/>
      <point x="626" y="558"/>
      <point x="435" y="558" type="curve" smooth="yes"/>
      <point x="236" y="558"/>
      <point x="134" y="462"/>
      <point x="134" y="274" type="curve" smooth="yes"/>
      <point x="134" y="259" type="line" smooth="yes"/>
      <point x="134" y="72"/>
      <point x="240" y="-22"/>
    </contour>
    <contour>
      <point x="1065" y="-22" type="curve" smooth="yes"/>
      <point x="1267" y="-22"/>
      <point x="1367" y="111"/>
      <point x="1367" y="382" type="curve" smooth="yes"/>
      <point x="1367" y="686" type="line" smooth="yes"/>
      <point x="1367" y="1018"/>
      <point x="1255" y="1165"/>
      <point x="1031" y="1165" type="curve" smooth="yes"/>
      <point x="1019" y="1165"/>
      <point x="1007" y="1165"/>
      <point x="991" y="1164" type="curve"/>
      <point x="991" y="1130" type="line"/>
      <point x="1006" y="1131"/>
      <point x="1020" y="1131"/>
      <point x="1030" y="1131" type="curve" smooth="yes"/>
      <point x="1232" y="1131"/>
      <point x="1331" y="997"/>
      <point x="1331" y="686" type="curve" smooth="yes"/>
      <point x="1331" y="383" type="line" smooth="yes"/>
      <point x="1331" y="131"/>
      <point x="1243" y="12"/>
      <point x="1064" y="12" type="curve" smooth="yes"/>
      <point x="908" y="12"/>
      <point x="809" y="93"/>
      <point x="789" y="298" type="curve"/>
      <point x="789" y="351" type="line"/>
      <point x="765" y="351" type="line"/>
      <point x="765" y="276" type="line"/>
      <point x="785" y="64"/>
      <point x="893" y="-22"/>
    </contour>
  </outline>
  <guideline angle="90" x="277" y="0"/>
  <guideline angle="90" x="265" y="0"/>
  <guideline angle="0" x="0" y="-14"/>
  <guideline angle="0" x="0" y="484"/>
  <guideline angle="90" x="-1496" y="0"/>
</glyph>
<glyph name="Jha.kn" format="2">
  <advance width="2474"/>
  <unicode hex="0C9D"/>
  <outline>
    <component base="matraU.kn" xOffset="1228"/>
    <component base="matraU.kn" xOffset="1857"/>
    <component base="Ra.kn"/>
    <contour>
      <point x="1040" y="336" type="line"/>
      <point x="1064" y="338" type="line"/>
      <point x="1064" y="451" type="line"/>
      <point x="1040" y="451" type="line"/>
    </contour>
    <contour>
      <point x="1671" y="-366" type="curve" smooth="yes"/>
      <point x="1689" y="-366"/>
      <point x="1696" y="-353"/>
      <point x="1696" y="-325" type="curve" smooth="yes"/>
      <point x="1696" y="-257" type="line" smooth="yes"/>
      <point x="1696" y="-109"/>
      <point x="1690" y="-10"/>
      <point x="1671" y="73" type="curve"/>
      <point x="1652" y="-10"/>
      <point x="1646" y="-109"/>
      <point x="1646" y="-257" type="curve" smooth="yes"/>
      <point x="1646" y="-325" type="line" smooth="yes"/>
      <point x="1646" y="-353"/>
      <point x="1653" y="-366"/>
    </contour>
  </outline>
  <guideline angle="0" x="0" y="-274"/>
  <guideline angle="90" x="917" y="0"/>
  <guideline angle="90" x="2133" y="0"/>
</glyph>
<glyph name="Tta.kn" format="2">
  <advance width="1476"/>
  <unicode hex="0C9F"/>
  <outline>
    <contour>
      <point x="427" y="1176" type="curve" smooth="yes"/>
      <point x="237" y="1176"/>
      <point x="144" y="1082"/>
      <point x="144" y="902" type="curve" smooth="yes"/>
      <point x="144" y="877" type="line" smooth="yes"/>
      <point x="144" y="715"/>
      <point x="218" y="628"/>
      <point x="365" y="612" type="curve"/>
      <point x="365" y="610" type="line"/>
      <point x="217" y="594"/>
      <point x="141" y="498"/>
      <point x="141" y="326" type="curve" smooth="yes"/>
      <point x="141" y="285" type="line" smooth="yes"/>
      <point x="141" y="80"/>
      <point x="243" y="-22"/>
      <point x="443" y="-22" type="curve" smooth="yes"/>
      <point x="628" y="-22"/>
      <point x="722" y="70"/>
      <point x="737" y="217" type="curve"/>
      <point x="753" y="217" type="line"/>
      <point x="743" y="421" type="line"/>
      <point x="721" y="421" type="line"/>
      <point x="719" y="307" type="line" smooth="yes"/>
      <point x="716" y="108"/>
      <point x="626" y="12"/>
      <point x="443" y="12" type="curve" smooth="yes"/>
      <point x="267" y="12"/>
      <point x="177" y="103"/>
      <point x="177" y="286" type="curve" smooth="yes"/>
      <point x="177" y="326" type="line" smooth="yes"/>
      <point x="177" y="513"/>
      <point x="267" y="592"/>
      <point x="448" y="594" type="curve" smooth="yes"/>
      <point x="551" y="595" type="line"/>
      <point x="551" y="627" type="line"/>
      <point x="448" y="628" type="line" smooth="yes"/>
      <point x="269" y="630"/>
      <point x="180" y="704"/>
      <point x="180" y="877" type="curve" smooth="yes"/>
      <point x="180" y="901" type="line" smooth="yes"/>
      <point x="180" y="1059"/>
      <point x="262" y="1142"/>
      <point x="428" y="1142" type="curve" smooth="yes"/>
      <point x="512" y="1142"/>
      <point x="579" y="1125"/>
      <point x="628" y="1096" type="curve"/>
      <point x="624" y="1134" type="line"/>
      <point x="577" y="1160"/>
      <point x="508" y="1176"/>
    </contour>
    <contour>
      <point x="1049" y="1176" type="curve" smooth="yes"/>
      <point x="968" y="1176"/>
      <point x="899" y="1160"/>
      <point x="852" y="1134" type="curve"/>
      <point x="848" y="1096" type="line"/>
      <point x="897" y="1125"/>
      <point x="964" y="1142"/>
      <point x="1048" y="1142" type="curve" smooth="yes"/>
      <point x="1214" y="1142"/>
      <point x="1296" y="1059"/>
      <point x="1296" y="901" type="curve" smooth="yes"/>
      <point x="1296" y="877" type="line" smooth="yes"/>
      <point x="1296" y="704"/>
      <point x="1207" y="630"/>
      <point x="1028" y="628" type="curve" smooth="yes"/>
      <point x="925" y="627" type="line"/>
      <point x="925" y="595" type="line"/>
      <point x="1028" y="594" type="line" smooth="yes"/>
      <point x="1209" y="592"/>
      <point x="1299" y="513"/>
      <point x="1299" y="326" type="curve" smooth="yes"/>
      <point x="1299" y="286" type="line" smooth="yes"/>
      <point x="1299" y="103"/>
      <point x="1209" y="12"/>
      <point x="1033" y="12" type="curve" smooth="yes"/>
      <point x="850" y="12"/>
      <point x="760" y="108"/>
      <point x="757" y="307" type="curve" smooth="yes"/>
      <point x="755" y="421" type="line"/>
      <point x="738" y="421" type="line"/>
      <point x="739" y="217" type="line"/>
      <point x="754" y="70"/>
      <point x="848" y="-22"/>
      <point x="1033" y="-22" type="curve" smooth="yes"/>
      <point x="1233" y="-22"/>
      <point x="1335" y="80"/>
      <point x="1335" y="285" type="curve" smooth="yes"/>
      <point x="1335" y="326" type="line" smooth="yes"/>
      <point x="1335" y="498"/>
      <point x="1259" y="594"/>
      <point x="1111" y="610" type="curve"/>
      <point x="1111" y="612" type="line"/>
      <point x="1258" y="628"/>
      <point x="1332" y="715"/>
      <point x="1332" y="877" type="curve" smooth="yes"/>
      <point x="1332" y="902" type="line" smooth="yes"/>
      <point x="1332" y="1082"/>
      <point x="1239" y="1176"/>
    </contour>
  </outline>
  <guideline angle="90" x="650" y="0"/>
</glyph>
<glyph name="Da.kn" format="2">
  <advance width="1441"/>
  <unicode hex="0CA6"/>
  <outline>
    <contour>
      <point x="185" y="563" type="line" smooth="yes"/>
      <point x="185" y="935"/>
      <point x="357" y="1118"/>
      <point x="702" y="1118" type="curve"/>
      <point x="701" y="1138" type="line"/>
      <point x="496" y="1138" type="line"/>
      <point x="496" y="1116" type="line"/>
      <point x="287" y="1068"/>
      <point x="149" y="901"/>
      <point x="149" y="563" type="curve" smooth="yes"/>
      <point x="149" y="359" type="line" smooth="yes"/>
      <point x="149" y="98"/>
      <point x="250" y="-22"/>
      <point x="448" y="-22" type="curve" smooth="yes"/>
      <point x="618" y="-22"/>
      <point x="708" y="72"/>
      <point x="720" y="229" type="curve"/>
      <point x="722" y="229" type="line"/>
      <point x="734" y="72"/>
      <point x="823" y="-22"/>
      <point x="993" y="-22" type="curve" smooth="yes"/>
      <point x="1191" y="-22"/>
      <point x="1292" y="98"/>
      <point x="1292" y="359" type="curve" smooth="yes"/>
      <point x="1292" y="563" type="line" smooth="yes"/>
      <point x="1292" y="901"/>
      <point x="1155" y="1068"/>
      <point x="946" y="1116" type="curve"/>
      <point x="946" y="1138" type="line"/>
      <point x="740" y="1138" type="line"/>
      <point x="740" y="1118" type="line"/>
      <point x="1085" y="1118"/>
      <point x="1256" y="935"/>
      <point x="1256" y="563" type="curve" smooth="yes"/>
      <point x="1256" y="360" type="line" smooth="yes"/>
      <point x="1256" y="120"/>
      <point x="1166" y="12"/>
      <point x="992" y="12" type="curve" smooth="yes"/>
      <point x="826" y="12"/>
      <point x="743" y="110"/>
      <point x="740" y="316" type="curve" smooth="yes"/>
      <point x="738" y="438" type="line"/>
      <point x="704" y="438" type="line"/>
      <point x="702" y="316" type="line" smooth="yes"/>
      <point x="699" y="110"/>
      <point x="615" y="12"/>
      <point x="449" y="12" type="curve" smooth="yes"/>
      <point x="274" y="12"/>
      <point x="185" y="120"/>
      <point x="185" y="360" type="curve" smooth="yes"/>
    </contour>
    <contour>
      <point x="1027" y="1118" type="line"/>
      <point x="1027" y="1150" type="line"/>
      <point x="149" y="1150" type="line"/>
      <point x="149" y="1118" type="line"/>
    </contour>
    <contour>
      <point x="1185" y="1540" type="line"/>
      <point x="1231" y="1469"/>
      <point x="1257" y="1388"/>
      <point x="1257" y="1309" type="curve" smooth="yes"/>
      <point x="1257" y="1198"/>
      <point x="1207" y="1150"/>
      <point x="1097" y="1150" type="curve" smooth="yes"/>
      <point x="994" y="1150" type="line"/>
      <point x="994" y="1118" type="line"/>
      <point x="1100" y="1118" type="line" smooth="yes"/>
      <point x="1230" y="1118"/>
      <point x="1292" y="1178"/>
      <point x="1292" y="1309" type="curve" smooth="yes"/>
      <point x="1292" y="1390"/>
      <point x="1266" y="1472"/>
      <point x="1222" y="1540" type="curve"/>
    </contour>
  </outline>
  <guideline angle="90" x="738" y="0"/>
  <guideline angle="90" x="831" y="0"/>
  <guideline angle="90" x="431" y="0"/>
</glyph>
<glyph name="Na.kn" format="2">
  <advance width="1348"/>
  <unicode hex="0CA8"/>
  <outline>
    <contour>
      <point x="932" y="-22" type="curve" smooth="yes"/>
      <point x="1107" y="-22"/>
      <point x="1200" y="99"/>
      <point x="1200" y="335" type="curve" smooth="yes"/>
      <point x="1200" y="484" type="line" smooth="yes"/>
      <point x="1200" y="901"/>
      <point x="1028" y="1074"/>
      <point x="726" y="1116" type="curve"/>
      <point x="726" y="1138" type="line"/>
      <point x="452" y="1138" type="line"/>
      <point x="452" y="1118" type="line"/>
      <point x="947" y="1118"/>
      <point x="1164" y="952"/>
      <point x="1164" y="484" type="curve" smooth="yes"/>
      <point x="1164" y="336" type="line" smooth="yes"/>
      <point x="1164" y="121"/>
      <point x="1084" y="12"/>
      <point x="933" y="12" type="curve" smooth="yes"/>
      <point x="797" y="12"/>
      <point x="709" y="90"/>
      <point x="678" y="269" type="curve" smooth="yes"/>
      <point x="652" y="420" type="line" smooth="yes"/>
      <point x="617" y="618"/>
      <point x="532" y="691"/>
      <point x="390" y="691" type="curve" smooth="yes"/>
      <point x="227" y="691"/>
      <point x="142" y="590"/>
      <point x="142" y="386" type="curve" smooth="yes"/>
      <point x="142" y="334" type="line" smooth="yes"/>
      <point x="142" y="192"/>
      <point x="169" y="77"/>
      <point x="220" y="-16" type="curve"/>
      <point x="262" y="-16" type="line"/>
      <point x="209" y="73"/>
      <point x="178" y="190"/>
      <point x="178" y="333" type="curve" smooth="yes"/>
      <point x="178" y="387" type="line" smooth="yes"/>
      <point x="178" y="568"/>
      <point x="251" y="658"/>
      <point x="389" y="658" type="curve" smooth="yes"/>
      <point x="515" y="658"/>
      <point x="587" y="591"/>
      <point x="618" y="413" type="curve" smooth="yes"/>
      <point x="645" y="261" type="line" smooth="yes"/>
      <point x="680" y="64"/>
      <point x="774" y="-22"/>
    </contour>
    <contour>
      <point x="937" y="1118" type="line"/>
      <point x="937" y="1150" type="line"/>
      <point x="163" y="1150" type="line"/>
      <point x="163" y="1118" type="line"/>
    </contour>
    <contour>
      <point x="1090" y="1540" type="line"/>
      <point x="1136" y="1469"/>
      <point x="1162" y="1388"/>
      <point x="1162" y="1309" type="curve" smooth="yes"/>
      <point x="1162" y="1198"/>
      <point x="1112" y="1150"/>
      <point x="1002" y="1150" type="curve" smooth="yes"/>
      <point x="899" y="1150" type="line"/>
      <point x="899" y="1118" type="line"/>
      <point x="1005" y="1118" type="line" smooth="yes"/>
      <point x="1135" y="1118"/>
      <point x="1197" y="1178"/>
      <point x="1197" y="1309" type="curve" smooth="yes"/>
      <point x="1197" y="1390"/>
      <point x="1171" y="1472"/>
      <point x="1127" y="1540" type="curve"/>
    </contour>
  </outline>
  <guideline angle="0" x="0" y="955"/>
</glyph>
<glyph name="Ba.kn" format="2">
  <advance width="1480"/>
  <unicode hex="0CAC"/>
  <outline>
    <contour>
      <point x="994" y="1165" type="curve" smooth="yes"/>
      <point x="982" y="1165"/>
      <point x="970" y="1165"/>
      <point x="954" y="1164" type="curve"/>
      <point x="954" y="1130" type="line"/>
      <point x="969" y="1131"/>
      <point x="983" y="1131"/>
      <point x="993" y="1131" type="curve" smooth="yes"/>
      <point x="1195" y="1131"/>
      <point x="1294" y="997"/>
      <point x="1294" y="686" type="curve" smooth="yes"/>
      <point x="1294" y="384" type="line" smooth="yes"/>
      <point x="1294" y="123"/>
      <point x="1207" y="12"/>
      <point x="1026" y="12" type="curve" smooth="yes"/>
      <point x="849" y="12"/>
      <point x="764" y="110"/>
      <point x="760" y="318" type="curve" smooth="yes"/>
      <point x="758" y="431" type="line"/>
      <point x="733" y="431" type="line"/>
      <point x="742" y="233" type="line"/>
      <point x="754" y="74"/>
      <point x="846" y="-22"/>
      <point x="1027" y="-22" type="curve" smooth="yes"/>
      <point x="1231" y="-22"/>
      <point x="1330" y="103.998"/>
      <point x="1330" y="385" type="curve" smooth="yes"/>
      <point x="1330" y="686" type="line" smooth="yes"/>
      <point x="1330" y="1018"/>
      <point x="1218" y="1165"/>
    </contour>
    <contour>
      <point x="449" y="1177" type="curve" smooth="yes"/>
      <point x="255" y="1177"/>
      <point x="154" y="1079"/>
      <point x="154" y="891" type="curve" smooth="yes"/>
      <point x="154" y="885" type="line" smooth="yes"/>
      <point x="154" y="804"/>
      <point x="172" y="726"/>
      <point x="197" y="670" type="curve"/>
      <point x="234" y="670" type="line"/>
      <point x="209" y="727"/>
      <point x="190" y="801"/>
      <point x="190" y="885" type="curve" smooth="yes"/>
      <point x="190" y="891" type="line" smooth="yes"/>
      <point x="190" y="1057"/>
      <point x="278" y="1143"/>
      <point x="449" y="1143" type="curve" smooth="yes"/>
      <point x="613" y="1143"/>
      <point x="698" y="1065"/>
      <point x="698" y="908" type="curve" smooth="yes"/>
      <point x="698" y="902" type="line" smooth="yes"/>
      <point x="698" y="771"/>
      <point x="637" y="703"/>
      <point x="486" y="626" type="curve" smooth="yes"/>
      <point x="384" y="574" type="line" smooth="yes"/>
      <point x="203" y="482"/>
      <point x="128" y="410"/>
      <point x="128" y="256" type="curve" smooth="yes"/>
      <point x="128" y="248" type="line" smooth="yes"/>
      <point x="128" y="71"/>
      <point x="232" y="-22"/>
      <point x="433" y="-22" type="curve" smooth="yes"/>
      <point x="628" y="-22"/>
      <point x="727" y="74"/>
      <point x="740" y="233" type="curve"/>
      <point x="748" y="233" type="line"/>
      <point x="748" y="431" type="line"/>
      <point x="724" y="431" type="line"/>
      <point x="722" y="318" type="line" smooth="yes"/>
      <point x="718" y="110"/>
      <point x="626" y="12"/>
      <point x="434" y="12" type="curve" smooth="yes"/>
      <point x="258" y="12"/>
      <point x="164" y="93"/>
      <point x="164" y="249" type="curve" smooth="yes"/>
      <point x="164" y="256" type="line" smooth="yes"/>
      <point x="164" y="393"/>
      <point x="235" y="460"/>
      <point x="402" y="546" type="curve" smooth="yes"/>
      <point x="505" y="599" type="line" smooth="yes"/>
      <point x="666" y="682"/>
      <point x="734" y="757"/>
      <point x="734" y="902" type="curve" smooth="yes"/>
      <point x="734" y="908" type="line" smooth="yes"/>
      <point x="734" y="1087"/>
      <point x="638" y="1177"/>
    </contour>
  </outline>
  <guideline angle="0" x="0" y="-10080"/>
</glyph>
<glyph name="Ya.kn" format="2">
  <advance width="2399"/>
  <unicode hex="0CAF"/>
  <outline>
    <component base="matraU.kn" xOffset="1782"/>
    <contour>
      <point x="1180" y="1138" type="line"/>
      <point x="1180" y="1118" type="line"/>
      <point x="1454" y="1118"/>
      <point x="1586" y="984.002"/>
      <point x="1586" y="660" type="curve" smooth="yes"/>
      <point x="1586" y="414" type="line" smooth="yes"/>
      <point x="1586" y="136.998"/>
      <point x="1488" y="12"/>
      <point x="1287" y="12" type="curve" smooth="yes"/>
      <point x="1096" y="12"/>
      <point x="990" y="120"/>
      <point x="990" y="332" type="curve" smooth="yes"/>
      <point x="990" y="409" type="line"/>
      <point x="965" y="409" type="line"/>
      <point x="965" y="290" type="line"/>
      <point x="973" y="96"/>
      <point x="1082" y="-22"/>
      <point x="1288" y="-22" type="curve" smooth="yes"/>
      <point x="1512" y="-22"/>
      <point x="1622" y="118.998"/>
      <point x="1622" y="415" type="curve" smooth="yes"/>
      <point x="1622" y="659" type="line" smooth="yes"/>
      <point x="1622" y="949.002"/>
      <point x="1516" y="1078"/>
      <point x="1357" y="1116" type="curve"/>
      <point x="1357" y="1138" type="line"/>
    </contour>
    <contour>
      <point x="1113" y="1150" type="line"/>
      <point x="1113" y="1118" type="line"/>
      <point x="1375" y="1118" type="line"/>
      <point x="1375" y="1150" type="line"/>
    </contour>
    <contour>
      <point x="992" y="713" type="line" smooth="yes"/>
      <point x="992" y="1018"/>
      <point x="847" y="1177"/>
      <point x="569" y="1177" type="curve" smooth="yes"/>
      <point x="291" y="1177"/>
      <point x="147" y="1018"/>
      <point x="147" y="713" type="curve" smooth="yes"/>
      <point x="147" y="439" type="line" smooth="yes"/>
      <point x="147" y="136"/>
      <point x="292" y="-24"/>
      <point x="570" y="-24" type="curve" smooth="yes"/>
      <point x="849" y="-24"/>
      <point x="992" y="136"/>
      <point x="992" y="439" type="curve" smooth="yes"/>
    </contour>
    <contour>
      <point x="570" y="10" type="curve" smooth="yes"/>
      <point x="316" y="10"/>
      <point x="184" y="158"/>
      <point x="184" y="439" type="curve" smooth="yes"/>
      <point x="184" y="713" type="line" smooth="yes"/>
      <point x="184" y="995"/>
      <point x="316" y="1143"/>
      <point x="569" y="1143" type="curve" smooth="yes"/>
      <point x="823" y="1143"/>
      <point x="955" y="995"/>
      <point x="955" y="713" type="curve" smooth="yes"/>
      <point x="955" y="439" type="line" smooth="yes"/>
      <point x="955" y="158"/>
      <point x="824" y="10"/>
    </contour>
    <contour>
      <point x="1515" y="1540" type="line"/>
      <point x="1561" y="1469"/>
      <point x="1587" y="1388"/>
      <point x="1587" y="1309" type="curve" smooth="yes"/>
      <point x="1587" y="1198"/>
      <point x="1537" y="1150"/>
      <point x="1427" y="1150" type="curve" smooth="yes"/>
      <point x="1324" y="1150" type="line"/>
      <point x="1324" y="1118" type="line"/>
      <point x="1430" y="1118" type="line" smooth="yes"/>
      <point x="1560" y="1118"/>
      <point x="1622" y="1178"/>
      <point x="1622" y="1309" type="curve" smooth="yes"/>
      <point x="1622" y="1390"/>
      <point x="1596" y="1472"/>
      <point x="1552" y="1540" type="curve"/>
    </contour>
  </outline>
  <guideline angle="90" x="2319" y="0"/>
  <guideline angle="90" x="350" y="0"/>
</glyph>
<glyph name="Sa.kn" format="2">
  <advance width="1369"/>
  <unicode hex="0CB8"/>
  <outline>
    <contour>
      <point x="977" y="1118" type="line"/>
      <point x="977" y="1150" type="line"/>
      <point x="154" y="1150" type="line"/>
      <point x="154" y="1118" type="line"/>
    </contour>
    <contour>
      <point x="687" y="681" type="curve" smooth="yes"/>
      <point x="707" y="681"/>
      <point x="711" y="706"/>
      <point x="711" y="795" type="curve" smooth="yes"/>
      <point x="711" y="877" type="line" smooth="yes"/>
      <point x="711" y="967"/>
      <point x="707" y="991"/>
      <point x="687" y="991" type="curve" smooth="yes"/>
      <point x="667" y="991"/>
      <point x="664" y="967"/>
      <point x="664" y="877" type="curve" smooth="yes"/>
      <point x="664" y="795" type="line" smooth="yes"/>
      <point x="664" y="706"/>
      <point x="667" y="681"/>
    </contour>
    <contour>
      <point x="1227" y="329" type="curve" smooth="yes"/>
      <point x="1227" y="426" type="line" smooth="yes"/>
      <point x="1227" y="631.002"/>
      <point x="1174" y="766"/>
      <point x="1064" y="861" type="curve"/>
      <point x="1016" y="861" type="line"/>
      <point x="1132" y="768"/>
      <point x="1191" y="632.002"/>
      <point x="1191" y="427" type="curve" smooth="yes"/>
      <point x="1191" y="331" type="line" smooth="yes"/>
      <point x="1191" y="119.998"/>
      <point x="1109" y="12"/>
      <point x="951" y="12" type="curve" smooth="yes"/>
      <point x="803" y="12"/>
      <point x="718" y="91"/>
      <point x="676" y="269" type="curve" smooth="yes"/>
      <point x="652" y="370" type="line" smooth="yes"/>
      <point x="606" y="564"/>
      <point x="529" y="637"/>
      <point x="385" y="637" type="curve" smooth="yes"/>
      <point x="222" y="637"/>
      <point x="137" y="536"/>
      <point x="137" y="331" type="curve" smooth="yes"/>
      <point x="137" y="289" type="line" smooth="yes"/>
      <point x="137" y="165"/>
      <point x="164" y="64"/>
      <point x="215" y="-16" type="curve"/>
      <point x="257" y="-16" type="line"/>
      <point x="204" y="61"/>
      <point x="173" y="164"/>
      <point x="173" y="289" type="curve" smooth="yes"/>
      <point x="173" y="331" type="line" smooth="yes"/>
      <point x="173" y="513"/>
      <point x="246" y="603"/>
      <point x="384" y="603" type="curve" smooth="yes"/>
      <point x="512" y="603"/>
      <point x="577" y="536"/>
      <point x="618" y="363" type="curve" smooth="yes"/>
      <point x="642" y="261" type="line" smooth="yes"/>
      <point x="688" y="65"/>
      <point x="780" y="-22"/>
      <point x="950" y="-22" type="curve" smooth="yes"/>
      <point x="1131" y="-22"/>
      <point x="1227" y="96.9978"/>
    </contour>
    <contour>
      <point x="1120" y="1540" type="line"/>
      <point x="1166" y="1469"/>
      <point x="1192" y="1388"/>
      <point x="1192" y="1309" type="curve" smooth="yes"/>
      <point x="1192" y="1198"/>
      <point x="1142" y="1150"/>
      <point x="1032" y="1150" type="curve" smooth="yes"/>
      <point x="929" y="1150" type="line"/>
      <point x="929" y="1118" type="line"/>
      <point x="1035" y="1118" type="line" smooth="yes"/>
      <point x="1165" y="1118"/>
      <point x="1227" y="1178"/>
      <point x="1227" y="1309" type="curve" smooth="yes"/>
      <point x="1227" y="1390"/>
      <point x="1201" y="1472"/>
      <point x="1157" y="1540" type="curve"/>
    </contour>
  </outline>
  <guideline angle="90" x="1747" y="0"/>
  <guideline angle="90" x="436" y="0"/>
</glyph>
<glyph name="matraAa.kn" format="2">
  <advance width="1483"/>
  <unicode hex="0CBE"/>
  <outline>
    <contour>
      <point x="1333" y="495" type="line"/>
      <point x="1333" y="596" type="line" smooth="yes"/>
      <point x="1333" y="969"/>
      <point x="1164" y="1150"/>
      <point x="803" y="1150" type="curve" smooth="yes"/>
      <point x="272" y="1150" type="line"/>
      <point x="272" y="1118" type="line"/>
      <point x="802" y="1118" type="line" smooth="yes"/>
      <point x="1139" y="1118"/>
      <point x="1297" y="951"/>
      <point x="1297" y="596" type="curve" smooth="yes"/>
      <point x="1297" y="494" type="line"/>
    </contour>
    <contour>
      <point x="1060" y="-22" type="curve" smooth="yes"/>
      <point x="1251" y="-22"/>
      <point x="1333" y="89"/>
      <point x="1333" y="359" type="curve" smooth="yes"/>
      <point x="1333" y="499" type="line"/>
      <point x="1297" y="499" type="line"/>
      <point x="1297" y="359" type="line" smooth="yes"/>
      <point x="1297" y="112"/>
      <point x="1227" y="12"/>
      <point x="1061" y="12" type="curve" smooth="yes"/>
      <point x="904" y="12"/>
      <point x="826" y="104"/>
      <point x="826" y="281" type="curve" smooth="yes"/>
      <point x="826" y="352" type="line" smooth="yes"/>
      <point x="826" y="534"/>
      <point x="906" y="616"/>
      <point x="1052" y="616" type="curve" smooth="yes"/>
      <point x="1179" y="616"/>
      <point x="1263" y="552"/>
      <point x="1306" y="444" type="curve"/>
      <point x="1308" y="514" type="line"/>
      <point x="1296" y="514" type="line"/>
      <point x="1256" y="593"/>
      <point x="1172" y="650"/>
      <point x="1052" y="650" type="curve" smooth="yes"/>
      <point x="880" y="650"/>
      <point x="791" y="551"/>
      <point x="791" y="352" type="curve" smooth="yes"/>
      <point x="791" y="280" type="line" smooth="yes"/>
      <point x="791" y="82"/>
      <point x="883" y="-22"/>
    </contour>
  </outline>
</glyph>
<glyph name="matraUu.kn" format="2">
  <advance width="1315"/>
  <unicode hex="0CC2"/>
  <outline>
    <contour>
      <point x="74" y="12" type="curve" smooth="yes"/>
      <point x="-74" y="12"/>
      <point x="-147" y="104"/>
      <point x="-147" y="286" type="curve" smooth="yes"/>
      <point x="-147" y="326" type="line"/>
      <point x="-173" y="326" type="line"/>
      <point x="-173" y="279" type="line" smooth="yes"/>
      <point x="-173" y="74"/>
      <point x="-87" y="-22"/>
      <point x="74" y="-22" type="curve" smooth="yes"/>
      <point x="234" y="-22"/>
      <point x="322" y="81"/>
      <point x="322" y="284" type="curve" smooth="yes"/>
      <point x="322" y="527" type="line"/>
      <point x="286" y="527" type="line"/>
      <point x="286" y="284" type="line" smooth="yes"/>
      <point x="286" y="101"/>
      <point x="213" y="12"/>
    </contour>
    <contour>
      <point x="726" y="1177" type="curve" smooth="yes"/>
      <point x="437" y="1177"/>
      <point x="286" y="1011"/>
      <point x="286" y="678" type="curve" smooth="yes"/>
      <point x="286" y="517" type="line"/>
      <point x="322" y="517" type="line"/>
      <point x="322" y="679" type="line" smooth="yes"/>
      <point x="322" y="988"/>
      <point x="460" y="1143"/>
      <point x="726" y="1143" type="curve" smooth="yes"/>
      <point x="992" y="1143"/>
      <point x="1130" y="988"/>
      <point x="1130" y="679" type="curve" smooth="yes"/>
      <point x="1130" y="495" type="line"/>
      <point x="1166" y="494" type="line"/>
      <point x="1166" y="678" type="line" smooth="yes"/>
      <point x="1166" y="1011"/>
      <point x="1015" y="1177"/>
    </contour>
    <contour>
      <point x="1166" y="499" type="line"/>
      <point x="1130" y="499" type="line"/>
      <point x="1130" y="359" type="line" smooth="yes"/>
      <point x="1130" y="112"/>
      <point x="1060" y="12"/>
      <point x="893" y="12" type="curve" smooth="yes"/>
      <point x="736" y="12"/>
      <point x="659" y="104"/>
      <point x="659" y="281" type="curve" smooth="yes"/>
      <point x="659" y="352" type="line" smooth="yes"/>
      <point x="659" y="534"/>
      <point x="738" y="616"/>
      <point x="884" y="616" type="curve" smooth="yes"/>
      <point x="1011" y="616"/>
      <point x="1096" y="552"/>
      <point x="1139" y="444" type="curve"/>
      <point x="1141" y="514" type="line"/>
      <point x="1129" y="514" type="line"/>
      <point x="1089" y="593"/>
      <point x="1004" y="650"/>
      <point x="884" y="650" type="curve" smooth="yes"/>
      <point x="712" y="650"/>
      <point x="624" y="551"/>
      <point x="624" y="352" type="curve" smooth="yes"/>
      <point x="624" y="280" type="line" smooth="yes"/>
      <point x="624" y="82"/>
      <point x="716" y="-22"/>
      <point x="893" y="-22" type="curve" smooth="yes"/>
      <point x="1084" y="-22"/>
      <point x="1166" y="89"/>
      <point x="1166" y="359" type="curve" smooth="yes"/>
    </contour>
  </outline>
  <guideline angle="90" x="-50" y="0"/>
</glyph>
<glyph name="matraE.kn" format="2">
  <advance width="637"/>
  <unicode hex="0CC6"/>
  <outline>
    <contour>
      <point x="322" y="1118" type="line" smooth="yes"/>
      <point x="482" y="1118"/>
      <point x="565" y="1205"/>
      <point x="565" y="1372" type="curve" smooth="yes"/>
      <point x="565" y="1397" type="line" smooth="yes"/>
      <point x="565" y="1553"/>
      <point x="485" y="1638"/>
      <point x="339" y="1638" type="curve" smooth="yes"/>
      <point x="193" y="1638"/>
      <point x="116" y="1566"/>
      <point x="116" y="1421" type="curve" smooth="yes"/>
      <point x="116" y="1415" type="line" smooth="yes"/>
      <point x="116" y="1363"/>
      <point x="127" y="1316"/>
      <point x="146" y="1282" type="curve"/>
      <point x="184" y="1282" type="line"/>
      <point x="164" y="1317"/>
      <point x="152" y="1361"/>
      <point x="152" y="1416" type="curve" smooth="yes"/>
      <point x="152" y="1421" type="line" smooth="yes"/>
      <point x="152" y="1544"/>
      <point x="217" y="1604"/>
      <point x="339" y="1604" type="curve" smooth="yes"/>
      <point x="463" y="1604"/>
      <point x="529" y="1533"/>
      <point x="529" y="1397" type="curve" smooth="yes"/>
      <point x="529" y="1373" type="line" smooth="yes"/>
      <point x="529" y="1224"/>
      <point x="460" y="1150"/>
      <point x="319" y="1150" type="curve" smooth="yes"/>
      <point x="208" y="1150" type="line"/>
      <point x="208" y="1118" type="line"/>
    </contour>
  </outline>
</glyph>
<glyph name="Lengthmark.kn" format="2">
  <advance width="819"/>
  <unicode hex="0CD5"/>
  <outline>
    <contour>
      <point x="177" y="633" type="line"/>
      <point x="177" y="777" type="line" smooth="yes"/>
      <point x="177" y="1038"/>
      <point x="255" y="1143"/>
      <point x="433" y="1143" type="curve" smooth="yes"/>
      <point x="593" y="1143"/>
      <point x="672" y="1048"/>
      <point x="672" y="863" type="curve" smooth="yes"/>
      <point x="672" y="812" type="line" smooth="yes"/>
      <point x="672" y="625"/>
      <point x="595" y="540"/>
      <point x="454" y="540" type="curve" smooth="yes"/>
      <point x="311" y="540"/>
      <point x="216" y="608"/>
      <point x="168" y="722" type="curve"/>
      <point x="166" y="653" type="line"/>
      <point x="178" y="653" type="line"/>
      <point x="223" y="568"/>
      <point x="318" y="507"/>
      <point x="454" y="507" type="curve" smooth="yes"/>
      <point x="621" y="507"/>
      <point x="708" y="609"/>
      <point x="708" y="812" type="curve" smooth="yes"/>
      <point x="708" y="864" type="line" smooth="yes"/>
      <point x="708" y="1070"/>
      <point x="614" y="1177"/>
      <point x="434" y="1177" type="curve" smooth="yes"/>
      <point x="232" y="1177"/>
      <point x="141" y="1060"/>
      <point x="141" y="777" type="curve" smooth="yes"/>
      <point x="141" y="633" type="line"/>
    </contour>
    <contour>
      <point x="141" y="637" type="line"/>
      <point x="141" y="512" type="line" smooth="yes"/>
      <point x="141" y="155"/>
      <point x="302" y="-6"/>
      <point x="616" y="-6" type="curve" smooth="yes"/>
      <point x="669" y="-6" type="line"/>
      <point x="679" y="28" type="line"/>
      <point x="616" y="28" type="line" smooth="yes"/>
      <point x="325" y="28"/>
      <point x="177" y="176"/>
      <point x="177" y="513" type="curve" smooth="yes"/>
      <point x="177" y="640" type="line"/>
    </contour>
  </outline>
  <guideline angle="90" x="758" y="0"/>
</glyph>
<glyph name="Nalku.kn" format="2">
  <advance width="1284"/>
  <unicode hex="0CEA"/>
  <outline>
    <contour>
      <point x="654" y="410" type="curve" smooth="yes"/>
      <point x="827" y="410"/>
      <point x="923" y="346"/>
      <point x="923" y="214" type="curve" smooth="yes"/>
      <point x="923" y="201" type="line" smooth="yes"/>
      <point x="923" y="69"/>
      <point x="827" y="6"/>
      <point x="654" y="6" type="curve" smooth="yes"/>
      <point x="483" y="6"/>
      <point x="386" y="69"/>
      <point x="386" y="201" type="curve" smooth="yes"/>
      <point x="386" y="214" type="line" smooth="yes"/>
      <point x="386" y="346"/>
      <point x="483" y="410"/>
    </contour>
    <contour>
      <point x="654" y="432" type="line"/>
      <point x="568" y="425" type="line" smooth="yes"/>
      <point x="427" y="414"/>
      <point x="350" y="338"/>
      <point x="350" y="213" type="curve" smooth="yes"/>
      <point x="350" y="200" type="line" smooth="yes"/>
      <point x="350" y="48"/>
      <point x="461" y="-28"/>
      <point x="654" y="-28" type="curve" smooth="yes"/>
      <point x="847" y="-28"/>
      <point x="959" y="48"/>
      <point x="959" y="200" type="curve" smooth="yes"/>
      <point x="959" y="213" type="line" smooth="yes"/>
      <point x="959" y="338"/>
      <point x="881" y="414"/>
      <point x="740" y="425" type="curve" smooth="yes"/>
    </contour>
    <contour>
      <point x="590" y="413" type="curve"/>
      <point x="652" y="423" type="line"/>
      <point x="698" y="413" type="line"/>
      <point x="1011" y="423"/>
      <point x="1179" y="557"/>
      <point x="1179" y="807" type="curve" smooth="yes"/>
      <point x="1179" y="835" type="line" smooth="yes"/>
      <point x="1179" y="1052"/>
      <point x="1071" y="1164"/>
      <point x="868" y="1164" type="curve" smooth="yes"/>
      <point x="856" y="1164"/>
      <point x="849" y="1164"/>
      <point x="839" y="1163" type="curve"/>
      <point x="839" y="1129" type="line"/>
      <point x="847" y="1130"/>
      <point x="857" y="1130"/>
      <point x="867" y="1130" type="curve" smooth="yes"/>
      <point x="1049" y="1130"/>
      <point x="1143" y="1032"/>
      <point x="1143" y="835" type="curve" smooth="yes"/>
      <point x="1143" y="807" type="line" smooth="yes"/>
      <point x="1143" y="562"/>
      <point x="974" y="440"/>
      <point x="651" y="440" type="curve" smooth="yes"/>
      <point x="303" y="440"/>
      <point x="140" y="565"/>
      <point x="140" y="801" type="curve" smooth="yes"/>
      <point x="140" y="815" type="line"/>
      <point x="104" y="815" type="line"/>
      <point x="104" y="800" type="line" smooth="yes"/>
      <point x="104" y="558"/>
      <point x="269" y="423"/>
    </contour>
    <contour>
      <point x="140" y="808" type="line"/>
      <point x="140" y="848" type="line" smooth="yes"/>
      <point x="140" y="1047"/>
      <point x="213" y="1143"/>
      <point x="382" y="1143" type="curve" smooth="yes"/>
      <point x="533" y="1143"/>
      <point x="607" y="1062"/>
      <point x="607" y="914" type="curve" smooth="yes"/>
      <point x="607" y="891" type="line" smooth="yes"/>
      <point x="607" y="746"/>
      <point x="533" y="676"/>
      <point x="399" y="676" type="curve" smooth="yes"/>
      <point x="265" y="676"/>
      <point x="176" y="741"/>
      <point x="131" y="851" type="curve"/>
      <point x="129" y="781" type="line"/>
      <point x="141" y="781" type="line"/>
      <point x="183" y="700"/>
      <point x="272" y="642"/>
      <point x="399" y="642" type="curve" smooth="yes"/>
      <point x="560" y="642"/>
      <point x="643" y="728"/>
      <point x="643" y="891" type="curve" smooth="yes"/>
      <point x="643" y="914" type="line" smooth="yes"/>
      <point x="643" y="1084"/>
      <point x="554" y="1177"/>
      <point x="383" y="1177" type="curve" smooth="yes"/>
      <point x="191" y="1177"/>
      <point x="104" y="1067"/>
      <point x="104" y="848" type="curve" smooth="yes"/>
      <point x="104" y="808" type="line"/>
    </contour>
  </outline>
</glyph>
<glyph name="Aidu.kn" format="2">
  <advance width="1590"/>
  <unicode hex="0CEB"/>
  <outline>
    <contour>
      <point x="441" y="1177" type="curve" smooth="yes"/>
      <point x="247" y="1177"/>
      <point x="151" y="1077"/>
      <point x="151" y="879" type="curve" smooth="yes"/>
      <point x="151" y="861" type="line" smooth="yes"/>
      <point x="151" y="780"/>
      <point x="165" y="717"/>
      <point x="189" y="670" type="curve"/>
      <point x="227" y="670" type="line"/>
      <point x="201" y="720"/>
      <point x="187" y="780"/>
      <point x="187" y="862" type="curve" smooth="yes"/>
      <point x="187" y="879" type="line" smooth="yes"/>
      <point x="187" y="1054"/>
      <point x="271" y="1143"/>
      <point x="441" y="1143" type="curve" smooth="yes"/>
      <point x="636" y="1143"/>
      <point x="712" y="1014"/>
      <point x="712" y="765" type="curve" smooth="yes"/>
      <point x="712" y="552" type="line"/>
      <point x="712" y="547" type="line"/>
      <point x="712" y="399" type="line" smooth="yes"/>
      <point x="712" y="141"/>
      <point x="630" y="12"/>
      <point x="431" y="12" type="curve" smooth="yes"/>
      <point x="260" y="12"/>
      <point x="170" y="101"/>
      <point x="170" y="268" type="curve" smooth="yes"/>
      <point x="170" y="279" type="line" smooth="yes"/>
      <point x="170" y="444"/>
      <point x="262" y="529"/>
      <point x="445" y="529" type="curve" smooth="yes"/>
      <point x="723" y="529" type="line"/>
      <point x="734" y="529" type="line"/>
      <point x="1156" y="529" type="line" smooth="yes"/>
      <point x="1168" y="529"/>
      <point x="1179" y="529"/>
      <point x="1190" y="530" type="curve"/>
      <point x="1203" y="532" type="line"/>
      <point x="1372" y="548"/>
      <point x="1460" y="648"/>
      <point x="1460" y="836" type="curve" smooth="yes"/>
      <point x="1460" y="895" type="line" smooth="yes"/>
      <point x="1460" y="1079"/>
      <point x="1367" y="1177"/>
      <point x="1198" y="1177" type="curve" smooth="yes"/>
      <point x="1024" y="1177"/>
      <point x="933" y="1082"/>
      <point x="933" y="895" type="curve" smooth="yes"/>
      <point x="933" y="858" type="line" smooth="yes"/>
      <point x="933" y="680"/>
      <point x="1026" y="601"/>
      <point x="1131" y="548" type="curve" smooth="yes"/>
      <point x="1153" y="537" type="line"/>
      <point x="1303" y="469"/>
      <point x="1416" y="408"/>
      <point x="1416" y="242" type="curve" smooth="yes"/>
      <point x="1416" y="236" type="line" smooth="yes"/>
      <point x="1416" y="84"/>
      <point x="1339" y="15"/>
      <point x="1183" y="15" type="curve" smooth="yes"/>
      <point x="1083" y="15"/>
      <point x="999" y="40"/>
      <point x="924" y="84" type="curve"/>
      <point x="930" y="45" type="line"/>
      <point x="1001" y="5"/>
      <point x="1086" y="-19"/>
      <point x="1184" y="-19" type="curve" smooth="yes"/>
      <point x="1364" y="-19"/>
      <point x="1452" y="63"/>
      <point x="1452" y="236" type="curve" smooth="yes"/>
      <point x="1452" y="242" type="line" smooth="yes"/>
      <point x="1452" y="412"/>
      <point x="1348" y="483"/>
      <point x="1203" y="548" type="curve" smooth="yes"/>
      <point x="1182" y="558" type="line" smooth="yes"/>
      <point x="1070" y="611"/>
      <point x="969" y="685"/>
      <point x="969" y="859" type="curve" smooth="yes"/>
      <point x="969" y="894" type="line" smooth="yes"/>
      <point x="969" y="1059"/>
      <point x="1047" y="1143"/>
      <point x="1198" y="1143" type="curve" smooth="yes"/>
      <point x="1345" y="1143"/>
      <point x="1424" y="1060"/>
      <point x="1424" y="894" type="curve" smooth="yes"/>
      <point x="1424" y="836" type="line" smooth="yes"/>
      <point x="1424" y="649"/>
      <point x="1331" y="561"/>
      <point x="1150" y="561" type="curve" smooth="yes"/>
      <point x="734" y="561" type="line"/>
      <point x="724" y="561" type="line"/>
      <point x="444" y="561" type="line" smooth="yes"/>
      <point x="240" y="561"/>
      <point x="134" y="466"/>
      <point x="134" y="279" type="curve" smooth="yes"/>
      <point x="134" y="267" type="line" smooth="yes"/>
      <point x="134" y="78"/>
      <point x="236" y="-22"/>
      <point x="430" y="-22" type="curve" smooth="yes"/>
      <point x="656" y="-22"/>
      <point x="748" y="123"/>
      <point x="748" y="402" type="curve" smooth="yes"/>
      <point x="748" y="765" type="line" smooth="yes"/>
      <point x="748" y="1038"/>
      <point x="660" y="1177"/>
    </contour>
  </outline>
  <guideline angle="90" x="1851" y="0"/>
  <guideline angle="90" x="1224" y="0"/>
</glyph>
<glyph name="Yelu.kn" format="2">
  <advance width="1164"/>
  <unicode hex="0CED"/>
  <outline>
    <contour>
      <point x="476" y="1177" type="curve" smooth="yes"/>
      <point x="277" y="1177"/>
      <point x="174" y="1079"/>
      <point x="174" y="891" type="curve" smooth="yes"/>
      <point x="174" y="885" type="line" smooth="yes"/>
      <point x="174" y="804"/>
      <point x="192" y="726"/>
      <point x="217" y="670" type="curve"/>
      <point x="254" y="670" type="line"/>
      <point x="229" y="727"/>
      <point x="210" y="801"/>
      <point x="210" y="885" type="curve" smooth="yes"/>
      <point x="210" y="891" type="line" smooth="yes"/>
      <point x="210" y="1057"/>
      <point x="301" y="1143"/>
      <point x="476" y="1143" type="curve" smooth="yes"/>
      <point x="645" y="1143"/>
      <point x="732" y="1064"/>
      <point x="732" y="903" type="curve" smooth="yes"/>
      <point x="732" y="897" type="line" smooth="yes"/>
      <point x="732" y="765"/>
      <point x="673" y="691"/>
      <point x="520" y="619" type="curve" smooth="yes"/>
      <point x="418" y="571" type="line" smooth="yes"/>
      <point x="217" y="476"/>
      <point x="132" y="405"/>
      <point x="132" y="253" type="curve" smooth="yes"/>
      <point x="132" y="247" type="line" smooth="yes"/>
      <point x="132" y="85"/>
      <point x="234" y="0"/>
      <point x="442" y="0" type="curve" smooth="yes"/>
      <point x="1116" y="0" type="line"/>
      <point x="1122" y="32" type="line"/>
      <point x="442" y="32" type="line" smooth="yes"/>
      <point x="259" y="32"/>
      <point x="168" y="106"/>
      <point x="168" y="247" type="curve" smooth="yes"/>
      <point x="168" y="253" type="line" smooth="yes"/>
      <point x="168" y="389"/>
      <point x="249" y="454"/>
      <point x="436" y="543" type="curve" smooth="yes"/>
      <point x="539" y="592" type="line" smooth="yes"/>
      <point x="703" y="670"/>
      <point x="768" y="751"/>
      <point x="768" y="897" type="curve" smooth="yes"/>
      <point x="768" y="903" type="line" smooth="yes"/>
      <point x="768" y="1085"/>
      <point x="669" y="1177"/>
    </contour>
  </outline>
</glyph>
<glyph name="zerosuperior" format="2">
  <advance width="686"/>
  <unicode hex="2070"/>
  <outline>
    <contour>
      <point x="342" y="714" type="curve" smooth="yes"/>
      <point x="515" y="714"/>
      <point x="604" y="820"/>
      <point x="604" y="998" type="curve" smooth="yes"/>
      <point x="604" y="1129" type="line" smooth="yes"/>
      <point x="604" y="1305"/>
      <point x="515" y="1413"/>
      <point x="342" y="1413" type="curve" smooth="yes"/>
      <point x="171" y="1413"/>
      <point x="82" y="1305"/>
      <point x="82" y="1129" type="curve" smooth="yes"/>
      <point x="82" y="998" type="line" smooth="yes"/>
      <point x="82" y="820"/>
      <point x="171" y="714"/>
    </contour>
    <contour>
      <point x="342" y="746" type="curve" smooth="yes"/>
      <point x="193" y="746"/>
      <point x="118" y="838"/>
      <point x="118" y="998" type="curve" smooth="yes"/>
      <point x="118" y="1129" type="line" smooth="yes"/>
      <point x="118" y="1290"/>
      <point x="193" y="1381"/>
      <point x="342" y="1381" type="curve" smooth="yes"/>
      <point x="493" y="1381"/>
      <point x="568" y="1290"/>
      <point x="568" y="1129" type="curve" smooth="yes"/>
      <point x="568" y="998" type="line" smooth="yes"/>
      <point x="568" y="838"/>
      <point x="493" y="746"/>
    </contour>
  </outline>
</glyph>
<glyph name="euro" format="2">
  <advance width="1065"/>
  <unicode hex="20AC"/>
  <outline>
    <contour>
      <point x="649" y="-18" type="curve" smooth="yes"/>
      <point x="795" y="-18"/>
      <point x="899" y="29"/>
      <point x="957" y="71" type="curve"/>
      <point x="962" y="115" type="line"/>
      <point x="887" y="62"/>
      <point x="788" y="19"/>
      <point x="649" y="19" type="curve" smooth="yes"/>
      <point x="383" y="19"/>
      <point x="249" y="176"/>
      <point x="249" y="453" type="curve" smooth="yes"/>
      <point x="249" y="826" type="line" smooth="yes"/>
      <point x="249" y="1105"/>
      <point x="382" y="1260"/>
      <point x="639" y="1260" type="curve" smooth="yes"/>
      <point x="778" y="1260"/>
      <point x="882" y="1214"/>
      <point x="956" y="1164" type="curve"/>
      <point x="950" y="1208" type="line"/>
      <point x="892" y="1248"/>
      <point x="786" y="1296"/>
      <point x="639" y="1296" type="curve" smooth="yes"/>
      <point x="357" y="1296"/>
      <point x="210" y="1126"/>
      <point x="210" y="826" type="curve" smooth="yes"/>
      <point x="210" y="453" type="line" smooth="yes"/>
      <point x="210" y="154"/>
      <point x="357" y="-18"/>
    </contour>
    <contour>
      <point x="857" y="468" type="line"/>
      <point x="864" y="501" type="line"/>
      <point x="48" y="501" type="line"/>
      <point x="41" y="468" type="line"/>
    </contour>
    <contour>
      <point x="857" y="790" type="line"/>
      <point x="864" y="823" type="line"/>
      <point x="48" y="823" type="line"/>
      <point x="41" y="790" type="line"/>
    </contour>
  </outline>
</glyph>
<glyph name="BhaHalant.kn" format="2">
  <advance width="2072"/>
  <outline>
    <component base="BaHalant.kn"/>
    <contour>
      <point x="741" y="-366" type="curve" smooth="yes"/>
      <point x="759" y="-366"/>
      <point x="766" y="-353"/>
      <point x="766" y="-325" type="curve" smooth="yes"/>
      <point x="766" y="-257" type="line" smooth="yes"/>
      <point x="766" y="-109"/>
      <point x="760" y="-10"/>
      <point x="741" y="73" type="curve"/>
      <point x="722" y="-10"/>
      <point x="716" y="-109"/>
      <point x="716" y="-257" type="curve" smooth="yes"/>
      <point x="716" y="-325" type="line" smooth="yes"/>
      <point x="716" y="-353"/>
      <point x="723" y="-366"/>
    </contour>
  </outline>
  <guideline angle="90" x="1161" y="0"/>
  <guideline angle="90" x="838" y="0"/>
  <guideline angle="90" x="419" y="0"/>
  <guideline angle="90" x="82" y="0"/>
</glyph>
<glyph name="BhamatraE.kn" format="2">
  <advance width="1480"/>
  <outline>
    <component base="BamatraE.kn"/>
    <contour>
      <point x="741" y="-366" type="curve" smooth="yes"/>
      <point x="759" y="-366"/>
      <point x="766" y="-353"/>
      <point x="766" y="-325" type="curve" smooth="yes"/>
      <point x="766" y="-257" type="line" smooth="yes"/>
      <point x="766" y="-109"/>
      <point x="760" y="-10"/>
      <point x="741" y="73" type="curve"/>
      <point x="722" y="-10"/>
      <point x="716" y="-109"/>
      <point x="716" y="-257" type="curve" smooth="yes"/>
      <point x="716" y="-325" type="line" smooth="yes"/>
      <point x="716" y="-353"/>
      <point x="723" y="-366"/>
    </contour>
  </outline>
  <guideline angle="0" x="0" y="-274"/>
  <guideline angle="90" x="101" y="0"/>
</glyph>
<glyph name="BhamatraI.kn" format="2">
  <advance width="1526"/>
  <outline>
    <component base="BamatraI.kn"/>
    <contour>
      <point x="751" y="-366" type="curve" smooth="yes"/>
      <point x="769" y="-366"/>
      <point x="776" y="-353"/>
      <point x="776" y="-325" type="curve" smooth="yes"/>
      <point x="776" y="-257" type="line" smooth="yes"/>
      <point x="776" y="-109"/>
      <point x="770" y="-10"/>
      <point x="751" y="73" type="curve"/>
      <point x="732" y="-10"/>
      <point x="726" y="-109"/>
      <point x="726" y="-257" type="curve" smooth="yes"/>
      <point x="726" y="-325" type="line" smooth="yes"/>
      <point x="726" y="-353"/>
      <point x="733" y="-366"/>
    </contour>
  </outline>
  <guideline angle="0" x="0" y="-274"/>
  <guideline angle="90" x="82" y="0"/>
</glyph>
<glyph name="CamatraE.kn" format="2">
  <advance width="1488"/>
  <outline>
    <component base="matraE.kn" xOffset="831"/>
    <contour>
      <point x="1101" y="614" type="line"/>
      <point x="1175" y="611" type="line"/>
      <point x="1175" y="615" type="line"/>
      <point x="1399" y="614" type="line"/>
      <point x="1399" y="646" type="line"/>
      <point x="1169" y="645" type="line"/>
      <point x="1078" y="646" type="line"/>
      <point x="873" y="646" type="line"/>
      <point x="873" y="614" type="line"/>
    </contour>
    <contour>
      <point x="1133" y="1118" type="line"/>
      <point x="1133" y="1150" type="line"/>
      <point x="861" y="1150" type="line"/>
      <point x="861" y="1118" type="line"/>
    </contour>
    <contour>
      <point x="1336" y="338" type="line" smooth="yes"/>
      <point x="1336" y="499"/>
      <point x="1276" y="584"/>
      <point x="1175" y="614" type="curve"/>
      <point x="1049" y="626" type="line"/>
      <point x="1049" y="614" type="line"/>
      <point x="1215" y="614"/>
      <point x="1300" y="521"/>
      <point x="1300" y="337" type="curve" smooth="yes"/>
      <point x="1300" y="289" type="line" smooth="yes"/>
      <point x="1300" y="108"/>
      <point x="1213" y="12"/>
      <point x="1039" y="12" type="curve" smooth="yes"/>
      <point x="855" y="12"/>
      <point x="764" y="110"/>
      <point x="760" y="318" type="curve" smooth="yes"/>
      <point x="758" y="431" type="line"/>
      <point x="736" y="431" type="line"/>
      <point x="741" y="240" type="line"/>
      <point x="752" y="77"/>
      <point x="850" y="-22"/>
      <point x="1040" y="-22" type="curve" smooth="yes"/>
      <point x="1237" y="-22"/>
      <point x="1336" y="84"/>
      <point x="1336" y="288" type="curve" smooth="yes"/>
    </contour>
    <contour>
      <point x="1293" y="887" type="line" smooth="yes"/>
      <point x="1293" y="1015"/>
      <point x="1246" y="1091"/>
      <point x="1166" y="1117" type="curve"/>
      <point x="1166" y="1127" type="line"/>
      <point x="1044" y="1128" type="line"/>
      <point x="1044" y="1118" type="line"/>
      <point x="1184" y="1118"/>
      <point x="1257" y="1039"/>
      <point x="1257" y="887" type="curve" smooth="yes"/>
      <point x="1257" y="867" type="line" smooth="yes"/>
      <point x="1257" y="725"/>
      <point x="1184" y="646"/>
      <point x="1044" y="646" type="curve"/>
      <point x="1044" y="636" type="line"/>
      <point x="1169" y="635" type="line"/>
      <point x="1169" y="646" type="line"/>
      <point x="1246" y="670"/>
      <point x="1293" y="747"/>
      <point x="1293" y="867" type="curve" smooth="yes"/>
    </contour>
    <contour>
      <point x="449" y="1177" type="curve" smooth="yes"/>
      <point x="255" y="1177"/>
      <point x="154" y="1079"/>
      <point x="154" y="891" type="curve" smooth="yes"/>
      <point x="154" y="885" type="line" smooth="yes"/>
      <point x="154" y="804"/>
      <point x="172" y="726"/>
      <point x="197" y="670" type="curve"/>
      <point x="234" y="670" type="line"/>
      <point x="209" y="727"/>
      <point x="190" y="801"/>
      <point x="190" y="885" type="curve" smooth="yes"/>
      <point x="190" y="891" type="line" smooth="yes"/>
      <point x="190" y="1057"/>
      <point x="278" y="1143"/>
      <point x="449" y="1143" type="curve" smooth="yes"/>
      <point x="613" y="1143"/>
      <point x="698" y="1065"/>
      <point x="698" y="908" type="curve" smooth="yes"/>
      <point x="698" y="902" type="line" smooth="yes"/>
      <point x="698" y="771"/>
      <point x="637" y="703"/>
      <point x="486" y="626" type="curve" smooth="yes"/>
      <point x="384" y="574" type="line" smooth="yes"/>
      <point x="203" y="482"/>
      <point x="128" y="410"/>
      <point x="128" y="256" type="curve" smooth="yes"/>
      <point x="128" y="248" type="line" smooth="yes"/>
      <point x="128" y="71"/>
      <point x="232" y="-22"/>
      <point x="433" y="-22" type="curve" smooth="yes"/>
      <point x="628" y="-22"/>
      <point x="727" y="74"/>
      <point x="740" y="233" type="curve"/>
      <point x="748" y="233" type="line"/>
      <point x="748" y="431" type="line"/>
      <point x="724" y="431" type="line"/>
      <point x="722" y="318" type="line" smooth="yes"/>
      <point x="718" y="110"/>
      <point x="626" y="12"/>
      <point x="434" y="12" type="curve" smooth="yes"/>
      <point x="258" y="12"/>
      <point x="164" y="93"/>
      <point x="164" y="249" type="curve" smooth="yes"/>
      <point x="164" y="256" type="line" smooth="yes"/>
      <point x="164" y="393"/>
      <point x="235" y="460"/>
      <point x="402" y="546" type="curve" smooth="yes"/>
      <point x="505" y="599" type="line" smooth="yes"/>
      <point x="666" y="682"/>
      <point x="734" y="757"/>
      <point x="734" y="902" type="curve" smooth="yes"/>
      <point x="734" y="908" type="line" smooth="yes"/>
      <point x="734" y="1087"/>
      <point x="638" y="1177"/>
    </contour>
  </outline>
  <guideline angle="90" x="1494" y="0"/>
  <guideline angle="90" x="764" y="0"/>
</glyph>
<glyph name="CamatraU.kn" format="2">
  <advance width="2101"/>
  <outline>
    <component base="Ca.kn"/>
    <contour>
      <point x="1606" y="1165" type="curve" smooth="yes"/>
      <point x="1594" y="1165"/>
      <point x="1582" y="1165"/>
      <point x="1566" y="1164" type="curve"/>
      <point x="1566" y="1130" type="line"/>
      <point x="1581" y="1131"/>
      <point x="1595" y="1131"/>
      <point x="1605" y="1131" type="curve" smooth="yes"/>
      <point x="1813" y="1131"/>
      <point x="1916" y="997"/>
      <point x="1916" y="685" type="curve" smooth="yes"/>
      <point x="1916" y="412" type="line" smooth="yes"/>
      <point x="1916" y="137"/>
      <point x="1819" y="12"/>
      <point x="1618" y="12" type="curve" smooth="yes"/>
      <point x="1435" y="12"/>
      <point x="1334" y="113"/>
      <point x="1334" y="312" type="curve"/>
      <point x="1310" y="312" type="line"/>
      <point x="1310" y="270" type="line"/>
      <point x="1318" y="89"/>
      <point x="1422" y="-22"/>
      <point x="1619" y="-22" type="curve" smooth="yes"/>
      <point x="1842" y="-22"/>
      <point x="1952" y="118"/>
      <point x="1952" y="413" type="curve" smooth="yes"/>
      <point x="1952" y="685" type="line" smooth="yes"/>
      <point x="1952" y="1018"/>
      <point x="1836" y="1165"/>
    </contour>
  </outline>
  <guideline angle="90" x="1495" y="0"/>
  <guideline angle="90" x="765" y="0"/>
</glyph>
<glyph name="CamatraUu.kn" format="2">
  <advance width="2796"/>
  <outline>
    <component base="Ca.kn"/>
    <contour>
      <point x="1552" y="11" type="curve" smooth="yes"/>
      <point x="1404" y="11"/>
      <point x="1334" y="103"/>
      <point x="1334" y="286" type="curve"/>
      <point x="1334" y="286"/>
      <point x="1334" y="306"/>
      <point x="1334" y="306" type="curve"/>
      <point x="1308" y="306" type="line"/>
      <point x="1308" y="279" type="line" smooth="yes"/>
      <point x="1308" y="73"/>
      <point x="1391" y="-23"/>
      <point x="1552" y="-23" type="curve" smooth="yes"/>
      <point x="1712" y="-23"/>
      <point x="1803" y="80"/>
      <point x="1803" y="284" type="curve" smooth="yes"/>
      <point x="1803" y="527" type="line"/>
      <point x="1767" y="527" type="line"/>
      <point x="1767" y="284" type="line" smooth="yes"/>
      <point x="1767" y="100"/>
      <point x="1691" y="11"/>
    </contour>
    <contour>
      <point x="2207" y="1177" type="curve" smooth="yes"/>
      <point x="1918" y="1177"/>
      <point x="1767" y="1011"/>
      <point x="1767" y="678" type="curve" smooth="yes"/>
      <point x="1767" y="517" type="line"/>
      <point x="1803" y="517" type="line"/>
      <point x="1803" y="679" type="line" smooth="yes"/>
      <point x="1803" y="988"/>
      <point x="1941" y="1143"/>
      <point x="2207" y="1143" type="curve" smooth="yes"/>
      <point x="2473" y="1143"/>
      <point x="2611" y="988"/>
      <point x="2611" y="679" type="curve" smooth="yes"/>
      <point x="2611" y="495" type="line"/>
      <point x="2647" y="494" type="line"/>
      <point x="2647" y="678" type="line" smooth="yes"/>
      <point x="2647" y="1011"/>
      <point x="2496" y="1177"/>
    </contour>
    <contour>
      <point x="2647" y="499" type="line"/>
      <point x="2611" y="499" type="line"/>
      <point x="2611" y="359" type="line" smooth="yes"/>
      <point x="2611" y="112"/>
      <point x="2541" y="12"/>
      <point x="2374" y="12" type="curve" smooth="yes"/>
      <point x="2217" y="12"/>
      <point x="2140" y="104"/>
      <point x="2140" y="281" type="curve" smooth="yes"/>
      <point x="2140" y="352" type="line" smooth="yes"/>
      <point x="2140" y="534"/>
      <point x="2219" y="616"/>
      <point x="2365" y="616" type="curve" smooth="yes"/>
      <point x="2492" y="616"/>
      <point x="2577" y="552"/>
      <point x="2620" y="444" type="curve"/>
      <point x="2622" y="514" type="line"/>
      <point x="2610" y="514" type="line"/>
      <point x="2570" y="593"/>
      <point x="2485" y="650"/>
      <point x="2365" y="650" type="curve" smooth="yes"/>
      <point x="2193" y="650"/>
      <point x="2105" y="551"/>
      <point x="2105" y="352" type="curve" smooth="yes"/>
      <point x="2105" y="280" type="line" smooth="yes"/>
      <point x="2105" y="82"/>
      <point x="2197" y="-22"/>
      <point x="2374" y="-22" type="curve" smooth="yes"/>
      <point x="2565" y="-22"/>
      <point x="2647" y="89"/>
      <point x="2647" y="359" type="curve" smooth="yes"/>
    </contour>
  </outline>
</glyph>
<glyph name="ChamatraI.kn.1" format="2">
  <advance width="1529"/>
  <outline>
    <contour>
      <point x="437" y="1177" type="curve" smooth="yes"/>
      <point x="240" y="1177"/>
      <point x="150" y="1061"/>
      <point x="150" y="782" type="curve" smooth="yes"/>
      <point x="150" y="678" type="line"/>
      <point x="186" y="678" type="line"/>
      <point x="186" y="782" type="line" smooth="yes"/>
      <point x="186" y="1039"/>
      <point x="262" y="1143"/>
      <point x="436" y="1143" type="curve" smooth="yes"/>
      <point x="591" y="1143"/>
      <point x="668" y="1050"/>
      <point x="668" y="869" type="curve" smooth="yes"/>
      <point x="668" y="817" type="line" smooth="yes"/>
      <point x="668" y="635"/>
      <point x="593" y="553"/>
      <point x="457" y="553" type="curve" smooth="yes"/>
      <point x="317" y="553"/>
      <point x="224" y="620"/>
      <point x="177" y="733" type="curve"/>
      <point x="175" y="663" type="line"/>
      <point x="187" y="663" type="line"/>
      <point x="231" y="579"/>
      <point x="324" y="519"/>
      <point x="457" y="519" type="curve" smooth="yes"/>
      <point x="620" y="519"/>
      <point x="705" y="618"/>
      <point x="705" y="817" type="curve" smooth="yes"/>
      <point x="705" y="870" type="line" smooth="yes"/>
      <point x="705" y="1072"/>
      <point x="613" y="1177"/>
    </contour>
    <contour>
      <point x="1374" y="387" type="curve" smooth="yes"/>
      <point x="1373.81" y="1016" type="line" smooth="yes"/>
      <point x="1373.76" y="1207.28"/>
      <point x="1326.81" y="1387"/>
      <point x="1092.81" y="1387" type="curve" smooth="yes"/>
      <point x="922.812" y="1387"/>
      <point x="832.812" y="1297.98"/>
      <point x="832.812" y="1124" type="curve" smooth="yes"/>
      <point x="832.812" y="1099" type="line" smooth="yes"/>
      <point x="832.812" y="931.996"/>
      <point x="921.812" y="849"/>
      <point x="1091.81" y="849" type="curve" smooth="yes"/>
      <point x="1226.08" y="849"/>
      <point x="1310.38" y="925.4"/>
      <point x="1346.81" y="989" type="curve"/>
      <point x="1345.81" y="1043" type="line"/>
      <point x="1307.81" y="962"/>
      <point x="1224.81" y="883"/>
      <point x="1091.81" y="883" type="curve" smooth="yes"/>
      <point x="949.812" y="883"/>
      <point x="868.812" y="949.93"/>
      <point x="868.812" y="1099" type="curve" smooth="yes"/>
      <point x="868.812" y="1124" type="line" smooth="yes"/>
      <point x="868.812" y="1277"/>
      <point x="945.812" y="1353"/>
      <point x="1092.81" y="1353" type="curve" smooth="yes"/>
      <point x="1310.81" y="1353"/>
      <point x="1337.76" y="1171.96"/>
      <point x="1337.81" y="996" type="curve" smooth="yes"/>
      <point x="1338" y="386" type="line" smooth="yes"/>
      <point x="1338" y="123"/>
      <point x="1250" y="12"/>
      <point x="1066" y="12" type="curve" smooth="yes"/>
      <point x="887" y="12"/>
      <point x="800" y="111"/>
      <point x="796" y="320" type="curve" smooth="yes"/>
      <point x="794" y="431" type="line"/>
      <point x="760" y="431" type="line"/>
      <point x="758" y="320" type="line" smooth="yes"/>
      <point x="754" y="111"/>
      <point x="665" y="12"/>
      <point x="482" y="12" type="curve" smooth="yes"/>
      <point x="282" y="12"/>
      <point x="186" y="124"/>
      <point x="186" y="403" type="curve" smooth="yes"/>
      <point x="186" y="681" type="line"/>
      <point x="150" y="683" type="line"/>
      <point x="150" y="404" type="line" smooth="yes"/>
      <point x="150" y="106"/>
      <point x="258" y="-22"/>
      <point x="481" y="-22" type="curve" smooth="yes"/>
      <point x="668" y="-22"/>
      <point x="763" y="75"/>
      <point x="776" y="235" type="curve"/>
      <point x="778" y="235" type="line"/>
      <point x="790" y="75"/>
      <point x="884" y="-22"/>
      <point x="1067" y="-22" type="curve" smooth="yes"/>
      <point x="1274" y="-22"/>
      <point x="1374" y="105"/>
    </contour>
    <contour>
      <point x="777" y="-366" type="curve" smooth="yes"/>
      <point x="795" y="-366"/>
      <point x="802" y="-353"/>
      <point x="802" y="-325" type="curve" smooth="yes"/>
      <point x="802" y="-257" type="line" smooth="yes"/>
      <point x="802" y="-109"/>
      <point x="796" y="-10"/>
      <point x="777" y="73" type="curve"/>
      <point x="758" y="-10"/>
      <point x="752" y="-109"/>
      <point x="752" y="-257" type="curve" smooth="yes"/>
      <point x="752" y="-325" type="line" smooth="yes"/>
      <point x="752" y="-353"/>
      <point x="759" y="-366"/>
    </contour>
  </outline>
  <guideline angle="0" x="0" y="-274"/>
</glyph>
<glyph name="Ddasmall1.kn" format="2">
  <outline>
    <contour>
      <point x="-232" y="-160" type="curve" smooth="yes"/>
      <point x="-447" y="-160"/>
      <point x="-564" y="-265"/>
      <point x="-564" y="-465" type="curve" smooth="yes"/>
      <point x="-564" y="-535" type="line" smooth="yes"/>
      <point x="-564" y="-669"/>
      <point x="-504" y="-740"/>
      <point x="-393" y="-740" type="curve" smooth="yes"/>
      <point x="-307" y="-740"/>
      <point x="-250" y="-697"/>
      <point x="-240" y="-608" type="curve"/>
      <point x="-239" y="-608" type="line"/>
      <point x="-225" y="-697"/>
      <point x="-167" y="-740"/>
      <point x="-71" y="-740" type="curve" smooth="yes"/>
      <point x="35" y="-740"/>
      <point x="92" y="-686"/>
      <point x="92" y="-583" type="curve" smooth="yes"/>
      <point x="92" y="-572" type="line" smooth="yes"/>
      <point x="92" y="-491"/>
      <point x="56" y="-441"/>
      <point x="-20" y="-430" type="curve"/>
      <point x="-20" y="-429" type="line"/>
      <point x="32" y="-420"/>
      <point x="58" y="-387"/>
      <point x="58" y="-329" type="curve" smooth="yes"/>
      <point x="58" y="-326" type="line" smooth="yes"/>
      <point x="58" y="-216"/>
      <point x="-42" y="-160"/>
    </contour>
    <contour>
      <point x="-72" y="-708" type="curve" smooth="yes"/>
      <point x="-168" y="-708"/>
      <point x="-219" y="-660"/>
      <point x="-222" y="-551" type="curve" smooth="yes"/>
      <point x="-223" y="-515" type="line"/>
      <point x="-256" y="-515" type="line"/>
      <point x="-257" y="-551" type="line" smooth="yes"/>
      <point x="-260" y="-660"/>
      <point x="-307" y="-708"/>
      <point x="-392" y="-708" type="curve" smooth="yes"/>
      <point x="-482" y="-708"/>
      <point x="-530" y="-649"/>
      <point x="-530" y="-535" type="curve" smooth="yes"/>
      <point x="-530" y="-465" type="line" smooth="yes"/>
      <point x="-530" y="-286"/>
      <point x="-424" y="-192"/>
      <point x="-232" y="-192" type="curve" smooth="yes"/>
      <point x="-64" y="-192"/>
      <point x="24" y="-238"/>
      <point x="24" y="-326" type="curve" smooth="yes"/>
      <point x="24" y="-329" type="line" smooth="yes"/>
      <point x="24" y="-387"/>
      <point x="-12" y="-413"/>
      <point x="-87" y="-414" type="curve" smooth="yes"/>
      <point x="-152" y="-415" type="line"/>
      <point x="-152" y="-446" type="line"/>
      <point x="-81" y="-447" type="line" smooth="yes"/>
      <point x="10" y="-448"/>
      <point x="58" y="-488"/>
      <point x="58" y="-572" type="curve" smooth="yes"/>
      <point x="58" y="-583" type="line" smooth="yes"/>
      <point x="58" y="-665"/>
      <point x="13" y="-708"/>
    </contour>
  </outline>
</glyph>
<glyph name="Dhasmall1.kn" format="2">
  <outline>
    <component base="Dasmall1.kn"/>
    <contour>
      <point x="-236" y="-684" type="curve"/>
      <point x="-252" y="-734"/>
      <point x="-256" y="-784"/>
      <point x="-256" y="-853" type="curve" smooth="yes"/>
      <point x="-256" y="-891" type="line" smooth="yes"/>
      <point x="-256" y="-913"/>
      <point x="-251" y="-923"/>
      <point x="-236" y="-923" type="curve" smooth="yes"/>
      <point x="-222" y="-923"/>
      <point x="-215" y="-913"/>
      <point x="-215" y="-891" type="curve" smooth="yes"/>
      <point x="-215" y="-853" type="line" smooth="yes"/>
      <point x="-215" y="-784"/>
      <point x="-222" y="-733"/>
    </contour>
  </outline>
  <guideline angle="90" x="244" y="0"/>
</glyph>
<glyph name="GamatraI.kn" format="2">
  <advance width="1218"/>
  <outline>
    <contour>
      <point x="542" y="1451" type="curve" smooth="yes"/>
      <point x="860" y="1451"/>
      <point x="1007" y="1280"/>
      <point x="1007" y="867" type="curve" smooth="yes"/>
      <point x="1007" y="717" type="line"/>
      <point x="1037" y="723" type="line"/>
      <point x="1037" y="867" type="line" smooth="yes"/>
      <point x="1037" y="1300"/>
      <point x="890" y="1485"/>
      <point x="542" y="1485" type="curve" smooth="yes"/>
      <point x="303" y="1485"/>
      <point x="181" y="1393"/>
      <point x="181" y="1213" type="curve" smooth="yes"/>
      <point x="181" y="1114"/>
      <point x="226" y="1043"/>
      <point x="296" y="1014" type="curve"/>
      <point x="318" y="1041" type="line"/>
      <point x="256" y="1068"/>
      <point x="217" y="1129"/>
      <point x="217" y="1213" type="curve" smooth="yes"/>
      <point x="217" y="1369"/>
      <point x="328" y="1451"/>
    </contour>
    <contour>
      <point x="1000" y="667" type="curve" smooth="yes"/>
      <point x="1000" y="0" type="line"/>
      <point x="1036.5" y="0" type="line"/>
      <point x="1036.5" y="805" type="line"/>
      <point x="1017" y="867" type="line"/>
      <point x="1005" y="867" type="line"/>
      <point x="959" y="1058"/>
      <point x="826" y="1152"/>
      <point x="609" y="1152" type="curve" smooth="yes"/>
      <point x="470" y="1152"/>
      <point x="369" y="1112"/>
      <point x="298" y="1039" type="curve" smooth="yes"/>
      <point x="294" y="1035"/>
      <point x="291" y="1032"/>
      <point x="287" y="1028" type="curve" smooth="yes"/>
      <point x="214" y="946"/>
      <point x="179" y="830"/>
      <point x="179" y="667" type="curve" smooth="yes"/>
      <point x="179" y="0" type="line"/>
      <point x="216" y="0" type="line"/>
      <point x="216" y="667" type="line" smooth="yes"/>
      <point x="216" y="978"/>
      <point x="349" y="1118"/>
      <point x="608" y="1118" type="curve" smooth="yes"/>
      <point x="867" y="1118"/>
      <point x="1000" y="978"/>
    </contour>
  </outline>
  <guideline angle="0" x="0" y="1180"/>
  <guideline angle="0" x="0" y="1475"/>
  <guideline angle="0" x="0" y="1147"/>
</glyph>
<glyph name="GhamatraU.kn" format="2">
  <advance width="2087"/>
  <outline>
    <component base="Gha.kn"/>
    <contour>
      <point x="1592" y="1165" type="curve" smooth="yes"/>
      <point x="1580" y="1165"/>
      <point x="1568" y="1165"/>
      <point x="1552" y="1164" type="curve"/>
      <point x="1552" y="1130" type="line"/>
      <point x="1567" y="1131"/>
      <point x="1581" y="1131"/>
      <point x="1591" y="1131" type="curve" smooth="yes"/>
      <point x="1799" y="1131"/>
      <point x="1902" y="997"/>
      <point x="1902" y="685" type="curve" smooth="yes"/>
      <point x="1902" y="412" type="line" smooth="yes"/>
      <point x="1902" y="137"/>
      <point x="1805" y="12"/>
      <point x="1604" y="12" type="curve" smooth="yes"/>
      <point x="1421" y="12"/>
      <point x="1320" y="113"/>
      <point x="1320" y="312" type="curve"/>
      <point x="1296" y="312" type="line"/>
      <point x="1296" y="270" type="line"/>
      <point x="1304" y="89"/>
      <point x="1408" y="-22"/>
      <point x="1605" y="-22" type="curve" smooth="yes"/>
      <point x="1828" y="-22"/>
      <point x="1938" y="118"/>
      <point x="1938" y="413" type="curve" smooth="yes"/>
      <point x="1938" y="685" type="line" smooth="yes"/>
      <point x="1938" y="1018"/>
      <point x="1822" y="1165"/>
    </contour>
  </outline>
  <guideline angle="90" x="114" y="0"/>
</glyph>
<glyph name="Ghasmall1.kn" format="2">
  <outline>
    <component base="Pasmall1.kn" xOffset="-40" yOffset="-45"/>
    <contour>
      <point x="134" y="-454" type="curve" smooth="yes"/>
      <point x="218" y="-454"/>
      <point x="263" y="-404"/>
      <point x="263" y="-308" type="curve" smooth="yes"/>
      <point x="263" y="-296" type="line" smooth="yes"/>
      <point x="263" y="-235"/>
      <point x="248" y="-192"/>
      <point x="219" y="-157" type="curve"/>
      <point x="183" y="-157" type="line"/>
      <point x="213" y="-193"/>
      <point x="229" y="-234"/>
      <point x="229" y="-296" type="curve" smooth="yes"/>
      <point x="229" y="-307" type="line" smooth="yes"/>
      <point x="229" y="-384"/>
      <point x="196" y="-422"/>
      <point x="131" y="-422" type="curve" smooth="yes"/>
      <point x="74" y="-422"/>
      <point x="31" y="-393"/>
      <point x="14" y="-341" type="curve"/>
      <point x="13" y="-409" type="line"/>
      <point x="25" y="-409" type="line"/>
      <point x="51" y="-438"/>
      <point x="89" y="-454"/>
    </contour>
    <contour>
      <point x="-303" y="-684" type="curve"/>
      <point x="-319" y="-734"/>
      <point x="-323" y="-784"/>
      <point x="-323" y="-853" type="curve" smooth="yes"/>
      <point x="-323" y="-891" type="line" smooth="yes"/>
      <point x="-323" y="-913"/>
      <point x="-318" y="-923"/>
      <point x="-303" y="-923" type="curve" smooth="yes"/>
      <point x="-289" y="-923"/>
      <point x="-282" y="-913"/>
      <point x="-282" y="-891" type="curve" smooth="yes"/>
      <point x="-282" y="-853" type="line" smooth="yes"/>
      <point x="-282" y="-784"/>
      <point x="-289" y="-733"/>
    </contour>
  </outline>
</glyph>
<glyph name="HaHalant.kn" format="2">
  <advance width="2080"/>
  <outline>
    <component base="Halant.kn" xOffset="1531"/>
    <contour>
      <point x="462" y="-22" type="curve" smooth="yes"/>
      <point x="660" y="-22"/>
      <point x="749" y="87"/>
      <point x="766" y="246" type="curve"/>
      <point x="768" y="246" type="line"/>
      <point x="808" y="69"/>
      <point x="907" y="-22"/>
      <point x="1082" y="-22" type="curve" smooth="yes"/>
      <point x="1278" y="-22"/>
      <point x="1383" y="94"/>
      <point x="1383" y="330" type="curve" smooth="yes"/>
      <point x="1383" y="472" type="line" smooth="yes"/>
      <point x="1383" y="706"/>
      <point x="1276" y="834"/>
      <point x="1068" y="834" type="curve" smooth="yes"/>
      <point x="877.294" y="834"/>
      <point x="752.808" y="733.236"/>
      <point x="739" y="532" type="curve"/>
      <point x="751.869" y="494.326" type="line"/>
      <point x="704" y="832" type="line" smooth="yes"/>
      <point x="676.84" y="1023.59"/>
      <point x="593" y="1093.08"/>
      <point x="487" y="1116" type="curve"/>
      <point x="487" y="1126" type="line"/>
      <point x="305" y="1126" type="line"/>
      <point x="305" y="1118" type="line"/>
      <point x="541" y="1118"/>
      <point x="638" y="1037"/>
      <point x="669" y="829" type="curve" smooth="yes"/>
      <point x="749" y="299" type="line"/>
      <point x="727" y="113"/>
      <point x="649" y="11"/>
      <point x="463" y="11" type="curve" smooth="yes"/>
      <point x="277" y="11"/>
      <point x="181" y="116"/>
      <point x="181" y="331" type="curve" smooth="yes"/>
      <point x="181" y="448" type="line" smooth="yes"/>
      <point x="181" y="690"/>
      <point x="276" y="784"/>
      <point x="470" y="784" type="curve" smooth="yes"/>
      <point x="553.367" y="784"/>
      <point x="630.724" y="759.87"/>
      <point x="692" y="725" type="curve"/>
      <point x="692" y="747" type="line"/>
      <point x="681" y="744" type="line"/>
      <point x="663" y="772" type="line"/>
      <point x="602.388" y="802.333"/>
      <point x="531.653" y="816"/>
      <point x="465" y="816" type="curve" smooth="yes"/>
      <point x="253" y="816"/>
      <point x="145" y="710"/>
      <point x="145" y="450" type="curve" smooth="yes"/>
      <point x="145" y="330" type="line" smooth="yes"/>
      <point x="145" y="95"/>
      <point x="255" y="-22"/>
    </contour>
    <contour>
      <point x="1080" y="12" type="curve" smooth="yes"/>
      <point x="911" y="12"/>
      <point x="828" y="105"/>
      <point x="784" y="299" type="curve"/>
      <point x="756" y="485" type="line"/>
      <point x="767.848" y="696.364"/>
      <point x="880.38" y="801"/>
      <point x="1068" y="801" type="curve" smooth="yes"/>
      <point x="1253" y="801"/>
      <point x="1347" y="686"/>
      <point x="1347" y="472" type="curve" smooth="yes"/>
      <point x="1347" y="331" type="line" smooth="yes"/>
      <point x="1347" y="116"/>
      <point x="1254" y="12"/>
    </contour>
    <contour>
      <point x="1136" y="1118" type="line"/>
      <point x="1136" y="1150" type="line"/>
      <point x="134" y="1150" type="line"/>
      <point x="134" y="1118" type="line"/>
    </contour>
  </outline>
  <guideline angle="90" x="1208" y="0"/>
  <guideline angle="0" x="0" y="1709"/>
  <guideline angle="0" x="0" y="911"/>
</glyph>
<glyph name="JhaHalant.kn" format="2">
  <advance width="3066"/>
  <outline>
    <component base="Ra.kn"/>
    <component base="matraU.kn" xOffset="1228"/>
    <component base="Halant.kn" xOffset="2517"/>
    <contour>
      <point x="2288" y="660" type="curve" smooth="yes"/>
      <point x="2288" y="414" type="line" smooth="yes"/>
      <point x="2288" y="136.998"/>
      <point x="2190" y="12"/>
      <point x="1989" y="12" type="curve" smooth="yes"/>
      <point x="1798" y="12"/>
      <point x="1692" y="120"/>
      <point x="1692" y="332" type="curve" smooth="yes"/>
      <point x="1692" y="396" type="line"/>
      <point x="1668" y="396" type="line"/>
      <point x="1668" y="290" type="line"/>
      <point x="1676" y="96"/>
      <point x="1785" y="-22"/>
      <point x="1990" y="-22" type="curve" smooth="yes"/>
      <point x="2214" y="-22"/>
      <point x="2324" y="118.998"/>
      <point x="2324" y="415" type="curve" smooth="yes"/>
      <point x="2324" y="659" type="line" smooth="yes"/>
      <point x="2324" y="949.002"/>
      <point x="2219" y="1078"/>
      <point x="2060" y="1116" type="curve"/>
      <point x="2060" y="1138" type="line"/>
      <point x="1883" y="1138" type="line"/>
      <point x="1883" y="1118" type="line"/>
      <point x="2157" y="1118"/>
      <point x="2288" y="984.002"/>
    </contour>
    <contour>
      <point x="2098" y="1118" type="line"/>
      <point x="2098" y="1150" type="line"/>
      <point x="1839" y="1150" type="line"/>
      <point x="1839" y="1118" type="line"/>
    </contour>
    <contour>
      <point x="1669" y="-366" type="curve" smooth="yes"/>
      <point x="1687" y="-366"/>
      <point x="1694" y="-353"/>
      <point x="1694" y="-325" type="curve" smooth="yes"/>
      <point x="1694" y="-257" type="line" smooth="yes"/>
      <point x="1694" y="-109"/>
      <point x="1688" y="-10"/>
      <point x="1669" y="73" type="curve"/>
      <point x="1650" y="-10"/>
      <point x="1644" y="-109"/>
      <point x="1644" y="-257" type="curve" smooth="yes"/>
      <point x="1644" y="-325" type="line" smooth="yes"/>
      <point x="1644" y="-353"/>
      <point x="1651" y="-366"/>
    </contour>
    <contour>
      <point x="1040" y="336" type="line"/>
      <point x="1064" y="338" type="line"/>
      <point x="1064" y="451" type="line"/>
      <point x="1040" y="451" type="line"/>
    </contour>
  </outline>
  <guideline angle="90" x="1286" y="0"/>
  <guideline angle="0" x="0" y="-274"/>
  <guideline angle="90" x="-68" y="0"/>
  <guideline angle="90" x="-140" y="0"/>
  <guideline angle="90" x="314" y="0"/>
</glyph>
<glyph name="JhamatraE.kn" format="2">
  <advance width="2479"/>
  <outline>
    <component base="matraU.kn" xOffset="1862"/>
    <component base="matraU.kn" xOffset="1233"/>
    <component base="RamatraE.kn"/>
    <contour>
      <point x="1677" y="-366" type="curve" smooth="yes"/>
      <point x="1695" y="-366"/>
      <point x="1702" y="-353"/>
      <point x="1702" y="-325" type="curve" smooth="yes"/>
      <point x="1702" y="-257" type="line" smooth="yes"/>
      <point x="1702" y="-109"/>
      <point x="1696" y="-10"/>
      <point x="1677" y="73" type="curve"/>
      <point x="1658" y="-10"/>
      <point x="1652" y="-109"/>
      <point x="1652" y="-257" type="curve" smooth="yes"/>
      <point x="1652" y="-325" type="line" smooth="yes"/>
      <point x="1652" y="-353"/>
      <point x="1659" y="-366"/>
    </contour>
    <contour>
      <point x="1045" y="334" type="line"/>
      <point x="1069" y="336" type="line"/>
      <point x="1069" y="419" type="line"/>
      <point x="1045" y="419" type="line"/>
    </contour>
  </outline>
  <guideline angle="0" x="0" y="-274"/>
  <guideline angle="90" x="728" y="0"/>
  <guideline angle="90" x="656" y="0"/>
  <guideline angle="90" x="1110" y="0"/>
  <guideline angle="90" x="1064" y="0"/>
  <guideline angle="90" x="992" y="0"/>
  <guideline angle="90" x="1446" y="0"/>
  <guideline angle="90" x="931" y="0"/>
</glyph>
<glyph name="JhamatraUu.kn" format="2">
  <advance width="3151"/>
  <outline>
    <component base="Ra.kn"/>
    <component base="matraUu.kn" xOffset="1836" yOffset="-1"/>
    <component base="matraU.kn" xOffset="1226"/>
    <contour>
      <point x="1656" y="-366" type="curve" smooth="yes"/>
      <point x="1674" y="-366"/>
      <point x="1681" y="-353"/>
      <point x="1681" y="-325" type="curve" smooth="yes"/>
      <point x="1681" y="-257" type="line" smooth="yes"/>
      <point x="1681" y="-109"/>
      <point x="1675" y="-10"/>
      <point x="1656" y="73" type="curve"/>
      <point x="1637" y="-10"/>
      <point x="1631" y="-109"/>
      <point x="1631" y="-257" type="curve" smooth="yes"/>
      <point x="1631" y="-325" type="line" smooth="yes"/>
      <point x="1631" y="-353"/>
      <point x="1638" y="-366"/>
    </contour>
    <contour>
      <point x="1038" y="306" type="line"/>
      <point x="1062" y="308" type="line"/>
      <point x="1062" y="391" type="line"/>
      <point x="1038" y="391" type="line"/>
    </contour>
  </outline>
  <guideline angle="0" x="0" y="-349"/>
  <guideline angle="90" x="909" y="0"/>
  <guideline angle="0" x="0" y="1195"/>
</glyph>
<glyph name="KamatraI.kn" format="2">
  <advance width="1116"/>
  <outline>
    <contour>
      <point x="101" y="724" type="line"/>
      <point x="101" y="692" type="line"/>
      <point x="436" y="692" type="line"/>
      <point x="436" y="701" type="line"/>
      <point x="680" y="701" type="line"/>
      <point x="680" y="692" type="line"/>
      <point x="1015" y="692" type="line"/>
      <point x="1015" y="724" type="line"/>
    </contour>
    <contour>
      <point x="558" y="695" type="curve" smooth="yes"/>
      <point x="789" y="695"/>
      <point x="910" y="587"/>
      <point x="910" y="372" type="curve" smooth="yes"/>
      <point x="910" y="331" type="line" smooth="yes"/>
      <point x="910" y="115"/>
      <point x="789" y="9"/>
      <point x="558" y="9" type="curve" smooth="yes"/>
      <point x="327" y="9"/>
      <point x="206" y="115"/>
      <point x="206" y="331" type="curve" smooth="yes"/>
      <point x="206" y="372" type="line" smooth="yes"/>
      <point x="206" y="587"/>
      <point x="327" y="695"/>
    </contour>
    <contour>
      <point x="378" y="705" type="line"/>
      <point x="378" y="691" type="line"/>
      <point x="260" y="659"/>
      <point x="170" y="565"/>
      <point x="170" y="372" type="curve" smooth="yes"/>
      <point x="170" y="331" type="line" smooth="yes"/>
      <point x="170" y="94"/>
      <point x="305" y="-25"/>
      <point x="558" y="-25" type="curve" smooth="yes"/>
      <point x="811" y="-25"/>
      <point x="946" y="94"/>
      <point x="946" y="331" type="curve" smooth="yes"/>
      <point x="946" y="372" type="line" smooth="yes"/>
      <point x="946" y="565"/>
      <point x="856" y="659"/>
      <point x="738" y="691" type="curve"/>
      <point x="738" y="705" type="line"/>
    </contour>
    <contour>
      <point x="552" y="1391" type="curve" smooth="yes"/>
      <point x="390" y="1391"/>
      <point x="306" y="1311"/>
      <point x="306" y="1151" type="curve" smooth="yes"/>
      <point x="306" y="1134" type="line" smooth="yes"/>
      <point x="306" y="986"/>
      <point x="391" y="910"/>
      <point x="549" y="910" type="curve" smooth="yes"/>
      <point x="661" y="910"/>
      <point x="739" y="963"/>
      <point x="775" y="1035" type="curve"/>
      <point x="786" y="1035" type="line"/>
      <point x="780" y="1101" type="line"/>
      <point x="741" y="1002"/>
      <point x="664" y="944"/>
      <point x="549" y="944" type="curve" smooth="yes"/>
      <point x="416" y="944"/>
      <point x="342" y="1003"/>
      <point x="342" y="1134" type="curve" smooth="yes"/>
      <point x="342" y="1151" type="line" smooth="yes"/>
      <point x="342" y="1290"/>
      <point x="412" y="1357"/>
      <point x="552" y="1357" type="curve" smooth="yes"/>
      <point x="699" y="1357"/>
      <point x="776" y="1270"/>
      <point x="776" y="1106" type="curve" smooth="yes"/>
      <point x="776" y="1024" type="line" smooth="yes"/>
      <point x="776" y="825"/>
      <point x="693" y="724"/>
      <point x="525" y="724" type="curve"/>
      <point x="663" y="712" type="line"/>
      <point x="663" y="725" type="line"/>
      <point x="764" y="764"/>
      <point x="812" y="868"/>
      <point x="812" y="1020" type="curve" smooth="yes"/>
      <point x="812" y="1107" type="line" smooth="yes"/>
      <point x="812" y="1291"/>
      <point x="722" y="1391"/>
    </contour>
  </outline>
  <guideline angle="90" x="375" y="0"/>
</glyph>
<glyph name="KamatraO.kn" format="2">
  <advance width="2406"/>
  <outline>
    <component base="KamatraE.kn"/>
    <contour>
      <point x="1162" y="11" type="curve" smooth="yes"/>
      <point x="1014" y="11"/>
      <point x="944" y="103"/>
      <point x="944" y="286" type="curve"/>
      <point x="944" y="286"/>
      <point x="944" y="306"/>
      <point x="944" y="306" type="curve"/>
      <point x="918" y="306" type="line"/>
      <point x="918" y="279" type="line" smooth="yes"/>
      <point x="918" y="73"/>
      <point x="1001" y="-23"/>
      <point x="1162" y="-23" type="curve" smooth="yes"/>
      <point x="1322" y="-23"/>
      <point x="1413" y="80"/>
      <point x="1413" y="284" type="curve" smooth="yes"/>
      <point x="1413" y="527" type="line"/>
      <point x="1377" y="527" type="line"/>
      <point x="1377" y="284" type="line" smooth="yes"/>
      <point x="1377" y="100"/>
      <point x="1301" y="11"/>
    </contour>
    <contour>
      <point x="1817" y="1177" type="curve" smooth="yes"/>
      <point x="1528" y="1177"/>
      <point x="1377" y="1011"/>
      <point x="1377" y="678" type="curve" smooth="yes"/>
      <point x="1377" y="517" type="line"/>
      <point x="1413" y="517" type="line"/>
      <point x="1413" y="679" type="line" smooth="yes"/>
      <point x="1413" y="988"/>
      <point x="1551" y="1143"/>
      <point x="1817" y="1143" type="curve" smooth="yes"/>
      <point x="2083" y="1143"/>
      <point x="2221" y="988"/>
      <point x="2221" y="679" type="curve" smooth="yes"/>
      <point x="2221" y="495" type="line"/>
      <point x="2257" y="494" type="line"/>
      <point x="2257" y="678" type="line" smooth="yes"/>
      <point x="2257" y="1011"/>
      <point x="2106" y="1177"/>
    </contour>
    <contour>
      <point x="2257" y="499" type="line"/>
      <point x="2221" y="499" type="line"/>
      <point x="2221" y="359" type="line" smooth="yes"/>
      <point x="2221" y="112"/>
      <point x="2151" y="12"/>
      <point x="1984" y="12" type="curve" smooth="yes"/>
      <point x="1827" y="12"/>
      <point x="1750" y="104"/>
      <point x="1750" y="281" type="curve" smooth="yes"/>
      <point x="1750" y="352" type="line" smooth="yes"/>
      <point x="1750" y="534"/>
      <point x="1829" y="616"/>
      <point x="1975" y="616" type="curve" smooth="yes"/>
      <point x="2102" y="616"/>
      <point x="2187" y="552"/>
      <point x="2230" y="444" type="curve"/>
      <point x="2232" y="514" type="line"/>
      <point x="2220" y="514" type="line"/>
      <point x="2180" y="593"/>
      <point x="2095" y="650"/>
      <point x="1975" y="650" type="curve" smooth="yes"/>
      <point x="1803" y="650"/>
      <point x="1715" y="551"/>
      <point x="1715" y="352" type="curve" smooth="yes"/>
      <point x="1715" y="280" type="line" smooth="yes"/>
      <point x="1715" y="82"/>
      <point x="1807" y="-22"/>
      <point x="1984" y="-22" type="curve" smooth="yes"/>
      <point x="2175" y="-22"/>
      <point x="2257" y="89"/>
      <point x="2257" y="359" type="curve" smooth="yes"/>
    </contour>
  </outline>
</glyph>
<glyph name="KhamatraI.kn" format="2">
  <advance width="1575"/>
  <outline>
    <contour>
      <point x="1138" y="1387" type="curve" smooth="yes"/>
      <point x="968" y="1387"/>
      <point x="878" y="1297.98"/>
      <point x="878" y="1124" type="curve" smooth="yes"/>
      <point x="878" y="1099" type="line" smooth="yes"/>
      <point x="878" y="931.996"/>
      <point x="967" y="849"/>
      <point x="1137" y="849" type="curve" smooth="yes"/>
      <point x="1266" y="849"/>
      <point x="1347" y="919"/>
      <point x="1382" y="974" type="curve"/>
      <point x="1393" y="974" type="line"/>
      <point x="1391" y="1043" type="line"/>
      <point x="1353" y="962"/>
      <point x="1270" y="883"/>
      <point x="1137" y="883" type="curve" smooth="yes"/>
      <point x="995" y="883"/>
      <point x="914" y="949.93"/>
      <point x="914" y="1099" type="curve" smooth="yes"/>
      <point x="914" y="1124" type="line" smooth="yes"/>
      <point x="914" y="1277"/>
      <point x="991" y="1353"/>
      <point x="1138" y="1353" type="curve" smooth="yes"/>
      <point x="1356" y="1353"/>
      <point x="1383" y="1171.96"/>
      <point x="1383" y="996" type="curve"/>
      <point x="1383" y="995"/>
      <point x="1383" y="995"/>
      <point x="1383" y="994" type="curve"/>
      <point x="1383" y="993"/>
      <point x="1383" y="992"/>
      <point x="1383" y="991" type="curve"/>
      <point x="1383" y="990"/>
      <point x="1383" y="989"/>
      <point x="1383" y="988" type="curve"/>
      <point x="1383" y="976" type="line" smooth="yes"/>
      <point x="1383" y="959"/>
      <point x="1383" y="948"/>
      <point x="1383" y="931" type="curve" smooth="yes"/>
      <point x="1383" y="423" type="line" smooth="yes"/>
      <point x="1383" y="144"/>
      <point x="1285" y="12"/>
      <point x="1085" y="12" type="curve" smooth="yes"/>
      <point x="917" y="12"/>
      <point x="811" y="96"/>
      <point x="789" y="308" type="curve"/>
      <point x="789" y="351" type="line"/>
      <point x="766" y="351" type="line"/>
      <point x="766" y="281" type="line"/>
      <point x="788" y="66"/>
      <point x="903" y="-22"/>
      <point x="1086" y="-22" type="curve" smooth="yes"/>
      <point x="1309" y="-22"/>
      <point x="1419" y="124"/>
      <point x="1419" y="422" type="curve" smooth="yes"/>
      <point x="1419" y="931" type="line" smooth="yes"/>
      <point x="1419" y="959.632"/>
      <point x="1419.02" y="987.374"/>
      <point x="1419" y="1016" type="curve" smooth="yes"/>
      <point x="1418.85" y="1207.28"/>
      <point x="1372" y="1387"/>
    </contour>
    <contour>
      <point x="443" y="-22" type="curve" smooth="yes"/>
      <point x="667" y="-22"/>
      <point x="755" y="112"/>
      <point x="786" y="283" type="curve"/>
      <point x="779" y="284" type="line"/>
      <point x="787" y="281" type="line"/>
      <point x="797" y="339"/>
      <point x="800" y="436"/>
      <point x="800" y="506" type="curve" smooth="yes"/>
      <point x="800" y="738" type="line" smooth="yes"/>
      <point x="800" y="1040"/>
      <point x="694" y="1177"/>
      <point x="459" y="1177" type="curve" smooth="yes"/>
      <point x="257" y="1177"/>
      <point x="151" y="1072"/>
      <point x="151" y="875" type="curve" smooth="yes"/>
      <point x="151" y="858" type="line" smooth="yes"/>
      <point x="151" y="778"/>
      <point x="166" y="717"/>
      <point x="189" y="670" type="curve"/>
      <point x="227" y="670" type="line"/>
      <point x="203" y="718"/>
      <point x="187" y="779"/>
      <point x="187" y="859" type="curve" smooth="yes"/>
      <point x="187" y="875" type="line" smooth="yes"/>
      <point x="187" y="1050"/>
      <point x="282" y="1144"/>
      <point x="459" y="1144" type="curve" smooth="yes"/>
      <point x="669" y="1144"/>
      <point x="764" y="1018"/>
      <point x="764" y="738" type="curve" smooth="yes"/>
      <point x="764" y="507" type="line" smooth="yes"/>
      <point x="764" y="442"/>
      <point x="763" y="384"/>
      <point x="762" y="334" type="curve"/>
      <point x="762" y="333"/>
      <point x="760" y="320"/>
      <point x="760" y="319" type="curve"/>
      <point x="730" y="107"/>
      <point x="631" y="11"/>
      <point x="443" y="11" type="curve" smooth="yes"/>
      <point x="264" y="11"/>
      <point x="170" y="94"/>
      <point x="170" y="259" type="curve" smooth="yes"/>
      <point x="170" y="274" type="line" smooth="yes"/>
      <point x="170" y="441"/>
      <point x="261" y="525"/>
      <point x="436" y="525" type="curve" smooth="yes"/>
      <point x="600" y="525"/>
      <point x="710" y="443"/>
      <point x="762" y="288" type="curve"/>
      <point x="774" y="309" type="line"/>
      <point x="740" y="455"/>
      <point x="626" y="558"/>
      <point x="435" y="558" type="curve" smooth="yes"/>
      <point x="236" y="558"/>
      <point x="134" y="462"/>
      <point x="134" y="274" type="curve" smooth="yes"/>
      <point x="134" y="259" type="line" smooth="yes"/>
      <point x="134" y="72"/>
      <point x="240" y="-22"/>
    </contour>
  </outline>
  <guideline angle="90" x="277" y="0"/>
  <guideline angle="90" x="265" y="0"/>
  <guideline angle="0" x="0" y="219"/>
  <guideline angle="0" x="0" y="484"/>
</glyph>
<glyph name="Khasmall1.kn" format="2">
  <outline>
    <contour>
      <point x="-387" y="-740" type="curve" smooth="yes"/>
      <point x="-278" y="-740"/>
      <point x="-206" y="-691"/>
      <point x="-185" y="-594" type="curve"/>
      <point x="-201" y="-601" type="line"/>
      <point x="-183" y="-596" type="line"/>
      <point x="-175" y="-562"/>
      <point x="-171" y="-526"/>
      <point x="-171" y="-486" type="curve" smooth="yes"/>
      <point x="-171" y="-392" type="line" smooth="yes"/>
      <point x="-171" y="-238"/>
      <point x="-241" y="-158"/>
      <point x="-376" y="-158" type="curve" smooth="yes"/>
      <point x="-494" y="-158"/>
      <point x="-556" y="-215"/>
      <point x="-556" y="-321" type="curve" smooth="yes"/>
      <point x="-556" y="-324" type="line" smooth="yes"/>
      <point x="-556" y="-356"/>
      <point x="-551" y="-384"/>
      <point x="-540" y="-405" type="curve"/>
      <point x="-506" y="-405" type="line"/>
      <point x="-516" y="-383"/>
      <point x="-522" y="-357"/>
      <point x="-522" y="-325" type="curve" smooth="yes"/>
      <point x="-522" y="-322" type="line" smooth="yes"/>
      <point x="-522" y="-237"/>
      <point x="-471" y="-190"/>
      <point x="-376" y="-190" type="curve" smooth="yes"/>
      <point x="-263" y="-190"/>
      <point x="-205" y="-259"/>
      <point x="-205" y="-392" type="curve" smooth="yes"/>
      <point x="-205" y="-486" type="line" smooth="yes"/>
      <point x="-205" y="-514"/>
      <point x="-207" y="-542"/>
      <point x="-211" y="-566" type="curve"/>
      <point x="-211" y="-568"/>
      <point x="-212" y="-573"/>
      <point x="-212" y="-575" type="curve"/>
      <point x="-229" y="-654"/>
      <point x="-274" y="-708"/>
      <point x="-386" y="-708" type="curve" smooth="yes"/>
      <point x="-482" y="-708"/>
      <point x="-532" y="-669"/>
      <point x="-532" y="-595" type="curve" smooth="yes"/>
      <point x="-532" y="-590" type="line" smooth="yes"/>
      <point x="-532" y="-512"/>
      <point x="-487" y="-475"/>
      <point x="-393" y="-475" type="curve" smooth="yes"/>
      <point x="-307" y="-475"/>
      <point x="-242" y="-517"/>
      <point x="-209" y="-598" type="curve"/>
      <point x="-195" y="-579" type="line"/>
      <point x="-219" y="-500"/>
      <point x="-289" y="-443"/>
      <point x="-396" y="-443" type="curve" smooth="yes"/>
      <point x="-508" y="-443"/>
      <point x="-566" y="-493"/>
      <point x="-566" y="-590" type="curve" smooth="yes"/>
      <point x="-566" y="-595" type="line" smooth="yes"/>
      <point x="-566" y="-690"/>
      <point x="-505" y="-740"/>
    </contour>
    <contour>
      <point x="-46" y="-165" type="curve" smooth="yes"/>
      <point x="-56" y="-165"/>
      <point x="-63" y="-165"/>
      <point x="-74" y="-166" type="curve"/>
      <point x="-74" y="-197" type="line"/>
      <point x="-64" y="-196"/>
      <point x="-57" y="-196"/>
      <point x="-48" y="-196" type="curve" smooth="yes"/>
      <point x="58" y="-196"/>
      <point x="110" y="-260"/>
      <point x="110" y="-407" type="curve" smooth="yes"/>
      <point x="110" y="-527" type="line" smooth="yes"/>
      <point x="110" y="-648"/>
      <point x="61" y="-708"/>
      <point x="-34" y="-708" type="curve" smooth="yes"/>
      <point x="-114" y="-708"/>
      <point x="-167" y="-669"/>
      <point x="-182" y="-585" type="curve"/>
      <point x="-182" y="-566" type="line"/>
      <point x="-203" y="-570" type="line"/>
      <point x="-203" y="-603" type="line"/>
      <point x="-187" y="-693"/>
      <point x="-128" y="-740"/>
      <point x="-32" y="-740" type="curve" smooth="yes"/>
      <point x="86" y="-740"/>
      <point x="144" y="-667"/>
      <point x="144" y="-527" type="curve" smooth="yes"/>
      <point x="144" y="-407" type="line" smooth="yes"/>
      <point x="144" y="-239"/>
      <point x="82" y="-165"/>
    </contour>
  </outline>
  <guideline angle="90" x="44" y="0"/>
</glyph>
<glyph name="LamatraI.kn" format="2">
  <advance width="1373"/>
  <outline>
    <contour>
      <point x="1223" y="525" type="curve" smooth="yes"/>
      <point x="1223" y="905" type="line" smooth="yes"/>
      <point x="1223" y="933.632"/>
      <point x="1223.02" y="961.374"/>
      <point x="1223" y="990" type="curve" smooth="yes"/>
      <point x="1222.85" y="1181.28"/>
      <point x="1176" y="1361"/>
      <point x="942" y="1361" type="curve" smooth="yes"/>
      <point x="772" y="1361"/>
      <point x="682" y="1271.98"/>
      <point x="682" y="1098" type="curve" smooth="yes"/>
      <point x="682" y="1073" type="line" smooth="yes"/>
      <point x="682" y="905.996"/>
      <point x="771" y="823"/>
      <point x="941" y="823" type="curve" smooth="yes"/>
      <point x="1070" y="823"/>
      <point x="1151" y="893"/>
      <point x="1186" y="948" type="curve"/>
      <point x="1197" y="948" type="line"/>
      <point x="1195" y="1017" type="line"/>
      <point x="1157" y="936"/>
      <point x="1074" y="857"/>
      <point x="941" y="857" type="curve" smooth="yes"/>
      <point x="799" y="857"/>
      <point x="718" y="923.93"/>
      <point x="718" y="1073" type="curve" smooth="yes"/>
      <point x="718" y="1098" type="line" smooth="yes"/>
      <point x="718" y="1251"/>
      <point x="795" y="1327"/>
      <point x="942" y="1327" type="curve" smooth="yes"/>
      <point x="1160" y="1327"/>
      <point x="1187" y="1145.96"/>
      <point x="1187" y="970" type="curve"/>
      <point x="1187" y="969"/>
      <point x="1187" y="969"/>
      <point x="1187" y="968" type="curve"/>
      <point x="1187" y="967"/>
      <point x="1187" y="966"/>
      <point x="1187" y="965" type="curve"/>
      <point x="1187" y="964"/>
      <point x="1187" y="963"/>
      <point x="1187" y="962" type="curve"/>
      <point x="1187" y="950" type="line" smooth="yes"/>
      <point x="1187" y="933"/>
      <point x="1187" y="922"/>
      <point x="1187" y="905" type="curve" smooth="yes"/>
      <point x="1187" y="526" type="line" smooth="yes"/>
      <point x="1187" y="184"/>
      <point x="1018" y="10"/>
      <point x="689" y="10" type="curve" smooth="yes"/>
      <point x="354" y="10"/>
      <point x="181" y="182"/>
      <point x="181" y="516" type="curve" smooth="yes"/>
      <point x="181" y="638" type="line"/>
      <point x="145" y="639" type="line"/>
      <point x="145" y="515" type="line" smooth="yes"/>
      <point x="145" y="161"/>
      <point x="332" y="-24"/>
      <point x="689" y="-24" type="curve" smooth="yes"/>
      <point x="1039" y="-24"/>
      <point x="1223" y="162"/>
    </contour>
    <contour>
      <point x="181" y="633" type="line"/>
      <point x="181" y="777" type="line" smooth="yes"/>
      <point x="181" y="1038"/>
      <point x="258" y="1143"/>
      <point x="435" y="1143" type="curve" smooth="yes"/>
      <point x="594" y="1143"/>
      <point x="672" y="1048"/>
      <point x="672" y="863" type="curve" smooth="yes"/>
      <point x="672" y="812" type="line" smooth="yes"/>
      <point x="672" y="625"/>
      <point x="596" y="541"/>
      <point x="456" y="541" type="curve" smooth="yes"/>
      <point x="314" y="541"/>
      <point x="220" y="609"/>
      <point x="172" y="723" type="curve"/>
      <point x="170" y="653" type="line"/>
      <point x="182" y="653" type="line"/>
      <point x="227" y="568"/>
      <point x="321" y="507"/>
      <point x="456" y="507" type="curve" smooth="yes"/>
      <point x="622" y="507"/>
      <point x="708" y="609"/>
      <point x="708" y="812" type="curve" smooth="yes"/>
      <point x="708" y="864" type="line" smooth="yes"/>
      <point x="708" y="1070"/>
      <point x="615" y="1177"/>
      <point x="436" y="1177" type="curve" smooth="yes"/>
      <point x="235" y="1177"/>
      <point x="145" y="1060"/>
      <point x="145" y="777" type="curve" smooth="yes"/>
      <point x="145" y="633" type="line"/>
    </contour>
  </outline>
</glyph>
<glyph name="LamatraO.kn" format="2">
  <advance width="2675"/>
  <outline>
    <component base="LamatraE.kn"/>
    <contour>
      <point x="1646" y="527" type="line"/>
      <point x="1646" y="284" type="line" smooth="yes"/>
      <point x="1646" y="101"/>
      <point x="1573" y="12"/>
      <point x="1434" y="12" type="curve" smooth="yes"/>
      <point x="1286" y="12"/>
      <point x="1213" y="104"/>
      <point x="1213" y="286" type="curve" smooth="yes"/>
      <point x="1213" y="389" type="line"/>
      <point x="1184" y="389" type="line"/>
      <point x="1184" y="283" type="line" smooth="yes"/>
      <point x="1184" y="75"/>
      <point x="1271" y="-22"/>
      <point x="1434" y="-22" type="curve" smooth="yes"/>
      <point x="1594" y="-22"/>
      <point x="1682" y="81"/>
      <point x="1682" y="284" type="curve" smooth="yes"/>
      <point x="1682" y="527" type="line"/>
    </contour>
    <contour>
      <point x="2086" y="1177" type="curve" smooth="yes"/>
      <point x="1797" y="1177"/>
      <point x="1646" y="1011"/>
      <point x="1646" y="678" type="curve" smooth="yes"/>
      <point x="1646" y="517" type="line"/>
      <point x="1682" y="517" type="line"/>
      <point x="1682" y="679" type="line" smooth="yes"/>
      <point x="1682" y="988"/>
      <point x="1820" y="1143"/>
      <point x="2086" y="1143" type="curve" smooth="yes"/>
      <point x="2352" y="1143"/>
      <point x="2490" y="988"/>
      <point x="2490" y="679" type="curve" smooth="yes"/>
      <point x="2490" y="495" type="line"/>
      <point x="2526" y="494" type="line"/>
      <point x="2526" y="678" type="line" smooth="yes"/>
      <point x="2526" y="1011"/>
      <point x="2375" y="1177"/>
    </contour>
    <contour>
      <point x="2526" y="499" type="line"/>
      <point x="2490" y="499" type="line"/>
      <point x="2490" y="359" type="line" smooth="yes"/>
      <point x="2490" y="112"/>
      <point x="2420" y="12"/>
      <point x="2253" y="12" type="curve" smooth="yes"/>
      <point x="2096" y="12"/>
      <point x="2019" y="104"/>
      <point x="2019" y="281" type="curve" smooth="yes"/>
      <point x="2019" y="352" type="line" smooth="yes"/>
      <point x="2019" y="534"/>
      <point x="2098" y="616"/>
      <point x="2244" y="616" type="curve" smooth="yes"/>
      <point x="2371" y="616"/>
      <point x="2456" y="552"/>
      <point x="2499" y="444" type="curve"/>
      <point x="2501" y="514" type="line"/>
      <point x="2489" y="514" type="line"/>
      <point x="2449" y="593"/>
      <point x="2364" y="650"/>
      <point x="2244" y="650" type="curve" smooth="yes"/>
      <point x="2072" y="650"/>
      <point x="1984" y="551"/>
      <point x="1984" y="352" type="curve" smooth="yes"/>
      <point x="1984" y="280" type="line" smooth="yes"/>
      <point x="1984" y="82"/>
      <point x="2076" y="-22"/>
      <point x="2253" y="-22" type="curve" smooth="yes"/>
      <point x="2444" y="-22"/>
      <point x="2526" y="89"/>
      <point x="2526" y="359" type="curve" smooth="yes"/>
    </contour>
  </outline>
</glyph>
<glyph name="Lasmall1.kn.1" format="2">
  <outline>
    <contour>
      <point x="-303" y="-530" type="line"/>
      <point x="-301" y="-379" type="line" smooth="yes"/>
      <point x="-299.437" y="-260.993"/>
      <point x="-249" y="-200"/>
      <point x="-145" y="-200" type="curve" smooth="yes"/>
      <point x="-35" y="-200"/>
      <point x="13" y="-260"/>
      <point x="13" y="-383" type="curve" smooth="yes"/>
      <point x="13" y="-400" type="line" smooth="yes"/>
      <point x="13" y="-502"/>
      <point x="-14" y="-570"/>
      <point x="-56" y="-632" type="curve"/>
      <point x="-18" y="-632" type="line"/>
      <point x="24" y="-575"/>
      <point x="48" y="-503"/>
      <point x="48" y="-400" type="curve" smooth="yes"/>
      <point x="48" y="-383" type="line" smooth="yes"/>
      <point x="48" y="-239"/>
      <point x="-13" y="-167"/>
      <point x="-143" y="-167" type="curve" smooth="yes"/>
      <point x="-245" y="-167"/>
      <point x="-306" y="-220"/>
      <point x="-318" y="-307" type="curve"/>
      <point x="-320" y="-307" type="line"/>
      <point x="-333" y="-220"/>
      <point x="-393" y="-167"/>
      <point x="-495" y="-167" type="curve" smooth="yes"/>
      <point x="-624" y="-167"/>
      <point x="-686" y="-239"/>
      <point x="-686" y="-383" type="curve" smooth="yes"/>
      <point x="-686" y="-401" type="line" smooth="yes"/>
      <point x="-686" y="-504"/>
      <point x="-662" y="-575"/>
      <point x="-620" y="-632" type="curve"/>
      <point x="-582" y="-632" type="line"/>
      <point x="-625" y="-571"/>
      <point x="-651" y="-503"/>
      <point x="-651" y="-401" type="curve" smooth="yes"/>
      <point x="-651" y="-383" type="line" smooth="yes"/>
      <point x="-651" y="-260"/>
      <point x="-602" y="-200"/>
      <point x="-493" y="-200" type="curve" smooth="yes"/>
      <point x="-390" y="-200"/>
      <point x="-338.563" y="-260.993"/>
      <point x="-337" y="-379" type="curve" smooth="yes"/>
      <point x="-335" y="-530" type="line"/>
    </contour>
  </outline>
  <guideline angle="0" x="0" y="-439"/>
  <guideline angle="90" x="255" y="0"/>
</glyph>
<glyph name="LlaHalant.kn" format="2">
  <advance width="1952"/>
  <outline>
    <component base="Halant.kn" xOffset="1403"/>
    <contour>
      <point x="971" y="1118" type="line"/>
      <point x="971" y="1150" type="line"/>
      <point x="777" y="1150" type="line"/>
      <point x="777" y="1118" type="line"/>
    </contour>
    <contour>
      <point x="654" y="410" type="curve" smooth="yes"/>
      <point x="827" y="410"/>
      <point x="923" y="346"/>
      <point x="923" y="214" type="curve" smooth="yes"/>
      <point x="923" y="201" type="line" smooth="yes"/>
      <point x="923" y="69"/>
      <point x="827" y="6"/>
      <point x="654" y="6" type="curve" smooth="yes"/>
      <point x="483" y="6"/>
      <point x="386" y="69"/>
      <point x="386" y="201" type="curve" smooth="yes"/>
      <point x="386" y="214" type="line" smooth="yes"/>
      <point x="386" y="346"/>
      <point x="483" y="410"/>
    </contour>
    <contour>
      <point x="654" y="432" type="line"/>
      <point x="568" y="425" type="line" smooth="yes"/>
      <point x="427" y="414"/>
      <point x="350" y="338"/>
      <point x="350" y="213" type="curve" smooth="yes"/>
      <point x="350" y="200" type="line" smooth="yes"/>
      <point x="350" y="48"/>
      <point x="461" y="-28"/>
      <point x="654" y="-28" type="curve" smooth="yes"/>
      <point x="847" y="-28"/>
      <point x="959" y="48"/>
      <point x="959" y="200" type="curve" smooth="yes"/>
      <point x="959" y="213" type="line" smooth="yes"/>
      <point x="959" y="338"/>
      <point x="881" y="414"/>
      <point x="740" y="425" type="curve" smooth="yes"/>
    </contour>
    <contour>
      <point x="140" y="808" type="line"/>
      <point x="140" y="848" type="line" smooth="yes"/>
      <point x="140" y="1047"/>
      <point x="213" y="1143"/>
      <point x="382" y="1143" type="curve" smooth="yes"/>
      <point x="533" y="1143"/>
      <point x="607" y="1062"/>
      <point x="607" y="914" type="curve" smooth="yes"/>
      <point x="607" y="891" type="line" smooth="yes"/>
      <point x="607" y="746"/>
      <point x="533" y="676"/>
      <point x="399" y="676" type="curve" smooth="yes"/>
      <point x="265" y="676"/>
      <point x="176" y="741"/>
      <point x="131" y="851" type="curve"/>
      <point x="129" y="781" type="line"/>
      <point x="141" y="781" type="line"/>
      <point x="183" y="700"/>
      <point x="272" y="642"/>
      <point x="399" y="642" type="curve" smooth="yes"/>
      <point x="560" y="642"/>
      <point x="643" y="728"/>
      <point x="643" y="891" type="curve" smooth="yes"/>
      <point x="643" y="914" type="line" smooth="yes"/>
      <point x="643" y="1084"/>
      <point x="554" y="1177"/>
      <point x="383" y="1177" type="curve" smooth="yes"/>
      <point x="191" y="1177"/>
      <point x="104" y="1067"/>
      <point x="104" y="848" type="curve" smooth="yes"/>
      <point x="104" y="808" type="line"/>
    </contour>
    <contour>
      <point x="104" y="815" type="line"/>
      <point x="104" y="800" type="line" smooth="yes"/>
      <point x="104" y="558"/>
      <point x="269" y="423"/>
      <point x="590" y="413" type="curve"/>
      <point x="652" y="423" type="line"/>
      <point x="698" y="413" type="line"/>
      <point x="1011" y="422"/>
      <point x="1179" y="559"/>
      <point x="1179" y="787" type="curve" smooth="yes"/>
      <point x="1179" y="808" type="line" smooth="yes"/>
      <point x="1179" y="991"/>
      <point x="1090" y="1092"/>
      <point x="967" y="1117" type="curve"/>
      <point x="967" y="1134" type="line"/>
      <point x="786" y="1135" type="line"/>
      <point x="785" y="1118" type="line"/>
      <point x="1024" y="1118"/>
      <point x="1143" y="1012"/>
      <point x="1143" y="809" type="curve" smooth="yes"/>
      <point x="1143" y="787" type="line" smooth="yes"/>
      <point x="1143" y="565"/>
      <point x="974" y="440"/>
      <point x="651" y="440" type="curve" smooth="yes"/>
      <point x="303" y="440"/>
      <point x="140" y="565"/>
      <point x="140" y="801" type="curve" smooth="yes"/>
      <point x="140" y="815" type="line"/>
    </contour>
  </outline>
  <guideline angle="90" x="1132" y="0"/>
  <guideline angle="0" x="0" y="454"/>
</glyph>
<glyph name="LllaObsoletematraAa.kn" format="2">
  <advance width="2803"/>
  <outline>
    <component base="matraAa.kn" xOffset="1320"/>
    <component base="LllaObsolete.kn"/>
    <contour>
      <point x="1986" y="851" type="line" smooth="yes"/>
      <point x="1986" y="1005"/>
      <point x="1928" y="1090"/>
      <point x="1826" y="1116" type="curve"/>
      <point x="1826" y="1138" type="line"/>
      <point x="1664" y="1138" type="line"/>
      <point x="1664" y="1118" type="line"/>
      <point x="1860" y="1118"/>
      <point x="1950" y="1034"/>
      <point x="1950" y="852" type="curve" smooth="yes"/>
      <point x="1950" y="805" type="line" smooth="yes"/>
      <point x="1950" y="651"/>
      <point x="1871" y="574"/>
      <point x="1717" y="574" type="curve" smooth="yes"/>
      <point x="1602" y="574"/>
      <point x="1513" y="611"/>
      <point x="1459" y="675" type="curve"/>
      <point x="1446" y="646" type="line"/>
      <point x="1509" y="577"/>
      <point x="1599" y="541"/>
      <point x="1717" y="541" type="curve" smooth="yes"/>
      <point x="1893" y="541"/>
      <point x="1986" y="630"/>
      <point x="1986" y="804" type="curve" smooth="yes"/>
    </contour>
    <contour>
      <point x="1823" y="1118" type="line"/>
      <point x="1823" y="1150" type="line"/>
      <point x="1603" y="1150" type="line"/>
      <point x="1603" y="1118" type="line"/>
    </contour>
  </outline>
  <guideline angle="0" x="0" y="537"/>
  <guideline angle="90" x="1167" y="0"/>
  <guideline angle="90" x="890" y="0"/>
</glyph>
<glyph name="LllaObsoletesmall1.kn" format="2">
  <outline>
    <contour>
      <point x="-561" y="-398" type="line"/>
      <point x="-527" y="-400" type="line"/>
      <point x="-527" y="-354" type="line" smooth="yes"/>
      <point x="-527" y="-247"/>
      <point x="-488" y="-190"/>
      <point x="-394" y="-190" type="curve" smooth="yes"/>
      <point x="-318" y="-190"/>
      <point x="-275" y="-234"/>
      <point x="-275" y="-318" type="curve" smooth="yes"/>
      <point x="-275" y="-333" type="line" smooth="yes"/>
      <point x="-275" y="-409"/>
      <point x="-316" y="-448"/>
      <point x="-389" y="-448" type="curve" smooth="yes"/>
      <point x="-459" y="-448"/>
      <point x="-506" y="-420"/>
      <point x="-530" y="-372" type="curve"/>
      <point x="-537" y="-420" type="line"/>
      <point x="-526" y="-420" type="line"/>
      <point x="-501" y="-454"/>
      <point x="-454" y="-480"/>
      <point x="-386" y="-480" type="curve" smooth="yes"/>
      <point x="-292" y="-480"/>
      <point x="-241" y="-428"/>
      <point x="-241" y="-333" type="curve" smooth="yes"/>
      <point x="-241" y="-318" type="line" smooth="yes"/>
      <point x="-241" y="-215"/>
      <point x="-297" y="-158"/>
      <point x="-394" y="-158" type="curve" smooth="yes"/>
      <point x="-511" y="-158"/>
      <point x="-561" y="-227"/>
      <point x="-561" y="-354" type="curve" smooth="yes"/>
    </contour>
    <contour>
      <point x="-561" y="-521" type="line" smooth="yes"/>
      <point x="-561" y="-664"/>
      <point x="-492" y="-740"/>
      <point x="-364" y="-740" type="curve" smooth="yes"/>
      <point x="-266" y="-740"/>
      <point x="-202" y="-696"/>
      <point x="-190" y="-605" type="curve"/>
      <point x="-189" y="-605" type="line"/>
      <point x="-177" y="-696"/>
      <point x="-113" y="-740"/>
      <point x="-15" y="-740" type="curve" smooth="yes"/>
      <point x="113" y="-740"/>
      <point x="182" y="-664"/>
      <point x="182" y="-521" type="curve" smooth="yes"/>
      <point x="182" y="-397" type="line"/>
      <point x="148" y="-399" type="line"/>
      <point x="148" y="-521" type="line" smooth="yes"/>
      <point x="148" y="-644"/>
      <point x="91" y="-708"/>
      <point x="-16" y="-708" type="curve" smooth="yes"/>
      <point x="-114" y="-708"/>
      <point x="-169" y="-659"/>
      <point x="-172" y="-547" type="curve" smooth="yes"/>
      <point x="-173" y="-509" type="line"/>
      <point x="-206" y="-509" type="line"/>
      <point x="-207" y="-547" type="line" smooth="yes"/>
      <point x="-210" y="-659"/>
      <point x="-265" y="-708"/>
      <point x="-363" y="-708" type="curve" smooth="yes"/>
      <point x="-470" y="-708"/>
      <point x="-527" y="-644"/>
      <point x="-527" y="-521" type="curve" smooth="yes"/>
      <point x="-527" y="-399" type="line"/>
      <point x="-561" y="-397" type="line"/>
    </contour>
    <contour>
      <point x="182" y="-398" type="line"/>
      <point x="182" y="-354" type="line" smooth="yes"/>
      <point x="182" y="-227"/>
      <point x="132" y="-158"/>
      <point x="15" y="-158" type="curve" smooth="yes"/>
      <point x="-82" y="-158"/>
      <point x="-138" y="-215"/>
      <point x="-138" y="-318" type="curve" smooth="yes"/>
      <point x="-138" y="-333" type="line" smooth="yes"/>
      <point x="-138" y="-428"/>
      <point x="-85.6463" y="-480"/>
      <point x="10" y="-480" type="curve" smooth="yes"/>
      <point x="76.5145" y="-480"/>
      <point x="123.174" y="-454"/>
      <point x="147" y="-420" type="curve"/>
      <point x="158" y="-420" type="line"/>
      <point x="151" y="-372" type="line"/>
      <point x="128" y="-420"/>
      <point x="81" y="-448"/>
      <point x="12" y="-448" type="curve" smooth="yes"/>
      <point x="-62" y="-448"/>
      <point x="-104" y="-409"/>
      <point x="-104" y="-333" type="curve" smooth="yes"/>
      <point x="-104" y="-318" type="line" smooth="yes"/>
      <point x="-104" y="-234"/>
      <point x="-61" y="-190"/>
      <point x="15" y="-190" type="curve" smooth="yes"/>
      <point x="109" y="-190"/>
      <point x="148" y="-247"/>
      <point x="148" y="-354" type="curve" smooth="yes"/>
      <point x="148" y="-400" type="line"/>
    </contour>
  </outline>
</glyph>
<glyph name="MamatraAa.kn" format="2">
  <advance width="2895"/>
  <outline>
    <component base="matraAa.kn" xOffset="1412"/>
    <component base="Va.kn"/>
    <contour>
      <point x="1902" y="660" type="curve" smooth="yes"/>
      <point x="1902" y="414" type="line" smooth="yes"/>
      <point x="1902" y="136.998"/>
      <point x="1804" y="12"/>
      <point x="1603" y="12" type="curve" smooth="yes"/>
      <point x="1412" y="12"/>
      <point x="1306" y="120"/>
      <point x="1306" y="332" type="curve" smooth="yes"/>
      <point x="1306" y="396" type="line"/>
      <point x="1282" y="396" type="line"/>
      <point x="1282" y="290" type="line"/>
      <point x="1290" y="96"/>
      <point x="1399" y="-22"/>
      <point x="1604" y="-22" type="curve" smooth="yes"/>
      <point x="1828" y="-22"/>
      <point x="1938" y="118.998"/>
      <point x="1938" y="415" type="curve" smooth="yes"/>
      <point x="1938" y="659" type="line" smooth="yes"/>
      <point x="1938" y="949.002"/>
      <point x="1833" y="1078"/>
      <point x="1674" y="1116" type="curve"/>
      <point x="1674" y="1138" type="line"/>
      <point x="1497" y="1138" type="line"/>
      <point x="1497" y="1118" type="line"/>
      <point x="1771" y="1118"/>
      <point x="1902" y="984.002"/>
    </contour>
    <contour>
      <point x="1712" y="1118" type="line"/>
      <point x="1712" y="1150" type="line"/>
      <point x="1453" y="1150" type="line"/>
      <point x="1453" y="1118" type="line"/>
    </contour>
  </outline>
  <guideline angle="90" x="1099" y="0"/>
</glyph>
<glyph name="NaHalant.kn" format="2">
  <advance width="1935"/>
  <outline>
    <component base="Halant.kn" xOffset="1386"/>
    <contour>
      <point x="932" y="-22" type="curve" smooth="yes"/>
      <point x="1107" y="-22"/>
      <point x="1200" y="99"/>
      <point x="1200" y="335" type="curve" smooth="yes"/>
      <point x="1200" y="484" type="line" smooth="yes"/>
      <point x="1200" y="901"/>
      <point x="1028" y="1074"/>
      <point x="726" y="1116" type="curve"/>
      <point x="726" y="1138" type="line"/>
      <point x="452" y="1138" type="line"/>
      <point x="452" y="1118" type="line"/>
      <point x="947" y="1118"/>
      <point x="1164" y="952"/>
      <point x="1164" y="484" type="curve" smooth="yes"/>
      <point x="1164" y="336" type="line" smooth="yes"/>
      <point x="1164" y="121"/>
      <point x="1084" y="12"/>
      <point x="933" y="12" type="curve" smooth="yes"/>
      <point x="797" y="12"/>
      <point x="709" y="90"/>
      <point x="678" y="269" type="curve" smooth="yes"/>
      <point x="652" y="420" type="line" smooth="yes"/>
      <point x="617" y="618"/>
      <point x="532" y="691"/>
      <point x="390" y="691" type="curve" smooth="yes"/>
      <point x="227" y="691"/>
      <point x="142" y="590"/>
      <point x="142" y="386" type="curve" smooth="yes"/>
      <point x="142" y="334" type="line" smooth="yes"/>
      <point x="142" y="192"/>
      <point x="169" y="77"/>
      <point x="220" y="-16" type="curve"/>
      <point x="262" y="-16" type="line"/>
      <point x="209" y="73"/>
      <point x="178" y="190"/>
      <point x="178" y="333" type="curve" smooth="yes"/>
      <point x="178" y="387" type="line" smooth="yes"/>
      <point x="178" y="568"/>
      <point x="251" y="658"/>
      <point x="389" y="658" type="curve" smooth="yes"/>
      <point x="515" y="658"/>
      <point x="587" y="591"/>
      <point x="618" y="413" type="curve" smooth="yes"/>
      <point x="645" y="261" type="line" smooth="yes"/>
      <point x="680" y="64"/>
      <point x="774" y="-22"/>
    </contour>
    <contour>
      <point x="937" y="1118" type="line"/>
      <point x="937" y="1150" type="line"/>
      <point x="163" y="1150" type="line"/>
      <point x="163" y="1118" type="line"/>
    </contour>
  </outline>
  <guideline angle="90" x="1130" y="0"/>
  <guideline angle="0" x="0" y="955"/>
</glyph>
<glyph name="NgamatraO.kn" format="2">
  <advance width="3090"/>
  <outline>
    <component base="NgamatraE.kn"/>
    <contour>
      <point x="2061" y="678" type="curve" smooth="yes"/>
      <point x="2061" y="442" type="line" smooth="yes"/>
      <point x="2061" y="153"/>
      <point x="1955" y="9"/>
      <point x="1703" y="9" type="curve" smooth="yes"/>
      <point x="1445" y="9"/>
      <point x="1339" y="152"/>
      <point x="1329" y="324" type="curve"/>
      <point x="1308" y="309" type="line"/>
      <point x="1315" y="122"/>
      <point x="1432" y="-25"/>
      <point x="1703" y="-25" type="curve" smooth="yes"/>
      <point x="1983" y="-25"/>
      <point x="2097" y="138"/>
      <point x="2097" y="439" type="curve" smooth="yes"/>
      <point x="2097" y="679" type="line" smooth="yes"/>
      <point x="2097" y="988"/>
      <point x="2235" y="1143"/>
      <point x="2501" y="1143" type="curve" smooth="yes"/>
      <point x="2767" y="1143"/>
      <point x="2905" y="988"/>
      <point x="2905" y="679" type="curve" smooth="yes"/>
      <point x="2905" y="495" type="line"/>
      <point x="2941" y="494" type="line"/>
      <point x="2941" y="678" type="line" smooth="yes"/>
      <point x="2941" y="1011"/>
      <point x="2790" y="1177"/>
      <point x="2501" y="1177" type="curve" smooth="yes"/>
      <point x="2212" y="1177"/>
      <point x="2061" y="1011"/>
    </contour>
    <contour>
      <point x="2941" y="499" type="line"/>
      <point x="2905" y="499" type="line"/>
      <point x="2905" y="359" type="line" smooth="yes"/>
      <point x="2905" y="112"/>
      <point x="2831" y="12"/>
      <point x="2665" y="12" type="curve" smooth="yes"/>
      <point x="2510" y="12"/>
      <point x="2434" y="104"/>
      <point x="2434" y="281" type="curve" smooth="yes"/>
      <point x="2434" y="352" type="line" smooth="yes"/>
      <point x="2434" y="535"/>
      <point x="2513" y="617"/>
      <point x="2659" y="617" type="curve" smooth="yes"/>
      <point x="2786" y="617"/>
      <point x="2871" y="553"/>
      <point x="2914" y="445" type="curve"/>
      <point x="2916" y="514" type="line"/>
      <point x="2904" y="514" type="line"/>
      <point x="2864" y="593"/>
      <point x="2779" y="650"/>
      <point x="2659" y="650" type="curve" smooth="yes"/>
      <point x="2487" y="650"/>
      <point x="2399" y="551"/>
      <point x="2399" y="352" type="curve" smooth="yes"/>
      <point x="2399" y="280" type="line" smooth="yes"/>
      <point x="2399" y="82"/>
      <point x="2490" y="-22"/>
      <point x="2665" y="-22" type="curve" smooth="yes"/>
      <point x="2855" y="-22"/>
      <point x="2941" y="89"/>
      <point x="2941" y="359" type="curve" smooth="yes"/>
    </contour>
  </outline>
  <guideline angle="0" x="0" y="-14"/>
</glyph>
<glyph name="PamatraE.kn" format="2">
  <advance width="1457"/>
  <outline>
    <component base="matraE.kn" xOffset="761"/>
    <contour>
      <point x="370" y="672" type="curve" smooth="yes"/>
      <point x="213" y="672"/>
      <point x="133" y="571"/>
      <point x="133" y="379" type="curve" smooth="yes"/>
      <point x="133" y="305" type="line" smooth="yes"/>
      <point x="133" y="88"/>
      <point x="237" y="-22"/>
      <point x="435" y="-22" type="curve" smooth="yes"/>
      <point x="622" y="-22"/>
      <point x="717" y="74"/>
      <point x="730" y="234" type="curve"/>
      <point x="732" y="234" type="line"/>
      <point x="745" y="74"/>
      <point x="838" y="-22"/>
      <point x="1021" y="-22" type="curve" smooth="yes"/>
      <point x="1217" y="-22"/>
      <point x="1315" y="93"/>
      <point x="1315" y="324" type="curve" smooth="yes"/>
      <point x="1315" y="426" type="line" smooth="yes"/>
      <point x="1315" y="631"/>
      <point x="1262" y="766"/>
      <point x="1152" y="861" type="curve"/>
      <point x="1104" y="861" type="line"/>
      <point x="1220" y="768"/>
      <point x="1279" y="632"/>
      <point x="1279" y="427" type="curve" smooth="yes"/>
      <point x="1279" y="324" type="line" smooth="yes"/>
      <point x="1279" y="114"/>
      <point x="1192" y="12"/>
      <point x="1020" y="12" type="curve" smooth="yes"/>
      <point x="840" y="12"/>
      <point x="754" y="111"/>
      <point x="750" y="320" type="curve" smooth="yes"/>
      <point x="748" y="438" type="line"/>
      <point x="714" y="438" type="line"/>
      <point x="712" y="320" type="line" smooth="yes"/>
      <point x="708" y="111"/>
      <point x="621" y="12"/>
      <point x="436" y="12" type="curve" smooth="yes"/>
      <point x="261" y="12"/>
      <point x="169" y="109"/>
      <point x="169" y="305" type="curve" smooth="yes"/>
      <point x="169" y="376" type="line" smooth="yes"/>
      <point x="169" y="550"/>
      <point x="235" y="638"/>
      <point x="371" y="638" type="curve" smooth="yes"/>
      <point x="438" y="638"/>
      <point x="491" y="616"/>
      <point x="532" y="582" type="curve"/>
      <point x="529" y="622" type="line"/>
      <point x="489" y="653"/>
      <point x="436" y="672"/>
    </contour>
    <contour>
      <point x="1043" y="1118" type="line"/>
      <point x="1043" y="1150" type="line"/>
      <point x="169" y="1150" type="line"/>
      <point x="169" y="1118" type="line"/>
    </contour>
    <contour>
      <point x="731" y="682" type="curve" smooth="yes"/>
      <point x="751" y="682"/>
      <point x="754" y="707"/>
      <point x="754" y="796" type="curve" smooth="yes"/>
      <point x="754" y="878" type="line" smooth="yes"/>
      <point x="754" y="968"/>
      <point x="751" y="992"/>
      <point x="731" y="992" type="curve" smooth="yes"/>
      <point x="711" y="992"/>
      <point x="707" y="968"/>
      <point x="707" y="878" type="curve" smooth="yes"/>
      <point x="707" y="796" type="line" smooth="yes"/>
      <point x="707" y="707"/>
      <point x="711" y="682"/>
    </contour>
  </outline>
  <guideline angle="90" x="1491" y="0"/>
  <guideline angle="90" x="769" y="0"/>
  <guideline angle="90" x="113" y="0"/>
  <guideline angle="90" x="441" y="0"/>
  <guideline angle="90" x="441" y="0"/>
</glyph>
<glyph name="PamatraU.kn" format="2">
  <advance width="1943"/>
  <outline>
    <component base="Pa.kn"/>
    <contour>
      <point x="1448" y="1075" type="curve" smooth="yes"/>
      <point x="1436" y="1075"/>
      <point x="1424" y="1075"/>
      <point x="1408" y="1074" type="curve"/>
      <point x="1408" y="1040" type="line"/>
      <point x="1423" y="1041"/>
      <point x="1437" y="1041"/>
      <point x="1447" y="1041" type="curve" smooth="yes"/>
      <point x="1655" y="1041"/>
      <point x="1758" y="907"/>
      <point x="1758" y="595" type="curve" smooth="yes"/>
      <point x="1758" y="299" type="line" smooth="yes"/>
      <point x="1758" y="-75"/>
      <point x="1591" y="-251"/>
      <point x="1251" y="-251" type="curve" smooth="yes"/>
      <point x="982" y="-251"/>
      <point x="811" y="-138"/>
      <point x="732" y="69" type="curve"/>
      <point x="730" y="69" type="line"/>
      <point x="738" y="-6" type="line"/>
      <point x="813" y="-176"/>
      <point x="983" y="-285"/>
      <point x="1253" y="-285" type="curve" smooth="yes"/>
      <point x="1613" y="-285"/>
      <point x="1794" y="-95"/>
      <point x="1794" y="298" type="curve" smooth="yes"/>
      <point x="1794" y="595" type="line" smooth="yes"/>
      <point x="1794" y="928"/>
      <point x="1678" y="1075"/>
    </contour>
  </outline>
  <guideline angle="90" x="1043" y="0"/>
  <guideline angle="0" x="0" y="-274"/>
</glyph>
<glyph name="Pasmall1.kn" format="2">
  <outline>
    <contour>
      <point x="-133" y="-120" type="curve" smooth="yes"/>
      <point x="-143" y="-120"/>
      <point x="-150" y="-120"/>
      <point x="-161" y="-121" type="curve"/>
      <point x="-161" y="-152" type="line"/>
      <point x="-151" y="-151"/>
      <point x="-144" y="-151"/>
      <point x="-135" y="-151" type="curve" smooth="yes"/>
      <point x="-22" y="-151"/>
      <point x="34" y="-218"/>
      <point x="34" y="-372" type="curve" smooth="yes"/>
      <point x="34" y="-480" type="line" smooth="yes"/>
      <point x="34" y="-599"/>
      <point x="-12" y="-663"/>
      <point x="-103" y="-663" type="curve" smooth="yes"/>
      <point x="-196" y="-663"/>
      <point x="-242" y="-612"/>
      <point x="-245" y="-504" type="curve" smooth="yes"/>
      <point x="-246" y="-467" type="line"/>
      <point x="-268" y="-467" type="line"/>
      <point x="-262" y="-561" type="line"/>
      <point x="-252" y="-649"/>
      <point x="-195" y="-695"/>
      <point x="-102" y="-695" type="curve" smooth="yes"/>
      <point x="14" y="-695"/>
      <point x="68" y="-619"/>
      <point x="68" y="-481" type="curve" smooth="yes"/>
      <point x="68" y="-372" type="line" smooth="yes"/>
      <point x="68" y="-197"/>
      <point x="2" y="-120"/>
    </contour>
    <contour>
      <point x="-428" y="-663" type="curve" smooth="yes"/>
      <point x="-519" y="-663"/>
      <point x="-568" y="-613"/>
      <point x="-568" y="-511" type="curve" smooth="yes"/>
      <point x="-568" y="-483" type="line" smooth="yes"/>
      <point x="-568" y="-394"/>
      <point x="-530" y="-349"/>
      <point x="-455" y="-349" type="curve" smooth="yes"/>
      <point x="-418" y="-349"/>
      <point x="-388" y="-358"/>
      <point x="-362" y="-373" type="curve"/>
      <point x="-365" y="-339" type="line"/>
      <point x="-389" y="-325"/>
      <point x="-420" y="-317"/>
      <point x="-457" y="-317" type="curve" smooth="yes"/>
      <point x="-551" y="-317"/>
      <point x="-602" y="-376"/>
      <point x="-602" y="-483" type="curve" smooth="yes"/>
      <point x="-602" y="-511" type="line" smooth="yes"/>
      <point x="-602" y="-632"/>
      <point x="-542" y="-695"/>
      <point x="-430" y="-695" type="curve" smooth="yes"/>
      <point x="-330" y="-695"/>
      <point x="-275" y="-649"/>
      <point x="-263" y="-561" type="curve"/>
      <point x="-251" y="-561" type="line"/>
      <point x="-258" y="-467" type="line"/>
      <point x="-279" y="-467" type="line"/>
      <point x="-280" y="-504" type="line" smooth="yes"/>
      <point x="-283" y="-611"/>
      <point x="-330" y="-663"/>
    </contour>
  </outline>
</glyph>
<glyph name="PhaUpadhmaniya.kn" format="2">
  <advance width="1455"/>
  <outline>
    <component base="PaUpadhmaniya.kn"/>
    <contour>
      <point x="729" y="-366" type="curve" smooth="yes"/>
      <point x="747" y="-366"/>
      <point x="754" y="-353"/>
      <point x="754" y="-325" type="curve" smooth="yes"/>
      <point x="754" y="-257" type="line" smooth="yes"/>
      <point x="754" y="-109"/>
      <point x="748" y="-10"/>
      <point x="729" y="73" type="curve"/>
      <point x="710" y="-10"/>
      <point x="704" y="-109"/>
      <point x="704" y="-257" type="curve" smooth="yes"/>
      <point x="704" y="-325" type="line" smooth="yes"/>
      <point x="704" y="-353"/>
      <point x="711" y="-366"/>
    </contour>
  </outline>
  <guideline angle="0" x="0" y="-274"/>
</glyph>
<glyph name="PhamatraE.kn" format="2">
  <advance width="1457"/>
  <anchor x="731" y="0" name="nukta"/>
  <outline>
    <component base="PamatraE.kn"/>
    <contour>
      <point x="731" y="-366" type="curve" smooth="yes"/>
      <point x="749" y="-366"/>
      <point x="756" y="-353"/>
      <point x="756" y="-325" type="curve" smooth="yes"/>
      <point x="756" y="-257" type="line" smooth="yes"/>
      <point x="756" y="-109"/>
      <point x="750" y="-10"/>
      <point x="731" y="73" type="curve"/>
      <point x="712" y="-10"/>
      <point x="706" y="-109"/>
      <point x="706" y="-257" type="curve" smooth="yes"/>
      <point x="706" y="-325" type="line" smooth="yes"/>
      <point x="706" y="-353"/>
      <point x="713" y="-366"/>
    </contour>
  </outline>
  <guideline angle="0" x="0" y="-274"/>
  <guideline angle="90" x="431" y="0"/>
</glyph>
<glyph name="RamatraO.kn" format="2">
  <advance width="2529"/>
  <outline>
    <component base="RamatraE.kn"/>
    <component base="matraUu.kn" xOffset="1214"/>
    <contour>
      <point x="1067" y="410" type="line"/>
      <point x="1041" y="410" type="line"/>
      <point x="1041" y="322" type="line"/>
      <point x="1067" y="322" type="line"/>
    </contour>
  </outline>
</glyph>
<glyph name="RamatraUu.kn" format="2">
  <advance width="2525"/>
  <outline>
    <component base="Ra.kn"/>
    <component base="matraUu.kn" xOffset="1210"/>
    <contour>
      <point x="1037" y="322" type="line"/>
      <point x="1063" y="323" type="line"/>
      <point x="1063" y="420" type="line"/>
      <point x="1037" y="420" type="line"/>
    </contour>
  </outline>
</glyph>
<glyph name="RraObsoletesmall1.kn" format="2">
  <outline>
    <contour>
      <point x="-394" y="-158" type="curve" smooth="yes"/>
      <point x="-511" y="-158"/>
      <point x="-561" y="-227"/>
      <point x="-561" y="-354" type="curve" smooth="yes"/>
      <point x="-561" y="-398" type="line"/>
      <point x="-527" y="-400" type="line"/>
      <point x="-527" y="-354" type="line" smooth="yes"/>
      <point x="-527" y="-247"/>
      <point x="-488" y="-190"/>
      <point x="-394" y="-190" type="curve" smooth="yes"/>
      <point x="-318" y="-190"/>
      <point x="-275" y="-234"/>
      <point x="-275" y="-318" type="curve" smooth="yes"/>
      <point x="-275" y="-333" type="line" smooth="yes"/>
      <point x="-275" y="-408"/>
      <point x="-316" y="-447"/>
      <point x="-389" y="-447" type="curve" smooth="yes"/>
      <point x="-459" y="-447"/>
      <point x="-506" y="-419"/>
      <point x="-530" y="-372" type="curve"/>
      <point x="-537" y="-420" type="line"/>
      <point x="-526" y="-420" type="line"/>
      <point x="-501" y="-453"/>
      <point x="-454" y="-479"/>
      <point x="-386" y="-479" type="curve"/>
      <point x="-317" y="-459" type="line"/>
      <point x="-263" y="-440"/>
      <point x="-241" y="-397"/>
      <point x="-241" y="-331" type="curve" smooth="yes"/>
      <point x="-241" y="-318" type="line" smooth="yes"/>
      <point x="-241" y="-215"/>
      <point x="-297" y="-158"/>
    </contour>
    <contour>
      <point x="54" y="-479" type="line"/>
      <point x="54" y="-449" type="line"/>
      <point x="-343" y="-449" type="line"/>
      <point x="-386" y="-479" type="line"/>
    </contour>
    <contour>
      <point x="-527" y="-399" type="line"/>
      <point x="-561" y="-397" type="line"/>
      <point x="-561" y="-521" type="line" smooth="yes"/>
      <point x="-561" y="-664"/>
      <point x="-492" y="-740"/>
      <point x="-364" y="-740" type="curve" smooth="yes"/>
      <point x="-266" y="-740"/>
      <point x="-202" y="-696"/>
      <point x="-190" y="-605" type="curve"/>
      <point x="-189" y="-605" type="line"/>
      <point x="-177" y="-696"/>
      <point x="-113" y="-740"/>
      <point x="-15" y="-740" type="curve" smooth="yes"/>
      <point x="113" y="-740"/>
      <point x="182" y="-664"/>
      <point x="182" y="-521" type="curve" smooth="yes"/>
      <point x="182" y="-374" type="line" smooth="yes"/>
      <point x="182" y="-236"/>
      <point x="141" y="-158"/>
      <point x="17" y="-158" type="curve" smooth="yes"/>
      <point x="-81" y="-158"/>
      <point x="-136" y="-214"/>
      <point x="-136" y="-316" type="curve" smooth="yes"/>
      <point x="-136" y="-328" type="line" smooth="yes"/>
      <point x="-136" y="-395"/>
      <point x="-110" y="-434"/>
      <point x="-69" y="-448" type="curve"/>
      <point x="-69" y="-456" type="line"/>
      <point x="36" y="-459" type="line"/>
      <point x="36" y="-449" type="line"/>
      <point x="-55" y="-449"/>
      <point x="-102" y="-408"/>
      <point x="-102" y="-327" type="curve" smooth="yes"/>
      <point x="-102" y="-316" type="line" smooth="yes"/>
      <point x="-102" y="-234"/>
      <point x="-61" y="-190"/>
      <point x="17" y="-190" type="curve" smooth="yes"/>
      <point x="123" y="-190"/>
      <point x="148" y="-265"/>
      <point x="148" y="-375" type="curve" smooth="yes"/>
      <point x="148" y="-521" type="line" smooth="yes"/>
      <point x="148" y="-644"/>
      <point x="91" y="-708"/>
      <point x="-16" y="-708" type="curve" smooth="yes"/>
      <point x="-114" y="-708"/>
      <point x="-169" y="-659"/>
      <point x="-172" y="-547" type="curve" smooth="yes"/>
      <point x="-173" y="-525" type="line"/>
      <point x="-206" y="-525" type="line"/>
      <point x="-207" y="-547" type="line" smooth="yes"/>
      <point x="-210" y="-659"/>
      <point x="-265" y="-708"/>
      <point x="-363" y="-708" type="curve" smooth="yes"/>
      <point x="-470" y="-708"/>
      <point x="-527" y="-644"/>
      <point x="-527" y="-521" type="curve" smooth="yes"/>
    </contour>
  </outline>
</glyph>
<glyph name="ShamatraE.kn" format="2">
  <advance width="1137"/>
  <outline>
    <component base="matraE.kn" xOffset="439"/>
    <contour>
      <point x="132" y="1150" type="line"/>
      <point x="132" y="1118" type="line"/>
      <point x="427" y="1118" type="line"/>
      <point x="439" y="1118" type="line"/>
      <point x="724" y="1118" type="line"/>
      <point x="724" y="1150" type="line"/>
    </contour>
    <contour>
      <point x="947" y="660" type="curve" smooth="yes"/>
      <point x="947" y="441" type="line" smooth="yes"/>
      <point x="947" y="152"/>
      <point x="812" y="9"/>
      <point x="545" y="9" type="curve" smooth="yes"/>
      <point x="316" y="9"/>
      <point x="173" y="119"/>
      <point x="173" y="312" type="curve" smooth="yes"/>
      <point x="173" y="321" type="line" smooth="yes"/>
      <point x="173" y="491"/>
      <point x="259" y="564"/>
      <point x="453" y="660" type="curve" smooth="yes"/>
      <point x="932" y="896" type="line"/>
      <point x="914" y="925" type="line"/>
      <point x="433" y="688" type="line" smooth="yes"/>
      <point x="229" y="588"/>
      <point x="136" y="506"/>
      <point x="136" y="321" type="curve" smooth="yes"/>
      <point x="136" y="312" type="line" smooth="yes"/>
      <point x="136" y="95"/>
      <point x="290" y="-25"/>
      <point x="545" y="-25" type="curve" smooth="yes"/>
      <point x="839" y="-25"/>
      <point x="983" y="127"/>
      <point x="983" y="443" type="curve" smooth="yes"/>
      <point x="983" y="660" type="line" smooth="yes"/>
      <point x="983" y="918"/>
      <point x="896" y="1067"/>
      <point x="732" y="1116" type="curve"/>
      <point x="732" y="1138" type="line"/>
      <point x="391" y="1138" type="line"/>
      <point x="391" y="1117" type="line"/>
      <point x="250" y="1082"/>
      <point x="176" y="974"/>
      <point x="176" y="794" type="curve" smooth="yes"/>
      <point x="176" y="766" type="line"/>
      <point x="212" y="766" type="line"/>
      <point x="212" y="794" type="line" smooth="yes"/>
      <point x="212" y="1012"/>
      <point x="331" y="1118"/>
      <point x="561" y="1118" type="curve" smooth="yes"/>
      <point x="818" y="1118"/>
      <point x="947" y="969"/>
    </contour>
  </outline>
</glyph>
<glyph name="Shasmall1.kn" format="2">
  <advance width="135"/>
  <outline>
    <contour>
      <point x="168" y="-428" type="curve" smooth="yes"/>
      <point x="168" y="-489" type="line" smooth="yes"/>
      <point x="168" y="-639"/>
      <point x="97" y="-708"/>
      <point x="-47" y="-708" type="curve" smooth="yes"/>
      <point x="-167" y="-708"/>
      <point x="-242" y="-662"/>
      <point x="-242" y="-579" type="curve" smooth="yes"/>
      <point x="-242" y="-576" type="line" smooth="yes"/>
      <point x="-242" y="-494"/>
      <point x="-192" y="-467"/>
      <point x="-55" y="-417" type="curve" smooth="yes"/>
      <point x="22" y="-389" type="line" smooth="yes"/>
      <point x="94" y="-363"/>
      <point x="128" y="-336"/>
      <point x="157" y="-288" type="curve"/>
      <point x="138" y="-257" type="line"/>
      <point x="113" y="-306"/>
      <point x="79" y="-333"/>
      <point x="7" y="-360" type="curve" smooth="yes"/>
      <point x="-70" y="-389" type="line" smooth="yes"/>
      <point x="-221" y="-446"/>
      <point x="-276" y="-481"/>
      <point x="-276" y="-577" type="curve"/>
      <point x="-276" y="-579" type="line"/>
      <point x="-276" y="-684"/>
      <point x="-190" y="-740"/>
      <point x="-47" y="-740" type="curve" smooth="yes"/>
      <point x="121" y="-740"/>
      <point x="202" y="-661"/>
      <point x="202" y="-488" type="curve" smooth="yes"/>
      <point x="202" y="-428" type="line" smooth="yes"/>
      <point x="202" y="-356"/>
      <point x="189" y="-300"/>
      <point x="165" y="-258" type="curve" smooth="yes"/>
      <point x="163" y="-254"/>
      <point x="160" y="-250"/>
      <point x="158" y="-247" type="curve" smooth="yes"/>
      <point x="117" y="-186"/>
      <point x="50" y="-158"/>
      <point x="-37" y="-158" type="curve" smooth="yes"/>
      <point x="-178" y="-158"/>
      <point x="-256" y="-228"/>
      <point x="-256" y="-362" type="curve" smooth="yes"/>
      <point x="-256" y="-368" type="line"/>
      <point x="-222" y="-368" type="line"/>
      <point x="-222" y="-362" type="line" smooth="yes"/>
      <point x="-222" y="-247"/>
      <point x="-159" y="-190"/>
      <point x="-37" y="-190" type="curve" smooth="yes"/>
      <point x="97" y="-190"/>
      <point x="168" y="-256"/>
    </contour>
    <contour>
      <point x="198" y="-118" type="curve" smooth="yes"/>
      <point x="198" y="-93" type="line" smooth="yes"/>
      <point x="198" y="73"/>
      <point x="130" y="153"/>
      <point x="-1" y="153" type="curve" smooth="yes"/>
      <point x="-10" y="153"/>
      <point x="-20" y="153"/>
      <point x="-28" y="152" type="curve"/>
      <point x="-28" y="120" type="line"/>
      <point x="-21" y="121"/>
      <point x="-12" y="121"/>
      <point x="-3" y="121" type="curve" smooth="yes"/>
      <point x="107" y="121"/>
      <point x="165" y="52"/>
      <point x="165" y="-92" type="curve" smooth="yes"/>
      <point x="165" y="-118" type="line" smooth="yes"/>
      <point x="165" y="-182"/>
      <point x="157" y="-219"/>
      <point x="143" y="-250" type="curve"/>
      <point x="166" y="-278" type="line"/>
      <point x="187" y="-236"/>
      <point x="198" y="-194"/>
    </contour>
  </outline>
</glyph>
<glyph name="TtamatraU.kn" format="2">
  <advance width="2114"/>
  <outline>
    <component base="Tta.kn"/>
    <contour>
      <point x="1619" y="1165" type="curve" smooth="yes"/>
      <point x="1607" y="1165"/>
      <point x="1595" y="1165"/>
      <point x="1579" y="1164" type="curve"/>
      <point x="1579" y="1130" type="line"/>
      <point x="1594" y="1131"/>
      <point x="1608" y="1131"/>
      <point x="1618" y="1131" type="curve" smooth="yes"/>
      <point x="1826" y="1131"/>
      <point x="1929" y="997"/>
      <point x="1929" y="685" type="curve" smooth="yes"/>
      <point x="1929" y="414" type="line" smooth="yes"/>
      <point x="1929" y="137"/>
      <point x="1831" y="12"/>
      <point x="1630" y="12" type="curve" smooth="yes"/>
      <point x="1439" y="12"/>
      <point x="1333" y="110"/>
      <point x="1333" y="302" type="curve" smooth="yes"/>
      <point x="1333" y="306" type="line"/>
      <point x="1309" y="306" type="line"/>
      <point x="1309" y="264" type="line"/>
      <point x="1317" y="86"/>
      <point x="1426" y="-22"/>
      <point x="1631" y="-22" type="curve" smooth="yes"/>
      <point x="1855" y="-22"/>
      <point x="1965" y="119"/>
      <point x="1965" y="415" type="curve" smooth="yes"/>
      <point x="1965" y="685" type="line" smooth="yes"/>
      <point x="1965" y="1018"/>
      <point x="1849" y="1165"/>
    </contour>
  </outline>
  <guideline angle="90" x="848" y="0"/>
  <guideline angle="90" x="776" y="0"/>
  <guideline angle="90" x="1230" y="0"/>
</glyph>
<glyph name="Ttasmall1.kn" format="2">
  <outline>
    <contour>
      <point x="-394" y="-159" type="curve" smooth="yes"/>
      <point x="-498" y="-159"/>
      <point x="-556" y="-209"/>
      <point x="-556" y="-302" type="curve" smooth="yes"/>
      <point x="-556" y="-307" type="line" smooth="yes"/>
      <point x="-556" y="-385"/>
      <point x="-516" y="-427"/>
      <point x="-439" y="-436" type="curve"/>
      <point x="-439" y="-437" type="line"/>
      <point x="-518" y="-449"/>
      <point x="-559" y="-496"/>
      <point x="-559" y="-577" type="curve" smooth="yes"/>
      <point x="-559" y="-585" type="line" smooth="yes"/>
      <point x="-559" y="-687"/>
      <point x="-498" y="-740"/>
      <point x="-388" y="-740" type="curve" smooth="yes"/>
      <point x="-289" y="-740"/>
      <point x="-233" y="-698"/>
      <point x="-222" y="-623" type="curve"/>
      <point x="-221" y="-623" type="line"/>
      <point x="-210" y="-698"/>
      <point x="-154" y="-740"/>
      <point x="-55" y="-740" type="curve" smooth="yes"/>
      <point x="55" y="-740"/>
      <point x="116" y="-687"/>
      <point x="116" y="-585" type="curve" smooth="yes"/>
      <point x="116" y="-577" type="line" smooth="yes"/>
      <point x="116" y="-496"/>
      <point x="75" y="-449"/>
      <point x="-4" y="-437" type="curve"/>
      <point x="-4" y="-436" type="line"/>
      <point x="73" y="-427"/>
      <point x="113" y="-385"/>
      <point x="113" y="-307" type="curve" smooth="yes"/>
      <point x="113" y="-302" type="line" smooth="yes"/>
      <point x="113" y="-209"/>
      <point x="55" y="-159"/>
      <point x="-49" y="-159" type="curve" smooth="yes"/>
      <point x="-93" y="-159"/>
      <point x="-131" y="-167"/>
      <point x="-159" y="-179" type="curve"/>
      <point x="-163" y="-211" type="line"/>
      <point x="-133" y="-199"/>
      <point x="-94" y="-191"/>
      <point x="-50" y="-191" type="curve" smooth="yes"/>
      <point x="34" y="-191"/>
      <point x="79" y="-228"/>
      <point x="79" y="-301" type="curve" smooth="yes"/>
      <point x="79" y="-306" type="line" smooth="yes"/>
      <point x="79" y="-384"/>
      <point x="31" y="-418"/>
      <point x="-62" y="-420" type="curve" smooth="yes"/>
      <point x="-120" y="-421" type="line"/>
      <point x="-120" y="-452" type="line"/>
      <point x="-62" y="-453" type="line" smooth="yes"/>
      <point x="33" y="-455"/>
      <point x="82" y="-493"/>
      <point x="82" y="-577" type="curve" smooth="yes"/>
      <point x="82" y="-584" type="line" smooth="yes"/>
      <point x="82" y="-666"/>
      <point x="34" y="-708"/>
      <point x="-57" y="-708" type="curve" smooth="yes"/>
      <point x="-156" y="-708"/>
      <point x="-202" y="-661"/>
      <point x="-204" y="-569" type="curve" smooth="yes"/>
      <point x="-205" y="-530" type="line"/>
      <point x="-238" y="-530" type="line"/>
      <point x="-239" y="-569" type="line" smooth="yes"/>
      <point x="-241" y="-661"/>
      <point x="-287" y="-708"/>
      <point x="-386" y="-708" type="curve" smooth="yes"/>
      <point x="-477" y="-708"/>
      <point x="-525" y="-666"/>
      <point x="-525" y="-584" type="curve" smooth="yes"/>
      <point x="-525" y="-577" type="line" smooth="yes"/>
      <point x="-525" y="-493"/>
      <point x="-476" y="-455"/>
      <point x="-381" y="-453" type="curve" smooth="yes"/>
      <point x="-323" y="-452" type="line"/>
      <point x="-323" y="-421" type="line"/>
      <point x="-381" y="-420" type="line" smooth="yes"/>
      <point x="-474" y="-418"/>
      <point x="-522" y="-384"/>
      <point x="-522" y="-306" type="curve" smooth="yes"/>
      <point x="-522" y="-301" type="line" smooth="yes"/>
      <point x="-522" y="-228"/>
      <point x="-477" y="-191"/>
      <point x="-393" y="-191" type="curve" smooth="yes"/>
      <point x="-349" y="-191"/>
      <point x="-310" y="-199"/>
      <point x="-280" y="-211" type="curve"/>
      <point x="-284" y="-179" type="line"/>
      <point x="-312" y="-167"/>
      <point x="-350" y="-159"/>
    </contour>
  </outline>
</glyph>
<glyph name="TthamatraE.kn" format="2">
  <advance width="1220"/>
  <outline>
    <component base="matraE.kn" xOffset="527"/>
    <contour>
      <point x="427" y="1143" type="line"/>
      <point x="427" y="1116" type="line"/>
      <point x="245" y="1068"/>
      <point x="149" y="916"/>
      <point x="149" y="659" type="curve" smooth="yes"/>
      <point x="149" y="469" type="line" smooth="yes"/>
      <point x="149" y="139"/>
      <point x="306.684" y="-25"/>
      <point x="610" y="-25" type="curve" smooth="yes"/>
      <point x="914.32" y="-25"/>
      <point x="1071" y="139"/>
      <point x="1071" y="469" type="curve" smooth="yes"/>
      <point x="1071" y="659" type="line" smooth="yes"/>
      <point x="1071" y="916"/>
      <point x="976" y="1068"/>
      <point x="793" y="1116" type="curve"/>
      <point x="793" y="1143" type="line"/>
    </contour>
    <contour>
      <point x="149" y="1150" type="line"/>
      <point x="149" y="1118" type="line"/>
      <point x="831" y="1118" type="line"/>
      <point x="831" y="1150" type="line"/>
    </contour>
    <contour>
      <point x="611" y="731" type="curve" smooth="yes"/>
      <point x="591" y="731"/>
      <point x="587" y="707"/>
      <point x="587" y="617" type="curve" smooth="yes"/>
      <point x="587" y="535" type="line" smooth="yes"/>
      <point x="587" y="446"/>
      <point x="591" y="421"/>
      <point x="611" y="421" type="curve" smooth="yes"/>
      <point x="631" y="421"/>
      <point x="634" y="446"/>
      <point x="634" y="535" type="curve" smooth="yes"/>
      <point x="634" y="617" type="line" smooth="yes"/>
      <point x="634" y="707"/>
      <point x="631" y="731"/>
    </contour>
    <contour>
      <point x="1035" y="659" type="curve" smooth="yes"/>
      <point x="1035" y="469" type="line" smooth="yes"/>
      <point x="1035" y="166"/>
      <point x="889.314" y="9"/>
      <point x="610" y="9" type="curve" smooth="yes"/>
      <point x="329.681" y="9"/>
      <point x="185" y="162"/>
      <point x="185" y="469" type="curve" smooth="yes"/>
      <point x="185" y="659" type="line" smooth="yes"/>
      <point x="185" y="967"/>
      <point x="329.681" y="1118"/>
      <point x="610" y="1118" type="curve" smooth="yes"/>
      <point x="889.314" y="1118"/>
      <point x="1035" y="967"/>
    </contour>
  </outline>
  <guideline angle="0" x="0" y="564"/>
  <guideline angle="90" x="1007" y="0"/>
  <guideline angle="90" x="543" y="0"/>
  <guideline angle="90" x="1635" y="0"/>
  <guideline angle="90" x="612" y="0"/>
</glyph>
<glyph name="VaHalant.kn" format="2">
  <advance width="2034"/>
  <outline>
    <component base="Halant.kn" xOffset="1485"/>
    <contour>
      <point x="1014" y="-22" type="curve" smooth="yes"/>
      <point x="1209" y="-22"/>
      <point x="1306" y="93"/>
      <point x="1306" y="329" type="curve" smooth="yes"/>
      <point x="1306" y="484" type="line" smooth="yes"/>
      <point x="1306" y="901"/>
      <point x="1134" y="1074"/>
      <point x="832" y="1116" type="curve"/>
      <point x="832" y="1138" type="line"/>
      <point x="558" y="1138" type="line"/>
      <point x="558" y="1118" type="line"/>
      <point x="1053" y="1118"/>
      <point x="1270" y="952.001"/>
      <point x="1270" y="484" type="curve" smooth="yes"/>
      <point x="1270" y="329" type="line" smooth="yes"/>
      <point x="1270" y="112.998"/>
      <point x="1184" y="12"/>
      <point x="1013" y="12" type="curve" smooth="yes"/>
      <point x="838" y="12"/>
      <point x="754" y="111"/>
      <point x="750" y="320" type="curve" smooth="yes"/>
      <point x="748" y="438" type="line"/>
      <point x="714" y="438" type="line"/>
      <point x="712" y="320" type="line" smooth="yes"/>
      <point x="708" y="111"/>
      <point x="621" y="12"/>
      <point x="436" y="12" type="curve" smooth="yes"/>
      <point x="261" y="12"/>
      <point x="169" y="109"/>
      <point x="169" y="305" type="curve" smooth="yes"/>
      <point x="169" y="376" type="line" smooth="yes"/>
      <point x="169" y="550"/>
      <point x="235" y="638"/>
      <point x="371" y="638" type="curve" smooth="yes"/>
      <point x="438" y="638"/>
      <point x="491" y="616"/>
      <point x="532" y="582" type="curve"/>
      <point x="529" y="622" type="line"/>
      <point x="489" y="653"/>
      <point x="436" y="672"/>
      <point x="370" y="672" type="curve" smooth="yes"/>
      <point x="213" y="672"/>
      <point x="133" y="571"/>
      <point x="133" y="379" type="curve" smooth="yes"/>
      <point x="133" y="305" type="line" smooth="yes"/>
      <point x="133" y="88"/>
      <point x="237" y="-22"/>
      <point x="435" y="-22" type="curve" smooth="yes"/>
      <point x="622" y="-22"/>
      <point x="717" y="74"/>
      <point x="730" y="234" type="curve"/>
      <point x="732" y="234" type="line"/>
      <point x="745" y="74"/>
      <point x="835" y="-22"/>
    </contour>
    <contour>
      <point x="1036" y="1118" type="line"/>
      <point x="1036" y="1150" type="line"/>
      <point x="179" y="1150" type="line"/>
      <point x="179" y="1118" type="line"/>
    </contour>
  </outline>
  <guideline angle="90" x="1159" y="0"/>
  <guideline angle="90" x="110" y="0"/>
  <guideline angle="0" x="0" y="955"/>
</glyph>
<glyph name="VamatraI.kn" format="2">
  <advance width="1453"/>
  <outline>
    <contour>
      <point x="1268" y="583" type="line"/>
      <point x="1268" y="329" type="line" smooth="yes"/>
      <point x="1268" y="112.998"/>
      <point x="1182" y="12"/>
      <point x="1011" y="12" type="curve" smooth="yes"/>
      <point x="836" y="12"/>
      <point x="752" y="111"/>
      <point x="748" y="320" type="curve" smooth="yes"/>
      <point x="746" y="438" type="line"/>
      <point x="712" y="438" type="line"/>
      <point x="710" y="320" type="line" smooth="yes"/>
      <point x="706" y="111"/>
      <point x="619" y="12"/>
      <point x="434" y="12" type="curve" smooth="yes"/>
      <point x="259" y="12"/>
      <point x="167" y="109"/>
      <point x="167" y="305" type="curve" smooth="yes"/>
      <point x="167" y="376" type="line" smooth="yes"/>
      <point x="167" y="550"/>
      <point x="233" y="638"/>
      <point x="369" y="638" type="curve" smooth="yes"/>
      <point x="436" y="638"/>
      <point x="489" y="616"/>
      <point x="530" y="582" type="curve"/>
      <point x="527" y="622" type="line"/>
      <point x="487" y="653"/>
      <point x="434" y="672"/>
      <point x="368" y="672" type="curve" smooth="yes"/>
      <point x="211" y="672"/>
      <point x="131" y="571"/>
      <point x="131" y="379" type="curve" smooth="yes"/>
      <point x="131" y="305" type="line" smooth="yes"/>
      <point x="131" y="88"/>
      <point x="235" y="-22"/>
      <point x="433" y="-22" type="curve" smooth="yes"/>
      <point x="620" y="-22"/>
      <point x="715" y="74"/>
      <point x="728" y="234" type="curve"/>
      <point x="730" y="234" type="line"/>
      <point x="743" y="74"/>
      <point x="833" y="-22"/>
      <point x="1012" y="-22" type="curve" smooth="yes"/>
      <point x="1207" y="-22"/>
      <point x="1304" y="93"/>
      <point x="1304" y="329" type="curve" smooth="yes"/>
      <point x="1304" y="583" type="line"/>
    </contour>
    <contour>
      <point x="1304" y="377" type="line"/>
      <point x="1304" y="651" type="line" smooth="yes"/>
      <point x="1304" y="1113"/>
      <point x="1107" y="1344"/>
      <point x="717" y="1344" type="curve" smooth="yes"/>
      <point x="484" y="1344"/>
      <point x="354" y="1245"/>
      <point x="354" y="1063" type="curve" smooth="yes"/>
      <point x="354" y="1052" type="line" smooth="yes"/>
      <point x="354" y="898"/>
      <point x="444" y="817"/>
      <point x="610" y="817" type="curve" smooth="yes"/>
      <point x="772" y="817"/>
      <point x="862" y="896"/>
      <point x="862" y="1050" type="curve" smooth="yes"/>
      <point x="862" y="1059" type="line" smooth="yes"/>
      <point x="862" y="1187"/>
      <point x="805" y="1272"/>
      <point x="700" y="1309" type="curve"/>
      <point x="700" y="1327" type="line"/>
      <point x="617" y="1312" type="line"/>
      <point x="731" y="1282"/>
      <point x="826" y="1212"/>
      <point x="826" y="1059" type="curve" smooth="yes"/>
      <point x="826" y="1050" type="line" smooth="yes"/>
      <point x="826" y="919"/>
      <point x="749" y="851"/>
      <point x="610" y="851" type="curve" smooth="yes"/>
      <point x="466" y="851"/>
      <point x="390" y="920"/>
      <point x="390" y="1052" type="curve" smooth="yes"/>
      <point x="390" y="1063" type="line" smooth="yes"/>
      <point x="390" y="1226"/>
      <point x="504" y="1310"/>
      <point x="717" y="1310" type="curve" smooth="yes"/>
      <point x="1086" y="1310"/>
      <point x="1268" y="1092"/>
      <point x="1268" y="652" type="curve" smooth="yes"/>
      <point x="1268" y="377" type="line"/>
    </contour>
  </outline>
</glyph>
<glyph name="VamatraU.kn" format="2">
  <advance width="1942"/>
  <outline>
    <component base="Va.kn"/>
    <contour>
      <point x="1447" y="1075" type="curve" smooth="yes"/>
      <point x="1435" y="1075"/>
      <point x="1423" y="1075"/>
      <point x="1407" y="1074" type="curve"/>
      <point x="1407" y="1040" type="line"/>
      <point x="1422" y="1041"/>
      <point x="1436" y="1041"/>
      <point x="1446" y="1041" type="curve" smooth="yes"/>
      <point x="1654" y="1041"/>
      <point x="1757" y="907"/>
      <point x="1757" y="595" type="curve" smooth="yes"/>
      <point x="1757" y="299" type="line" smooth="yes"/>
      <point x="1757" y="-75"/>
      <point x="1590" y="-251"/>
      <point x="1250" y="-251" type="curve" smooth="yes"/>
      <point x="981" y="-251"/>
      <point x="810" y="-138"/>
      <point x="731" y="69" type="curve"/>
      <point x="729" y="69" type="line"/>
      <point x="737" y="-6" type="line"/>
      <point x="812" y="-176"/>
      <point x="982" y="-285"/>
      <point x="1252" y="-285" type="curve" smooth="yes"/>
      <point x="1612" y="-285"/>
      <point x="1793" y="-95"/>
      <point x="1793" y="298" type="curve" smooth="yes"/>
      <point x="1793" y="595" type="line" smooth="yes"/>
      <point x="1793" y="928"/>
      <point x="1677" y="1075"/>
    </contour>
  </outline>
  <guideline angle="0" x="0" y="-274"/>
  <guideline angle="90" x="-1108" y="0"/>
  <guideline angle="90" x="445" y="0"/>
  <guideline angle="90" x="-743" y="0"/>
</glyph>
<glyph name="gravecomb.case" format="2">
  <advance width="514"/>
  <anchor x="410" y="1278" name="_top"/>
  <anchor x="295" y="1585" name="top"/>
  <outline>
    <contour>
      <point x="433" y="1419" type="line"/>
      <point x="433" y="1418" type="line"/>
      <point x="388" y="1418" type="line"/>
      <point x="121" y="1645" type="line"/>
      <point x="121" y="1647" type="line"/>
      <point x="173" y="1647" type="line"/>
    </contour>
  </outline>
</glyph>
<glyph name="macroncomb.narrow" format="2">
  <advance width="730"/>
  <anchor x="365" y="971" name="_top"/>
  <anchor x="366" y="1277" name="top"/>
  <outline>
    <contour>
      <point x="562" y="1212" type="line"/>
      <point x="562" y="1244" type="line"/>
      <point x="169" y="1244" type="line"/>
      <point x="169" y="1212" type="line"/>
    </contour>
  </outline>
</glyph>
<glyph name="vowelA.kn.alt1" format="2">
  <advance width="1444"/>
  <outline>
    <contour>
      <point x="723" y="10" type="curve" smooth="yes"/>
      <point x="367" y="10"/>
      <point x="180" y="183"/>
      <point x="180" y="541" type="curve" smooth="yes"/>
      <point x="180" y="676" type="line" smooth="yes"/>
      <point x="180" y="994"/>
      <point x="287" y="1131"/>
      <point x="504" y="1131" type="curve" smooth="yes"/>
      <point x="514" y="1131"/>
      <point x="528" y="1131"/>
      <point x="543" y="1130" type="curve"/>
      <point x="543" y="1164" type="line"/>
      <point x="527" y="1165"/>
      <point x="515" y="1165"/>
      <point x="503" y="1165" type="curve" smooth="yes"/>
      <point x="264" y="1165"/>
      <point x="144" y="1015"/>
      <point x="144" y="676" type="curve" smooth="yes"/>
      <point x="144" y="541" type="line" smooth="yes"/>
      <point x="144" y="163"/>
      <point x="344" y="-24"/>
      <point x="723" y="-24" type="curve" smooth="yes"/>
      <point x="1102" y="-24"/>
      <point x="1302" y="163"/>
      <point x="1302" y="541" type="curve" smooth="yes"/>
      <point x="1302" y="771" type="line" smooth="yes"/>
      <point x="1302" y="1058"/>
      <point x="1214" y="1177"/>
      <point x="1011" y="1177" type="curve" smooth="yes"/>
      <point x="830" y="1177"/>
      <point x="736" y="1068"/>
      <point x="736" y="860" type="curve" smooth="yes"/>
      <point x="736" y="785" type="line" smooth="yes"/>
      <point x="736" y="624"/>
      <point x="798" y="546"/>
      <point x="892" y="521" type="curve"/>
      <point x="892" y="513" type="line"/>
      <point x="1023" y="513" type="line"/>
      <point x="1023" y="520" type="line"/>
      <point x="856" y="520"/>
      <point x="772" y="611"/>
      <point x="772" y="785" type="curve" smooth="yes"/>
      <point x="772" y="859" type="line" smooth="yes"/>
      <point x="772" y="1046"/>
      <point x="851" y="1143"/>
      <point x="1012" y="1143" type="curve" smooth="yes"/>
      <point x="1191" y="1143"/>
      <point x="1266" y="1036"/>
      <point x="1266" y="771" type="curve" smooth="yes"/>
      <point x="1266" y="541" type="line" smooth="yes"/>
      <point x="1266" y="183"/>
      <point x="1079" y="10"/>
    </contour>
    <contour>
      <point x="1050" y="488" type="line"/>
      <point x="1050" y="520" type="line"/>
      <point x="440" y="520" type="line"/>
      <point x="440" y="488" type="line"/>
    </contour>
  </outline>
</glyph>
<glyph name="zero.zero" format="2">
  <advance width="1062"/>
  <outline>
    <component base="zero"/>
    <contour>
      <point x="173" y="235" type="line"/>
      <point x="900" y="1006" type="line"/>
      <point x="887" y="1041" type="line"/>
      <point x="162" y="271" type="line"/>
    </contour>
  </outline>
</glyph>
